<svg xmlns="http://www.w3.org/2000/svg" viewBox="0 0 423.1 75.24"><path d="M70.24,31.82a36.09,36.09,0,0,1-.36,4.64,5.31,5.31,0,0,1-.72,2.38,2.89,2.89,0,0,1-.93.69,8.34,8.34,0,0,1-2.55.23c-.42,0-.81,0-1.18,0l-.34-1.11a18.46,18.46,0,0,0,2,.11,4.92,4.92,0,0,0,1.63-.17,1.39,1.39,0,0,0,.64-.59,5.87,5.87,0,0,0,.44-1.77,30.21,30.21,0,0,0,.25-3.29h-6l.81-5.6h5.22V23.66H63.47V22.59h6.75v5.78H64.88l-.5,3.45ZM80.32,39.4l-1,.42c-.3-1.16-.5-1.89-.59-2.18-3.58.85-6.28,1.43-8.08,1.74l-.32-1a10.22,10.22,0,0,0,2.25-4.53A86,86,0,0,0,74.13,22l1.1.2q-.72,7.14-1.34,10.36A16.83,16.83,0,0,1,72,38q4.28-.77,6.43-1.39a39,39,0,0,0-2.27-6.06l.93-.39A44.59,44.59,0,0,1,80.32,39.4Z"/><path d="M100.4,35.06c-.06,2.07-.31,3.34-.74,3.8a2.13,2.13,0,0,1-1.65.7H94.76a1.49,1.49,0,0,1-1.19-.49,1.93,1.93,0,0,1-.42-1.28V30.87H89.69a11,11,0,0,1-1.38,5.34A9.89,9.89,0,0,1,83.59,40l-.79-1q5.88-2.14,5.76-8.16H83.07V29.78h8V22.16h1.08v7.62h8.08v1.09h-6v6.92a.74.74,0,0,0,.2.51.66.66,0,0,0,.5.21h3A1.06,1.06,0,0,0,99,37.67a10.31,10.31,0,0,0,.28-2.94Zm-12-7-.93.61a21.86,21.86,0,0,0-2.76-4.58l.88-.65A27.48,27.48,0,0,1,88.42,28Zm10.06-4.32a26.31,26.31,0,0,1-2.82,4.87L94.74,28a19.68,19.68,0,0,0,2.71-4.7Z"/><path d="M111.21,22.89a18,18,0,0,1-3.14,1v3.22h3v1h-3v1a22.79,22.79,0,0,1,3,3.47l-.75.85a18.1,18.1,0,0,0-2.24-2.88V39.8h-1V30.33a28.85,28.85,0,0,1-3.28,5.09l-.73-.89a21.27,21.27,0,0,0,3.9-6.34h-3.82v-1h3.93V24.21c-.57.12-1.54.29-2.93.52l-.57-1a25.36,25.36,0,0,0,7-1.68Zm9.61,11.54-2.06.32v5.07h-1.07v-4.9l-6.65,1-.08-1,6.73-1V22.16h1.07V33.64l2-.26ZM116,31.82l-.73.81a17,17,0,0,0-3.71-3.55l.67-.81A17.5,17.5,0,0,1,116,31.82Zm.47-5.43-.64.89a20,20,0,0,0-3.62-3.13l.6-.81A19,19,0,0,1,116.48,26.39Z"/><path d="M129.83,31c-.77.35-1.62.7-2.54,1.06v6.5a1.31,1.31,0,0,1-.45,1,4.43,4.43,0,0,1-2.56.36l-.42-1.13,1.15,0a2.67,2.67,0,0,0,1-.12.46.46,0,0,0,.19-.43V32.39c-.73.25-1.62.53-2.68.83l-.36-1c1.12-.33,2.14-.65,3-1V26.75h-2.89V25.7h2.89V22.14h1V25.7h2.28v1.05h-2.28v4.12a19.48,19.48,0,0,0,2.24-.88ZM141,39l-.6.92a18.82,18.82,0,0,1-5.05-3.08,26.36,26.36,0,0,1-6,3.06h0l0,0-.16-.21c-.08-.13-.23-.35-.44-.69a22.15,22.15,0,0,0,5.9-2.84,14.68,14.68,0,0,1-3-5.64h-.93v-1h4.18V26.19h-4.46v-1h4.46v-3h1.09v3h4.7v1h-4.7v3.29h3.78v1a10.24,10.24,0,0,1-3.53,5.72A15.12,15.12,0,0,0,141,39Zm-2.34-8.52h-6a13,13,0,0,0,2.71,5A9.35,9.35,0,0,0,138.66,30.51Z"/><path d="M161.18,39.06l-.72.91a18.63,18.63,0,0,1-5.2-4.82,19.31,19.31,0,0,1-2.91-6.78q-1.22,7.1-8.25,11.54l-.69-.92a22.54,22.54,0,0,0,3.44-2.72,17.22,17.22,0,0,0,2.74-3.35,14.75,14.75,0,0,0,1.68-4.84h-7.5V27h7.7a43.44,43.44,0,0,0,.34-4.92H153c-.06,1.77-.19,3.4-.38,4.92h8.28v1h-7.49a18.12,18.12,0,0,0,3,6.78A17,17,0,0,0,161.18,39.06Z"/><path d="M181.24,36.51H173v2a1.15,1.15,0,0,1-.37.9,1.32,1.32,0,0,1-.88.31l-2.4,0-.35-1q.58,0,1.17,0a6.24,6.24,0,0,0,1.6-.11.5.5,0,0,0,.22-.49V36.51h-8.28v-.95H172v-.81a34.87,34.87,0,0,0,3.28-1.31h-8.13v-.95h10.29v.95A47.93,47.93,0,0,1,173,35.38v.18h8.24Zm-.42-2.73h-1.06V31.24H165.17v2.54h-1V30.29h1.06L165.13,23a14.42,14.42,0,0,0,3.77-1l.47.81a13.49,13.49,0,0,1-3.24.95v1.44h3.26v.93h-3.24l0,1.56h3.2v.94h-3.16l0,1.62h12.39l0-1.62h-3.2v-.94h3.22l0-1.56h-3.24v-.93h3.28l0-1.46h-3.49v-.93h4.51l-.17,7.44h1.21Zm-5.72-4.62-.66.65c-.19-.19-.78-.68-1.78-1.48a14.63,14.63,0,0,1-2.44,1.43l-.51-.83a19.85,19.85,0,0,0,2.2-1.2,6.47,6.47,0,0,0-.85-.65c-.35-.23-.59-.4-.74-.51l.6-.63q1.47,1,1.74,1.23A7.35,7.35,0,0,0,174,26l.76.52a10.93,10.93,0,0,1-1.33,1.26C173.69,28,174.26,28.45,175.1,29.16ZM175,25.3l-.66.58a14.46,14.46,0,0,0-1.72-1.39,15.45,15.45,0,0,1-2.31,1.29l-.44-.81a13.16,13.16,0,0,0,2-1.09,12,12,0,0,0-1.46-1.11l.67-.59c.81.59,1.32,1,1.54,1.16A9.28,9.28,0,0,0,174.07,22l.77.4a9.37,9.37,0,0,1-1.46,1.54A13.31,13.31,0,0,1,175,25.3Z"/><path d="M200.66,39.86h-1V38.55H185.85v1.31h-1.07v-17h15.88Zm-1-2.26V23.82H185.85V37.6Zm-1-8H186.86v-.83h5.37v-1h-4.14V24.94h9.29v2.83h-4.09v1h5.29Zm-.93,6.93h-9.84v-6h9.84Zm-1-.82V31.32h-7.8v4.37Zm-.26-8.75V25.78h-7.25v1.16Zm-1.32,7.83h-4.68V32.15h4.68Zm-.94-.79v-1h-2.8v1Z"/><path d="M221.71,26.23h-1.84v2.16H213.4v1.25h6.79v.85H213.4v1.33h8.31v.87H204.15v-.87h8.25V30.49h-6.69v-.85h6.69V28.39H206v-.81h6.41V26.23h-8.25V25.4h8.25V24.09H206v-.87h6.41v-1h1v1h6.47V25.4h1.84Zm-2,13.61h-1v-.66H207.21v.66h-1.06V34h13.59Zm-1-3.71V34.81H207.21v1.32Zm0,2.18V37H207.21v1.33Zm.14-12.91V24.09H213.4V25.4Zm0,2.18V26.23H213.4v1.35Z"/><path d="M232.11,25.13l-.69.77a16.3,16.3,0,0,0-2.7-2.26c-.34.39-.89,1-1.64,1.76h3.28v1H227v-.83a27.86,27.86,0,0,1-2.19,1.8l-.54-1a13.75,13.75,0,0,0,4.26-4.31l1,.31a2.69,2.69,0,0,1-.23.44A23,23,0,0,1,232.11,25.13Zm.2,14.13-.93.54c-.35-.85-.59-1.39-.71-1.62-1.25.46-2.89,1-4.94,1.68l-.44-.89a1,1,0,0,0,.4-.91V27.54h5.9V34h-4.91v4.42a34.54,34.54,0,0,0,3.55-1.12,19,19,0,0,0-1.07-1.77l.89-.48A30.26,30.26,0,0,1,232.31,39.26Zm-1.76-9V28.57h-3.87v1.66Zm0,2.76V31.22h-3.87V33Zm11.16-6h-1v-1.8h-6.93V27h-1v-2.8h3.91a18.47,18.47,0,0,0-.92-1.75l1-.44a14,14,0,0,1,1.1,2.19h3.91ZM241,38.72H234.6v1.12h-1V27.6h6.77V32H234.6v2H241ZM239.3,31V28.59h-4.7V31Zm.71,6.67V35.06H234.6v2.62Z"/><path d="M69.82,52.25h-.89v-3.7H64.7v3.7h-.88V44.18h.88v3.56h4.23V44.18h.89Z"/><path d="M77.8,49c0,2.26-1,3.38-3,3.38s-2.91-1.08-2.91-3.25v-5h.89v4.89c0,1.67.71,2.51,2.13,2.51s2-.81,2-2.43v-5h.88Z"/><path d="M86.29,52.25H85.17L81,45.73a2.73,2.73,0,0,1-.25-.48h0a10.65,10.65,0,0,1,0,1.08v5.92h-.89V44.18H81l4.1,6.45a5,5,0,0,1,.32.55h0A8.93,8.93,0,0,1,85.4,50V44.18h.89Z"/><path d="M94.41,51.69a5.33,5.33,0,0,1-2.69.69A3.63,3.63,0,0,1,89,51.26a4.1,4.1,0,0,1-1.06-2.94,4.21,4.21,0,0,1,1.18-3.07,4,4,0,0,1,3-1.2,4.93,4.93,0,0,1,2.2.43v1A4.24,4.24,0,0,0,92,44.86a2.94,2.94,0,0,0-2.25,1,3.44,3.44,0,0,0-.88,2.44,3.51,3.51,0,0,0,.81,2.44,2.86,2.86,0,0,0,2.22.89,3.49,3.49,0,0,0,1.67-.39V48.88H91.74v-.81h2.67Z"/><path d="M101.84,52.25h-1.26l-3.16-3.7c-.1-.13-.18-.22-.21-.27h0v4H96.3V44.18h.88V48h0a3,3,0,0,1,.21-.26l3.07-3.53h1.1l-3.5,3.87Z"/><path d="M108.78,49c0,2.26-1,3.38-3,3.38s-2.9-1.08-2.9-3.25v-5h.88v4.89c0,1.67.71,2.51,2.13,2.51s2-.81,2-2.43v-5h.89Z"/><path d="M116.77,52.25h-1L114.91,50h-3.46l-.81,2.29h-1l3.1-8.07h.9Zm-2.16-3.11-1.29-3.48a2.66,2.66,0,0,1-.12-.53h0a2.54,2.54,0,0,1-.13.53l-1.27,3.48Z"/><path d="M124.42,52.25h-1.11l-4.21-6.52a3.62,3.62,0,0,1-.25-.48h0a8.24,8.24,0,0,1,0,1.08v5.92H118V44.18h1.18l4.09,6.45c.21.33.32.52.33.55h0a8.93,8.93,0,0,1-.06-1.21V44.18h.89Z"/><path d="M132.54,51.69a5.3,5.3,0,0,1-2.68.69,3.64,3.64,0,0,1-2.78-1.12A4.14,4.14,0,0,1,126,48.32a4.25,4.25,0,0,1,1.18-3.07,4,4,0,0,1,3-1.2,4.9,4.9,0,0,1,2.2.43v1a4.19,4.19,0,0,0-2.31-.62,3,3,0,0,0-2.25,1,3.44,3.44,0,0,0-.87,2.44,3.55,3.55,0,0,0,.8,2.44,2.86,2.86,0,0,0,2.22.89,3.46,3.46,0,0,0,1.67-.39V48.88h-1.77v-.81h2.66Z"/><path d="M143,49c0,2.26-1,3.38-3,3.38S137,51.3,137,49.13v-5h.88v4.89c0,1.67.71,2.51,2.13,2.51s2.05-.81,2.05-2.43v-5H143Z"/><path d="M151.44,52.25h-1.12l-4.21-6.52a5.39,5.39,0,0,1-.25-.48h0a7.64,7.64,0,0,1,0,1.08v5.92H145V44.18h1.17l4.09,6.45c.21.33.32.52.33.55h0a9.31,9.31,0,0,1,0-1.21V44.18h.89Z"/><path d="M154.45,52.25h-.88V44.18h.88Z"/><path d="M162.54,44.18l-3,8.07h-1l-2.93-8.07h1l2.27,6.45a3.76,3.76,0,0,1,.16.71h0a3.22,3.22,0,0,1,.19-.72l2.32-6.44Z"/><path d="M168,52.25h-4.23V44.18h4.05V45H164.6v2.74h2.93v.81H164.6v2.89H168Z"/><path d="M175.23,52.25h-1.06L172.82,50a2.85,2.85,0,0,0-.79-1,1.51,1.51,0,0,0-.83-.22h-.79v3.45h-.89V44.18h2.38a2.61,2.61,0,0,1,1.76.57,2,2,0,0,1,.66,1.58,2.13,2.13,0,0,1-1.79,2.17v0a1.59,1.59,0,0,1,.55.38,7.47,7.47,0,0,1,.65.93ZM170.41,45v3h1.31a1.68,1.68,0,0,0,1.2-.43,1.46,1.46,0,0,0,.46-1.14,1.27,1.27,0,0,0-.42-1,1.79,1.79,0,0,0-1.23-.37Z"/><path d="M176,50.85a2.5,2.5,0,0,0,1,.51,3.77,3.77,0,0,0,1.18.21c1.17,0,1.76-.43,1.76-1.28a1.1,1.1,0,0,0-.19-.64,1.63,1.63,0,0,0-.49-.49c-.2-.13-.61-.36-1.22-.67a4.89,4.89,0,0,1-1.66-1.17,2,2,0,0,1-.35-1.13,1.86,1.86,0,0,1,.79-1.56,3.26,3.26,0,0,1,2-.58,3.69,3.69,0,0,1,1.71.28v1a3.1,3.1,0,0,0-1.82-.49,2.17,2.17,0,0,0-1.25.33,1,1,0,0,0-.49.91,1.19,1.19,0,0,0,.17.63,1.71,1.71,0,0,0,.46.47c.2.13.58.34,1.14.62A5.18,5.18,0,0,1,180.36,49a1.86,1.86,0,0,1,.47,1.25,1.88,1.88,0,0,1-.75,1.59,3.46,3.46,0,0,1-2.09.56,5.38,5.38,0,0,1-1.07-.13,2.55,2.55,0,0,1-.93-.33Z"/><path d="M183.35,52.25h-.89V44.18h.89Z"/><path d="M190.2,45h-2.33v7.25H187V45h-2.32v-.82h5.54Z"/><path d="M196.83,44.18l-2.66,5.08v3h-.89v-3l-2.6-5.1h1l1.84,3.69.19.48h0a3,3,0,0,1,.22-.48l1.92-3.69Z"/><path d="M204.78,52.25h-4.15V44.18h.89v7.26h3.26Z"/><path d="M206.9,52.25H206V44.18h.88Z"/><path d="M209.05,52.25V44.18h2.25a2.46,2.46,0,0,1,1.62.51,1.64,1.64,0,0,1,.62,1.34,2,2,0,0,1-.36,1.18,2.07,2.07,0,0,1-1,.74v0a2,2,0,0,1,1.3.6,1.92,1.92,0,0,1,.49,1.37,2.08,2.08,0,0,1-.73,1.66,2.72,2.72,0,0,1-1.86.65Zm.88-7.24v2.65h1a1.84,1.84,0,0,0,1.25-.39,1.32,1.32,0,0,0,.45-1.07c0-.8-.52-1.19-1.56-1.19Zm0,3.46v3h1.31a2,2,0,0,0,1.31-.4,1.39,1.39,0,0,0,.47-1.1c0-1-.67-1.46-2-1.46Z"/><path d="M221.31,52.25h-1.06L218.89,50a2.85,2.85,0,0,0-.78-1,1.51,1.51,0,0,0-.83-.22h-.8v3.45h-.88V44.18H218a2.61,2.61,0,0,1,1.77.57,2,2,0,0,1,.65,1.58,2.12,2.12,0,0,1-1.78,2.17v0a1.69,1.69,0,0,1,.55.38,7.47,7.47,0,0,1,.65.93ZM216.48,45v3h1.32a1.68,1.68,0,0,0,1.2-.43,1.46,1.46,0,0,0,.46-1.14,1.27,1.27,0,0,0-.42-1,1.79,1.79,0,0,0-1.23-.37Z"/><path d="M228.63,52.25h-1L226.77,50h-3.46l-.81,2.29h-1l3.1-8.07h.9Zm-2.16-3.11-1.29-3.48a2.66,2.66,0,0,1-.12-.53h0a2.54,2.54,0,0,1-.13.53l-1.27,3.48Z"/><path d="M235.54,52.25h-1.06L233.13,50a2.85,2.85,0,0,0-.79-1,1.49,1.49,0,0,0-.83-.22h-.79v3.45h-.89V44.18h2.38a2.59,2.59,0,0,1,1.76.57,2,2,0,0,1,.66,1.58,2.13,2.13,0,0,1-1.79,2.17v0a1.59,1.59,0,0,1,.55.38,7.47,7.47,0,0,1,.65.93ZM230.72,45v3H232a1.68,1.68,0,0,0,1.2-.43,1.46,1.46,0,0,0,.46-1.14,1.27,1.27,0,0,0-.42-1A1.79,1.79,0,0,0,232,45Z"/><path d="M241.65,44.18,239,49.26v3h-.9v-3l-2.59-5.1h1l1.83,3.69a5,5,0,0,1,.2.48h0a3,3,0,0,1,.22-.48l1.92-3.69Z"/><path d="M281.35,29.48h-1V26h-7.07v4h-1V26h-6.59v3.45h-1.06V25.07h7.65V23.58h-6.92v-.94h15.38v.94h-7.44v1.49h8.1Zm.61,7.94a3,3,0,0,1-.63,1.76,2.5,2.5,0,0,1-1.72.6c-.83,0-1.76.07-2.79.07s-1.74,0-2.53-.06a2.59,2.59,0,0,1-1.61-.45,1.67,1.67,0,0,1-.42-1.26V36.59h-6.45V30.81h14v5.78h-6.46v1.57a.46.46,0,0,0,.18.39,3.94,3.94,0,0,0,1.28.2c.74,0,1.57.07,2.47.07a17.28,17.28,0,0,0,2.78-.11.89.89,0,0,0,.6-.61,4.06,4.06,0,0,0,.24-1.23Zm-10.55-8a23.57,23.57,0,0,1-4.56.76l-.33-.92a26.75,26.75,0,0,0,4.55-.63Zm0-2.06-.34.87a27.53,27.53,0,0,0-4.41-.63l.45-.87A33,33,0,0,1,271.41,27.34Zm.85,5.88V31.76h-5.39v1.46Zm0,2.42V34.13h-5.39v1.51Zm6.46-2.42V31.76h-5.39v1.46Zm0,2.42V34.13h-5.39v1.51Zm.61-6.22-.47.85a28.27,28.27,0,0,0-4.76-.79l.44-.81A27,27,0,0,1,279.33,29.42Zm-.14-1.82c-1.67.29-3.21.49-4.61.59l-.3-.83a37.83,37.83,0,0,0,4.54-.63Z"/><path d="M301.91,31.54h-8.13v6.75a1.55,1.55,0,0,1-.46,1.14,1.67,1.67,0,0,1-1.22.45c-.8,0-1.67,0-2.61,0l-.41-1.09c1.53,0,2.58.06,3.14.06a.45.45,0,0,0,.34-.17.61.61,0,0,0,.14-.37V31.54h-8.3V30.47h8.3V27.84a31,31,0,0,0,5.5-4.08H286.63V22.68h13.09v1.08a40.89,40.89,0,0,1-5.94,4.67v2h8.13Z"/><path d="M319.21,37h-8l.5.66A26.86,26.86,0,0,1,305.06,40l-.52-1a21.4,21.4,0,0,0,6.16-2h-3.13v-7.4h11.64Zm-8.87-9.31h-5.65v-1h5.65Zm-.16-3.64h-5.09v-1h5.09Zm8,7.65V30.57h-9.52v1.15Zm0,2.16V32.63h-9.52v1.25Zm0,2.18V34.79h-9.52v1.27Zm4.08-7.71-.45,1a12.07,12.07,0,0,1-6-2.35,9.51,9.51,0,0,1-4.63,2.3l-.54-1q3.72-.57,5.13-3l1.1.2a2.7,2.7,0,0,1-.46.79A11,11,0,0,0,322.24,28.35Zm-.43-3.7a15.87,15.87,0,0,1-1.89,2.29l-.77-.73a16.41,16.41,0,0,0,1.47-1.72h-7.39a10.56,10.56,0,0,1-1.84,1.82l-.7-.7A10.48,10.48,0,0,0,313.61,22l1,.35L314,23.5h7.85Zm.31,14.43-.49.93a38.72,38.72,0,0,0-5.86-1.7l.51-.91A37,37,0,0,1,322.12,39.08Z"/><path d="M328.26,33.18a50,50,0,0,1-2.79,6.42l-.81-.85a49.26,49.26,0,0,0,2.65-6.18Zm.32-3.33-.68.81a35.94,35.94,0,0,0-3.18-2.33l.77-.77A26.29,26.29,0,0,1,328.58,29.85ZM329,25l-.79.77a23.85,23.85,0,0,0-3.24-2.48l.81-.79A31.56,31.56,0,0,1,329,25Zm13.42-1.25h-4.75A17.07,17.07,0,0,1,337,25.9h4.45v7h-3.92v5.47a1.62,1.62,0,0,1-.39,1c-.26.31-.85.47-1.79.47a9.72,9.72,0,0,1-1-.06l-.31-1a11.68,11.68,0,0,0,1.39.09,1.88,1.88,0,0,0,.88-.12.37.37,0,0,0,.16-.31V32.9H332.7v-7h3.18c.17-.48.37-1.19.6-2.12H331v6.55a17.37,17.37,0,0,1-2.6,9.53l-.87-.76a11.6,11.6,0,0,0,1.73-3.77,26.61,26.61,0,0,0,.68-6.92V22.79h12.42ZM334.9,34.86a24.18,24.18,0,0,1-3.41,3.89l-.72-.76a23.6,23.6,0,0,0,3.32-3.92Zm5.46-6v-2h-6.58v2Zm0,3.08V29.85h-6.58v2.08ZM342.48,38l-.76.79a26.07,26.07,0,0,0-2.85-3.91l.81-.73A30.76,30.76,0,0,1,342.48,38Z"/><path d="M362.64,29.14l-.62.92a40.67,40.67,0,0,0-7.75-3.41v2.91h6v7.09H347.31V29.56h5.94V25.61a23.66,23.66,0,0,1-7.76,4.51l-.71-.92a21.18,21.18,0,0,0,7.64-4.15H345v-1h8.25V22.12h1v1.93h8.25v1h-8.25v.56A45,45,0,0,1,362.64,29.14Zm0,10.26H345v-1h17.66Zm-3.43-6.85v-2H348.36v2Zm0,3.05v-2H348.36v2Z"/><path d="M372,25.3h-6.77v-1h3l-.9-1.87,1-.39,1,2.26H372Zm-.58,2.95h-5.74v-1h5.74Zm0,2.91h-5.74v-1h5.74Zm-.27,8.22h-1V38.31h-3.2v1.53h-1V33.11h5.29Zm-1-2.09V34.13h-3.2v3.16Zm12.26-12.43c0,2.55,0,5.2-.12,8s-.16,4.38-.24,4.87a2.64,2.64,0,0,1-.57,1.27,2.18,2.18,0,0,1-1.11.71,7.08,7.08,0,0,1-1.77.18h-1.09l-.35-1.07c.39,0,.82,0,1.3,0a4.25,4.25,0,0,0,1.92-.25,1.42,1.42,0,0,0,.53-.64,31,31,0,0,0,.32-4.26q.17-3.87.17-7.83H375a23.81,23.81,0,0,1-1.58,2.24h5.49v8.46h-5.63V28.31a7.54,7.54,0,0,1-.73.91l-.81-.63a23.37,23.37,0,0,0,4-6.55l1,.33a14.82,14.82,0,0,1-1.13,2.49Zm-4.44,6.74V29.1h-3.6v2.5Zm0,3.9V32.61h-3.6V35.5Z"/><path d="M391.75,35.5A18.61,18.61,0,0,1,386,38.66l-.67-.9a17.76,17.76,0,0,0,5.57-2.95Zm10.67-1.56-.91.61A16.73,16.73,0,0,0,400.32,33c-2.62.28-4.43.46-5.44.55v5.12a1.08,1.08,0,0,1-.29.75,1.32,1.32,0,0,1-.66.38,7.9,7.9,0,0,1-1.35.08c-.37,0-.71,0-1,0l-.44-1.07q.56,0,1.17,0a8,8,0,0,0,1.27-.05c.16,0,.24-.18.24-.46V33.63q-4.44.27-6.69.35l-.31-.89a55.57,55.57,0,0,0,7.26-3.24q-3.49.21-6.24.27l-.27-.74a21.44,21.44,0,0,0,7.32-4.18l1,.58a23.1,23.1,0,0,1-5,3.26l1.89-.09c.6,0,1.19-.06,1.77-.11a7.77,7.77,0,0,0,1.84-.25,29.14,29.14,0,0,0,2.52-1.76l.94.65a50.85,50.85,0,0,1-9.75,5.4c3.26-.12,6.42-.38,9.46-.77A15.47,15.47,0,0,0,398,30.64l.91-.62A23,23,0,0,1,402.42,33.94Zm-6.17-11.26q-2.82,2.55-8.48,4l-.81-.93q5.64-1.22,8.39-3.7Zm6.67,15.15-.69.87a23,23,0,0,0-5.09-3.16l.69-.85A25.71,25.71,0,0,1,402.92,37.83Z"/><path d="M407.75,35.06a20.21,20.21,0,0,1-1.23,4.74l-.95-.35a18.81,18.81,0,0,0,1.19-4.64Zm4.87-1.26-.93.33a11.35,11.35,0,0,0-.32-1.18,53.11,53.11,0,0,1-5.34,1.4l-.3-.93a31.48,31.48,0,0,0,4-5c-1.07.22-2.26.42-3.57.59l-.27-1a21.26,21.26,0,0,0,3.34-5.94l.94.35a20.41,20.41,0,0,1-2.95,5.41,23.07,23.07,0,0,0,3.18-.58,10.49,10.49,0,0,0,.81-1.52l.93.41a31.47,31.47,0,0,1-4.63,6.8A24.63,24.63,0,0,0,411,32c-.14-.4-.31-.81-.5-1.25l.91-.39A18.27,18.27,0,0,1,412.62,33.8ZM410.23,39l-1,.21a14.87,14.87,0,0,0-.66-4.12l1-.16A24.19,24.19,0,0,1,410.23,39Zm2.31-1.6-1,.31a18.23,18.23,0,0,0-.81-2.87l.93-.28A17.62,17.62,0,0,1,412.54,37.35ZM423.1,25.48h-6.18a25.61,25.61,0,0,1-2.7,4.54,51.38,51.38,0,0,0,6.32-.67,16.58,16.58,0,0,0-1.5-1.87l.89-.56a26.71,26.71,0,0,1,3,4.22l-.85.62a10.68,10.68,0,0,0-.93-1.51l-1.87.3v7.53a.4.4,0,0,0,.46.45h1.43a.6.6,0,0,0,.46-.18,2.84,2.84,0,0,0,.31-1.23,23.7,23.7,0,0,0,.14-2.39l1,.36a13.49,13.49,0,0,1-.3,3.12A1.69,1.69,0,0,1,422,39.3a4,4,0,0,1-1.68.25,3.28,3.28,0,0,1-1.64-.28,1.19,1.19,0,0,1-.45-1.09v-7.5c-1.12.13-1.81.19-2.08.19q0,6.09-3.76,9l-.7-.72A9,9,0,0,0,414.22,36a11.87,11.87,0,0,0,.9-5c-.33.05-1.07.1-2.22.13l-.22-.92a16.83,16.83,0,0,0,3.13-4.7h-3.42v-1h3.89c.23-.52.54-1.31,1-2.39l1,.31a20.56,20.56,0,0,1-.85,2.08h5.74Z"/><path d="M268.09,52.25h-4.24V44.18h4.06V45h-3.17v2.74h2.93v.81h-2.93v2.89h3.35Z"/><path d="M272.47,49.38H269.4v-.69h3.07Z"/><path d="M280,52.25h-1.06L277.55,50a2.85,2.85,0,0,0-.78-1,1.51,1.51,0,0,0-.83-.22h-.8v3.45h-.88V44.18h2.37a2.61,2.61,0,0,1,1.77.57,2,2,0,0,1,.65,1.58,2.12,2.12,0,0,1-1.78,2.17v0a1.69,1.69,0,0,1,.55.38,7.47,7.47,0,0,1,.65.93ZM275.14,45v3h1.32a1.68,1.68,0,0,0,1.2-.43,1.46,1.46,0,0,0,.46-1.14,1.27,1.27,0,0,0-.42-1,1.79,1.79,0,0,0-1.23-.37Z"/><path d="M285.25,49.58h-4.08a2.24,2.24,0,0,0,.52,1.53,1.81,1.81,0,0,0,1.37.53,2.87,2.87,0,0,0,1.8-.65v.83a3.31,3.31,0,0,1-2,.56,2.43,2.43,0,0,1-1.9-.78,3.28,3.28,0,0,1-.69-2.22,3.2,3.2,0,0,1,.75-2.17,2.41,2.41,0,0,1,1.88-.86,2.16,2.16,0,0,1,1.73.73,3.08,3.08,0,0,1,.62,2Zm-.9-.76a1.89,1.89,0,0,0-.39-1.27,1.32,1.32,0,0,0-1.07-.45,1.58,1.58,0,0,0-1.11.46,2.08,2.08,0,0,0-.6,1.26Z"/><path d="M286.31,51.08a2.71,2.71,0,0,0,1.65.55c.82,0,1.23-.27,1.23-.83a.74.74,0,0,0-.27-.59,3.83,3.83,0,0,0-1.05-.52,3.21,3.21,0,0,1-1.25-.75,1.51,1.51,0,0,1,.33-2.13,2.61,2.61,0,0,1,1.55-.46,3.29,3.29,0,0,1,1.33.26v.91a2.63,2.63,0,0,0-1.47-.42,1.41,1.41,0,0,0-.83.23.74.74,0,0,0-.32.61.71.71,0,0,0,.22.57,4.4,4.4,0,0,0,1,.52,3.33,3.33,0,0,1,1.32.75,1.5,1.5,0,0,1-.3,2.16,2.79,2.79,0,0,1-1.62.44,3,3,0,0,1-1.52-.35Z"/><path d="M291.14,49.44a3.15,3.15,0,0,1,.78-2.26,2.79,2.79,0,0,1,2.13-.83,2.55,2.55,0,0,1,2,.8,3.17,3.17,0,0,1,.72,2.2,3.05,3.05,0,0,1-.78,2.2,2.71,2.71,0,0,1-2.06.83,2.67,2.67,0,0,1-2-.8A3,3,0,0,1,291.14,49.44Zm.88,0a2.36,2.36,0,0,0,.54,1.63,1.78,1.78,0,0,0,1.42.61,1.74,1.74,0,0,0,1.4-.59,2.54,2.54,0,0,0,.5-1.67,2.58,2.58,0,0,0-.49-1.69,1.72,1.72,0,0,0-1.41-.6,1.8,1.8,0,0,0-1.43.62A2.53,2.53,0,0,0,292,49.4Z"/><path d="M302.86,52.25H302v-.91h0a1.89,1.89,0,0,1-1.77,1c-1.38,0-2.07-.81-2.07-2.45V46.49H299v3.29c0,1.24.48,1.86,1.42,1.86a1.45,1.45,0,0,0,1.14-.51,2,2,0,0,0,.44-1.32V46.49h.87Z"/><path d="M307.7,47.38a1.15,1.15,0,0,0-.7-.18,1.17,1.17,0,0,0-1,.58,2.66,2.66,0,0,0-.39,1.52v3h-.87V46.49h.87v1.19h0a2,2,0,0,1,.6-1,1.35,1.35,0,0,1,.9-.34,1.62,1.62,0,0,1,.56.08Z"/><path d="M312.46,52a3,3,0,0,1-1.57.4,2.56,2.56,0,0,1-2-.8,2.9,2.9,0,0,1-.75-2.08,3.22,3.22,0,0,1,.81-2.29,2.84,2.84,0,0,1,2.16-.86,3,3,0,0,1,1.33.29v.91a2.31,2.31,0,0,0-1.38-.46,1.89,1.89,0,0,0-1.46.64,2.42,2.42,0,0,0-.58,1.7,2.33,2.33,0,0,0,.54,1.62,1.85,1.85,0,0,0,1.44.59,2.37,2.37,0,0,0,1.43-.5Z"/><path d="M318.45,49.58h-4.08a2.24,2.24,0,0,0,.53,1.53,1.8,1.8,0,0,0,1.37.53,2.86,2.86,0,0,0,1.79-.65v.83a3.29,3.29,0,0,1-2,.56,2.39,2.39,0,0,1-1.89-.78,3.68,3.68,0,0,1,.05-4.39,2.41,2.41,0,0,1,1.88-.86,2.16,2.16,0,0,1,1.73.73,3,3,0,0,1,.62,2Zm-.89-.76a2,2,0,0,0-.39-1.27,1.35,1.35,0,0,0-1.08-.45,1.58,1.58,0,0,0-1.11.46,2.2,2.2,0,0,0-.6,1.26Z"/><path d="M319.51,51.08a2.73,2.73,0,0,0,1.65.55c.82,0,1.23-.27,1.23-.83a.76.76,0,0,0-.26-.59,3.78,3.78,0,0,0-1.06-.52,3.15,3.15,0,0,1-1.24-.75,1.39,1.39,0,0,1-.31-.93,1.43,1.43,0,0,1,.63-1.2,2.62,2.62,0,0,1,1.56-.46,3.27,3.27,0,0,1,1.32.26v.91a2.58,2.58,0,0,0-1.46-.42,1.41,1.41,0,0,0-.83.23.79.79,0,0,0-.1,1.18,4.25,4.25,0,0,0,1,.52,3.33,3.33,0,0,1,1.32.75,1.36,1.36,0,0,1,.34.94,1.41,1.41,0,0,1-.63,1.22,2.81,2.81,0,0,1-1.62.44,3,3,0,0,1-1.53-.35Z"/><path d="M333.51,51.69a5.33,5.33,0,0,1-2.69.69,3.63,3.63,0,0,1-2.77-1.12A4.1,4.1,0,0,1,327,48.32a4.21,4.21,0,0,1,1.18-3.07,4,4,0,0,1,3-1.2,5,5,0,0,1,2.21.43v1a4.24,4.24,0,0,0-2.31-.62,2.92,2.92,0,0,0-2.25,1,3.4,3.4,0,0,0-.88,2.44,3.51,3.51,0,0,0,.81,2.44,2.86,2.86,0,0,0,2.22.89,3.49,3.49,0,0,0,1.67-.39V48.88h-1.78v-.81h2.67Z"/><path d="M335.41,46.9a3.52,3.52,0,0,1,1.94-.55q2,0,2,2.13v3.77h-.88v-.91h0a1.89,1.89,0,0,1-1.77,1,1.92,1.92,0,0,1-1.34-.45,1.58,1.58,0,0,1-.49-1.21c0-1.06.63-1.69,1.89-1.87l1.74-.25q0-1.5-1.2-1.5a2.78,2.78,0,0,0-1.87.72Zm1.66,2.61a2,2,0,0,0-1,.36,1,1,0,0,0-.29.79.92.92,0,0,0,.31.71,1.2,1.2,0,0,0,.81.27,1.5,1.5,0,0,0,1.15-.5,1.72,1.72,0,0,0,.46-1.23v-.58Z"/><path d="M343.73,52.19a1.69,1.69,0,0,1-.84.18c-1,0-1.48-.55-1.48-1.67V47.24h-1v-.75h1V45.07l.86-.28v1.7h1.46v.75h-1.46v3.31a1.34,1.34,0,0,0,.2.83.78.78,0,0,0,.66.25.92.92,0,0,0,.6-.19Z"/><path d="M349.48,49.58H345.4a2.29,2.29,0,0,0,.52,1.53,1.81,1.81,0,0,0,1.37.53,2.87,2.87,0,0,0,1.8-.65v.83a3.29,3.29,0,0,1-2,.56,2.43,2.43,0,0,1-1.9-.78,3.28,3.28,0,0,1-.69-2.22,3.2,3.2,0,0,1,.75-2.17,2.41,2.41,0,0,1,1.88-.86,2.16,2.16,0,0,1,1.73.73,3.08,3.08,0,0,1,.62,2Zm-.9-.76a1.89,1.89,0,0,0-.39-1.27,1.32,1.32,0,0,0-1.07-.45,1.58,1.58,0,0,0-1.11.46,2.08,2.08,0,0,0-.6,1.26Z"/><path d="M358.08,46.49l-1.73,5.76h-.9l-1.21-4.17a2.7,2.7,0,0,1-.08-.52h0a2.46,2.46,0,0,1-.11.51l-1.31,4.18h-.87l-1.75-5.76H351l1.21,4.37a2.27,2.27,0,0,1,.08.51h0a2.69,2.69,0,0,1,.11-.52l1.35-4.36h.79l1.21,4.38a3.44,3.44,0,0,1,.08.51h.05a2.29,2.29,0,0,1,.09-.51l1.2-4.38Z"/><path d="M359.29,46.9a3.58,3.58,0,0,1,1.95-.55c1.33,0,2,.71,2,2.13v3.77h-.87v-.91h0a2.11,2.11,0,0,1-3.12.59,1.61,1.61,0,0,1-.49-1.21c0-1.06.63-1.69,1.9-1.87l1.74-.25q0-1.5-1.2-1.5a2.8,2.8,0,0,0-1.88.72ZM361,49.51a2,2,0,0,0-1,.36,1,1,0,0,0-.29.79.89.89,0,0,0,.31.71,1.17,1.17,0,0,0,.81.27,1.51,1.51,0,0,0,1.15-.5,1.77,1.77,0,0,0,.46-1.23v-.58Z"/><path d="M369.52,46.49l-2.67,6.71c-.46,1.17-1.12,1.76-2,1.76a1.91,1.91,0,0,1-.56-.07V54.1a1.78,1.78,0,0,0,.53.09,1.13,1.13,0,0,0,1.05-.84l.47-1.11-2.25-5.75h1L366.69,51l.12.41h0A3.92,3.92,0,0,1,367,51l1.67-4.5Z"/><path d="M37,47.62a12.83,12.83,0,0,0-1.36,1.2,5.42,5.42,0,0,1-2.25,1.24c-.69.14-.94,0-1.15-.72a28.06,28.06,0,0,1-2.86,1.75,19.81,19.81,0,0,1-11,2.32A20.55,20.55,0,0,1,12.46,52c-.67-.3-1.3-.71-2-1h0l-.05-.1a20.67,20.67,0,0,1-2.66-2.08A17.79,17.79,0,0,1,2.92,40.1a31.71,31.71,0,0,1-.69-10.5,38.68,38.68,0,0,1,2.9-11.93,16.26,16.26,0,0,1,3.5-5A41.82,41.82,0,0,1,20.08,4.57,47.27,47.27,0,0,1,31.65.44C32.29.3,33,.21,33.59.1c.08,0,.17,0,.19-.1h3.29A4.21,4.21,0,0,0,38,.3a1.81,1.81,0,0,1,1.27,1.26,2.73,2.73,0,0,1-.39,1.89,22.56,22.56,0,0,1-3.33,5,11.17,11.17,0,0,1-4.44,3.2,12.14,12.14,0,0,1-7.47,0c-1.37-.36-1.54-1-.65-2.1a23.81,23.81,0,0,1,2.43-2.49,3.7,3.7,0,0,1,3.21-1.16,1.69,1.69,0,0,1,1.46,1.23,1.55,1.55,0,0,1-.71,1.7,5,5,0,0,1-2.4.9c-.59.09-.86-.26-.74-.86A8.12,8.12,0,0,1,26.52,8a5.19,5.19,0,0,0-1.21.67,3.06,3.06,0,0,0-1,.79c-.18.24-.27.47.11.65s.77.45,1.18.63A5.85,5.85,0,0,0,32,10.17,16.74,16.74,0,0,0,36.43,4.9c.6-1,.16-1.82-1-2.09a9.67,9.67,0,0,0-3.22-.07,36.56,36.56,0,0,0-7.29,1.62,39.05,39.05,0,0,0-9.55,4.35A50.84,50.84,0,0,0,7.7,14.8a1.52,1.52,0,0,0-.31.36c-.1.22-.14.42.24.43.56,0,1.12.07,1.68.11,0,.16-.06.33,0,.49.24-.1.34-.39.61-.44,2.93.08,5.85.11,8.78-.06a74.35,74.35,0,0,0,7.89-.87A36.1,36.1,0,0,0,37.83,11a30.82,30.82,0,0,0,5.88-4.13c.62-.56,1.18-1.19,1.85-1.69A3.14,3.14,0,0,1,50.72,7a13.78,13.78,0,0,1,.15,5.61c-.46,3.36-1.17,6.68-1.84,10a56.16,56.16,0,0,1-4,12.22c-.15.34-.13.53.2.72a20.72,20.72,0,0,1,4.6,3.69A14.75,14.75,0,0,1,53.67,46,4.59,4.59,0,0,0,54,47.33v3.19a7.21,7.21,0,0,0-.34,1.53,22.67,22.67,0,0,1-4.34,8.59,37.09,37.09,0,0,1-13,10.92,34.72,34.72,0,0,1-13.08,3.55A37.86,37.86,0,0,1,9.79,73.85a17.15,17.15,0,0,1-5.14-2.23A4.29,4.29,0,0,1,4,71c-.49-.54-.36-1,.31-1.26a4.93,4.93,0,0,1,1.52-.24c2.28-.12,4.57-.2,6.85-.31,2.78-.14,5.56-.32,8.32-.65a55.52,55.52,0,0,0,5.61-.9c.12,0,.24,0,.33-.1h0c.14,0,.3,0,.39-.11h0a7,7,0,0,0,2-.37,39.06,39.06,0,0,0,9.18-3.37c.2-.11.41-.18.52-.41a.74.74,0,0,0,.5-.13,25.24,25.24,0,0,0,6.26-5,21.07,21.07,0,0,0,4.3-6.92,8,8,0,0,0,0-6.29c-1.46-3.07-4.24-4.44-7.24-5.48a.18.18,0,0,0-.25.07c-.4.74-1,1.4-1.31,2.18a5.48,5.48,0,0,0-1,1.55c-.76.85-1.35,1.83-2,2.74A11.61,11.61,0,0,0,37,47.62ZM6.05,39.76H6A2.75,2.75,0,0,0,6.5,41s-.06.08,0,.1a16.86,16.86,0,0,0,5.71,7.25c1.23.87,1.22.88,2.44,0l.16-.11a37.57,37.57,0,0,0,4.79-3.94,17.86,17.86,0,0,0,1.95-1.94c.12-.11.25-.21.36-.32a31.53,31.53,0,0,0,2.22-2.54,27.74,27.74,0,0,0,2.55-3.62,10.86,10.86,0,0,0,1.43-2.35c.16-.28.33-.55.48-.83.91-1.66,1.54-3.46,2.42-5.13a11.94,11.94,0,0,1,2.52-3.45C35,22.83,36.6,22.63,38,23.64a6,6,0,0,1,2.37,3.84,5.44,5.44,0,0,1,0,1.66,1.18,1.18,0,0,0,.51-.29,4.36,4.36,0,0,1,2.21-1,.61.61,0,0,0,.63-.49A47.48,47.48,0,0,0,45.94,17,12.21,12.21,0,0,0,46,14v-.32c0-.21,0-.42,0-.63.05-.46-.13-.49-.51-.33-1.8.77-3.63,1.45-5.48,2.09a83.32,83.32,0,0,1-12.59,3.31,67.43,67.43,0,0,1-7.75.93,25.69,25.69,0,0,1-7.06-.24,9,9,0,0,1-5.21-2.69c-.18-.21-.23-.11-.29.1A51.3,51.3,0,0,0,5.4,23.44a4.23,4.23,0,0,0-.17,1.22.75.75,0,0,0-.07.12,42.26,42.26,0,0,0-.41,4.5,14,14,0,0,0,0,2.82V33a24.63,24.63,0,0,0,1.17,6.65ZM14,49.48a14.66,14.66,0,0,0,11.81,1.35c6-2,10.08-6.1,12.75-11.72a7.18,7.18,0,0,0,.78-3.35,1.48,1.48,0,0,0-1.73-1.6,5.9,5.9,0,0,0-2.26.77c-.16.09-.3.25-.54.18.28-.36.56-.7.81-1.07a8.39,8.39,0,0,0,1.72-4,2.41,2.41,0,0,0-1.4-2.44,2,2,0,0,0-2.46.46A8.84,8.84,0,0,0,31.93,30a52.56,52.56,0,0,0-3.27,6.16,24,24,0,0,1-4.9,7A28.34,28.34,0,0,1,17,48C16,48.5,15,49,14,49.48Z" fill="#670102"/><path d="M10.45,51c.71.24,1.34.65,2,1a12.91,12.91,0,0,0,2.32,3.76,19.65,19.65,0,0,0,8.76,5.82c.4.14.42.26.17.56a8,8,0,0,1-3.95,2.46,22.42,22.42,0,0,1-7.64.83,37.9,37.9,0,0,1-6.37-.73A10.44,10.44,0,0,1,2,63.26a4,4,0,0,1-1.76-5,13.88,13.88,0,0,1,3.32-5.15L4,52.78s.06,0,.12,0c0,.25-.17.41-.27.6A11.31,11.31,0,0,0,2.49,57a3.73,3.73,0,0,0,1.89,4,8.66,8.66,0,0,0,3.43,1,27.85,27.85,0,0,0,7.77-.28A17,17,0,0,1,10.45,51Z" fill="#272526"/><path d="M39,63.3c-.11.23-.32.3-.52.41a39.06,39.06,0,0,1-9.18,3.37,7,7,0,0,1-2,.37,40.84,40.84,0,0,0,4.37-1.72,16.07,16.07,0,0,0,5.75-4.35A9.74,9.74,0,0,0,39,52.08a22.07,22.07,0,0,0-2-4.46,11.61,11.61,0,0,1,1.25-1.55,20.17,20.17,0,0,1,2.51,5.23,11.44,11.44,0,0,1-.1,7.7,10.26,10.26,0,0,1-1.79,2.92c.26.06.38-.11.5-.22a17.92,17.92,0,0,0,3.79-4.22,9.29,9.29,0,0,0,.53-9.61,18,18,0,0,0-3.4-4.54,5.48,5.48,0,0,1,1-1.55A14.66,14.66,0,0,1,44.31,44a8.77,8.77,0,0,1,2,11.13A21.09,21.09,0,0,1,42,60.7C41,61.62,40,62.43,39,63.3Z" fill="#272526"/><path d="M27.3,67.45c-.09.16-.25.1-.39.11A.47.47,0,0,1,27.3,67.45Z" fill="#272526"/><path d="M26.92,67.55c-.09.13-.21.1-.33.1C26.68,67.54,26.8,67.55,26.92,67.55Z" fill="#272526"/><path d="M10.41,50.92l.05.1Z" fill="#272526"/><path d="M5.4,23.44a37.64,37.64,0,0,0,5.26.94,40.57,40.57,0,0,0,6.61.19,46,46,0,0,0,13.82-2.83,57.14,57.14,0,0,0,14.8-8l.08,0V14c-1.73,1.47-3.46,2.93-5.29,4.28A50.78,50.78,0,0,1,26.4,25.89a30.51,30.51,0,0,1-11,1.59A22.61,22.61,0,0,1,5.23,24.66,4.23,4.23,0,0,1,5.4,23.44Z" fill="#272526"/><path d="M9.31,15.7a7.78,7.78,0,0,1,1.55-2.63.86.86,0,0,1,.89-.29c1.12.24,1.12.23,1.47-.87.12-.36.24-.73.34-1.1s.2-.34.49-.26a60.45,60.45,0,0,0,8.08,1.81,32.31,32.31,0,0,0,7.54.4,10.44,10.44,0,0,0,5.53-2.25,25.62,25.62,0,0,0,6.34-7.18c.08-.13.1-.34.37-.25a6,6,0,0,1,2.83,1.73,1,1,0,0,1,.1.17l.13.27c-.8-.22-1.56-.41-2.3-.64a.59.59,0,0,0-.78.28,23.49,23.49,0,0,1-6.78,6.62,11.59,11.59,0,0,1-5,1.67A39.69,39.69,0,0,1,22,13c-2.39-.25-4.75-.68-7.12-1.11a.67.67,0,0,0-.65.18c-.19.17-.4.31-.58.5s-.47.18-.39.42.37.14.56.16c2.2.28,4.4.56,6.61.71s4.15.21,6.22.17a.25.25,0,0,1,.2.08c-.85.11-1.69.24-2.53.32-2.31.22-4.62.39-6.94.41a33.52,33.52,0,0,1-5.2-.29,2.28,2.28,0,0,0-1.53.55c-.28.16-.63.28-.7.66-.27.05-.37.34-.61.44C9.25,16,9.33,15.86,9.31,15.7Z" fill="#272526"/><path d="M26.63,35.91a6.44,6.44,0,0,0-1.62.42,30.46,30.46,0,0,1-9.9,1.32c-4-.2-7.53-1.42-10.22-4.55A1.25,1.25,0,0,0,4.77,33V32.1a22.2,22.2,0,0,0,7.28,3.16,26,26,0,0,0,8.52.48,32.1,32.1,0,0,0,5.57-1.1c1.22-.35,1.52-.61.41-1.6-.46-.41-.82-.95-1.47-1.1h0A2,2,0,0,1,26.68,31c.13,0,.25.09.26.25a.9.9,0,0,0,0,.29.69.69,0,0,0,.41.39c.07,0,.12,0,.14-.1a.48.48,0,0,0-.07-.54c-.45-.37-.13-.53.17-.69a2,2,0,0,1,.51-.15.27.27,0,0,1,.29.12.22.22,0,0,1-.05.3,1.12,1.12,0,0,0-.28.94c0,.58,0,1.16,0,1.74A10.86,10.86,0,0,1,26.63,35.91Z" fill="#272526"/><path d="M19.55,44.33c-.87.13-1.74.28-2.62.34A12.63,12.63,0,0,1,6.82,41.22c-.09-.09-.17-.2-.32-.2A2.75,2.75,0,0,1,6,39.75a22.49,22.49,0,0,0,4.9,2.4,17.41,17.41,0,0,0,10.28.28l.28,0A17.86,17.86,0,0,1,19.55,44.33Z" fill="#272526"/><path d="M5.94,39.67l.11.09Z" fill="#272526"/><path d="M13.73,32.38l.33-.09a1.08,1.08,0,0,1,1.43,1.18,1.57,1.57,0,0,1-1,1.38,1.69,1.69,0,0,1-1.69-.2c-.08-.06-.15-.18-.23-.17-.73.06-.45-.38-.37-.74s.19-.94.27-1.42c0-.26.12-.52-.16-.74s0-.33.14-.4a2.64,2.64,0,0,1,1.28-.13c.24,0,.22.19.18.36S13.8,32,13.73,32.38ZM13.46,34c0,.2-.1.44.18.5s.4-.17.47-.39a1.66,1.66,0,0,0,0-.8.29.29,0,0,0-.29-.27c-.19,0-.25.13-.27.28S13.5,33.74,13.46,34Z" fill="#272526"/><path d="M7.77,28.92a3.65,3.65,0,0,1,1.49.7c.27.22.21.43-.13.49a.53.53,0,0,0-.42.34c-.23.49-.48,1-.71,1.47-.09.2-.24.45.05.64a.77.77,0,0,0,.86,0c.16-.09.27-.47.52-.15s0,.49-.13.7c-.37.48-.61.49-1.14.2s-1.22-.62-1.84-.93c-.16-.07-.35-.14-.33-.36s.22-.16.35-.18.35-.28.44-.47c.22-.45.4-.91.62-1.36a.66.66,0,0,0,0-.78C7.14,28.9,7.53,29,7.77,28.92Z" fill="#272526"/><path d="M20.65,32.33a1,1,0,0,1,1.05,1c0,.36-.05.77.37,1,.11.06,0,.25,0,.35-.18.27-.47.51-.76.4a1.47,1.47,0,0,0-1.09.1.8.8,0,0,1-1.14-.55c-.11-.4.19-.81.71-1a2.86,2.86,0,0,1,.42-.1c.15,0,.31,0,.28-.23s0-.37-.19-.45-.28.08-.38.21-.28.45-.6.39a.25.25,0,0,1-.22-.22c0-.34.22-.48.44-.63A2.36,2.36,0,0,1,20.65,32.33Zm-.07,1.94c0-.11,0-.29-.19-.26a.28.28,0,0,0-.23.32.23.23,0,0,0,.22.26C20.57,34.58,20.57,34.42,20.58,34.27Z" fill="#272526"/><path d="M17.47,32.92c.45-.44.78-.52,1.07-.27a.65.65,0,0,1,.06.91c-.25.32-.54.31-1.19-.09,0,.47-.3.94.27,1.29.26.16.11.4-.11.47a2.89,2.89,0,0,1-1.57,0c-.29-.09-.35-.28-.11-.54a1.29,1.29,0,0,0,0-1.48c-.17-.22-.05-.36.14-.45a3,3,0,0,1,1-.24C17.38,32.45,17.38,32.7,17.47,32.92Z" fill="#272526"/><path d="M25.08,31.94c-.12.08,0,.17,0,.25,0,.6-.39.91-.93.69-.32-.13-.35,0-.28.23s0,.77.58.88c.3.07.16.38,0,.48a2.89,2.89,0,0,1-1.53.34c-.3,0-.39-.2-.23-.51a1.24,1.24,0,0,0-.32-1.4c-.22-.15-.22-.31,0-.47a2.7,2.7,0,0,1,1-.52c.31-.1.26.21.46.32a.94.94,0,0,1,.58-.57c.34-.1.47.27.74.28Z" fill="#272526"/><path d="M10.71,31.51c1.11,0,1.14,0,.85,1.08-.13.46-.46.9-.16,1.43.1.17-.08.25-.24.27a2.41,2.41,0,0,1-1.45-.42c-.2-.13-.19-.31,0-.47a1.32,1.32,0,0,0,.46-1.5C10.05,31.36,10.55,31.63,10.71,31.51Z" fill="#272526"/><path d="M11.39,31.28c-.31,0-.64,0-.84-.35a.24.24,0,0,1,0-.31.92.92,0,0,1,.89-.15l.14,0c.23.09.49.17.42.48S11.64,31.26,11.39,31.28Z" fill="#272526"/><line x1="252.78" y1="21.99" x2="252.78" y2="54.96" fill="none" stroke="#000" stroke-miterlimit="10"/></svg>