<svg xmlns="http://www.w3.org/2000/svg" viewBox="0 0 691.72 74.07"><path d="M326.27,37.59c.76-10.78,15.5-10.2,15.85.63C342.22,48.46,325.54,47.52,326.27,37.59Z" fill="#adadad"/><path d="M277.74,70.55c-.4-37.57,34.89-67.61,70-56.9,13.68,3.8,27.86,14.52,33.11,27.58.72.1.92.34,1,1.13a43.42,43.42,0,0,1,2.14,4.76,1.85,1.85,0,0,1,.64,1.89c-.07,1.33,1.54,2.14,1.09,3.6,0,.25,0,.59.19.71,1,.85.55,2.17.62,3.28s1.2,1.73,1.07,2.88c.25,1.38-.38,3,.22,4.24,1,1.12.38,2.84.57,4.23,1.12,4.48-4.14,2.66-6.59,2.58-3.35-.2-7.73,1-10.69-.13.41-5.68-3.7-11.93-7.81-15.13-.57,0-1.06-.61-1.49-1-.47-.64-1.36-.06-1.72-.71-.7-1.3-2.41-.42-3.52-1-2-1.47-4.76-.26-7.08-.77-1-.2-1.51,1.16-2.58,1-.89.15-2.27-.42-2.63.76a.43.43,0,0,1-.56.32c-1.08-.4-1.41,1-2.37,1.2-.6-.14-.9.14-1.25.6-1.4,1.65-3.25,3.08-4.45,4.84.13.79-.36,1.3-.74,1.85-.56.66,0,1.58-.61,2.24a1,1,0,0,0-.1.54c-.18,5-1.94-.58-2.59-2-.6-2.25-2.59-3.66-3.4-5.68-1.46-.18-1.68-2-3-2.38-.16,0-.32-.32-.37-.52-.29-1.29-1.63,0-2.39-.72-1-1.75-3.17-.57-4.55-1.71-1.85-.71-4.09,0-6.05-.27-1.18-.48-1.71,1.06-2.86.92-.91.19-2.37-.46-2.68.77a.49.49,0,0,1-.68.35c-1.18-.47-1.29,1.36-2.42,1.14-1.83.67-3.67,3-4.71,4.67.22,1.53-1.94,1.88-2.05,3.24a35.42,35.42,0,0,1,1,7.58Zm74.37-26.37v.08c8.8-.25,18.91,4.79,22.72,13.23-.1.52-.09.63.35.81,1.5.53,1.64,2.06,2.3,3.28,2.4.79-2.21-9.49-2.29-10.73-3.67-10-11.93-18.7-20.28-23.89-1.28.52-.5-1.57-1.74-1.08-1.95.39-3.28-2-5.07-2.13a1.52,1.52,0,0,1-2-.68c-1.87-1.22-4.87.4-6.74-1.52-4.16.4-9.15-.84-13,.59-1.6,1.2-4.38-.44-5.86.92-.6,1.65-2.36-.12-3.08,1.19a1,1,0,0,1-1.14.48c-.8,0-1.12,1-2,1.05s-1.07.9-1.74,1.06-1.34-.42-1.83.12c-.76.6-1.24,2-2.3,1.92s-1.49,1.07-2.05,1.67c-2.49.86-4.34,3.17-6.23,5.26-1.6,1.59-3.35,3-3.86,5.23-.85,1-2.44,1.81-2.61,3.16a1.31,1.31,0,0,1-.73,1.42c-.78.41.24,1.5-.79,1.87-.73.29-.26,1.32-.85,1.83-.43.59-.89,1.15-.59,1.94,0,.31-.05.46-.39.44a.6.6,0,0,0-.68.62c-.11,1.21.57,2.63-.55,3.5C288,57,289,59,288.36,60.54c-.34,1.15.49,1.58,1.4,1.35,1.37-.35.18-2,1.05-2.76,6.92-15.4,28.12-19.71,40.35-9,2.29,2.81,3.23,1.1,5.41-.75C341.21,46.31,346.52,43.9,352.11,44.18Z" fill="#adadad"/><path d="M279,70.67c-.4-36,34.89-64.79,70-54.53,13.68,3.64,27.86,13.91,33.11,26.43.72.1.92.33,1,1.09a40.38,40.38,0,0,1,2.14,4.56A1.73,1.73,0,0,1,386,50c-.07,1.27,1.54,2,1.09,3.45,0,.24,0,.57.19.68,1,.82.55,2.08.62,3.14S389.09,59,389,60.07c.25,1.32-.38,2.87.22,4.06,1,1.07.38,2.72.57,4.06,1.12,4.29-4.14,2.55-6.59,2.46-3.35-.19-7.73,1-10.69-.12.41-5.44-3.7-11.43-7.81-14.5-.57,0-1.06-.59-1.49-.91-.47-.61-1.36,0-1.72-.68-.7-1.25-2.41-.4-3.52-1-2-1.4-4.76-.24-7.08-.73-1-.19-1.51,1.11-2.58.94-.89.15-2.27-.4-2.63.73a.43.43,0,0,1-.56.31c-1.08-.38-1.41,1-2.37,1.15-.6-.14-.9.13-1.25.57-1.4,1.59-3.25,3-4.45,4.64.13.76-.36,1.25-.74,1.78-.56.63,0,1.51-.61,2.15-.1.11-.09.33-.1.51-.18,4.74-1.94-.55-2.59-1.92-.6-2.16-2.59-3.51-3.4-5.44-1.46-.17-1.68-1.9-3-2.28-.16,0-.32-.3-.37-.5-.29-1.24-1.63,0-2.39-.69-1-1.67-3.17-.54-4.55-1.64-1.85-.68-4.09,0-6-.26-1.18-.46-1.71,1-2.86.89-.91.17-2.37-.44-2.68.73a.5.5,0,0,1-.68.34c-1.18-.45-1.29,1.3-2.42,1.09-1.83.64-3.67,2.86-4.71,4.48.22,1.47-1.94,1.79-2.05,3.1a32.61,32.61,0,0,1,.95,7.26ZM353.4,45.41v.07c8.8-.24,18.91,4.59,22.72,12.68-.1.5-.09.6.35.78,1.5.51,1.64,2,2.3,3.14,2.4.75-2.21-9.1-2.29-10.28-3.67-9.61-11.93-17.93-20.28-22.91-1.28.51-.5-1.5-1.74-1-1.95.36-3.28-2-5.07-2.05a1.55,1.55,0,0,1-2-.65c-1.87-1.17-4.87.38-6.74-1.46-4.16.39-9.15-.81-13,.57-1.6,1.14-4.38-.42-5.86.88-.6,1.58-2.36-.11-3.08,1.14a1,1,0,0,1-1.14.46c-.8,0-1.12,1-2,1s-1.07.87-1.74,1-1.34-.4-1.83.11c-.76.58-1.24,1.9-2.3,1.84s-1.49,1-2.05,1.6c-2.49.83-4.34,3.05-6.23,5.05-1.6,1.52-3.35,2.9-3.86,5-.85.94-2.44,1.74-2.61,3a1.24,1.24,0,0,1-.73,1.36c-.78.4.24,1.44-.79,1.79-.73.28-.26,1.27-.85,1.75-.43.58-.89,1.11-.59,1.87,0,.29-.05.43-.39.42a.59.59,0,0,0-.68.59c-.11,1.17.57,2.52-.55,3.36-1.07,1.15-.13,3.08-.74,4.53-.34,1.1.49,1.51,1.4,1.28,1.37-.33.18-1.88,1.05-2.64C299,45,320.22,40.84,332.45,51.12c2.29,2.7,3.23,1.06,5.41-.72C342.5,47.44,347.81,45.14,353.4,45.41Z" fill="#e5e5e5"/><path d="M327.56,38.49c.69-9.74,14-9.22,14.32.57C342,48.31,326.9,47.46,327.56,38.49Z" fill="#e5e5e5"/><path d="M176.64,39.16a7.21,7.21,0,0,0,.33-.84,1.78,1.78,0,0,1,1.37-1.49c1.48-1,3.12-1.81,4-3.5a13.66,13.66,0,0,1,.89-1.12c.24-.37.67-.77.36-1.22s-.8-.19-1.21-.15c-.62.06-1.23.18-1.85.23a2.5,2.5,0,0,0-1.52.55,1.55,1.55,0,0,1-1.27.36,1.32,1.32,0,0,1-1.09-1.39.74.74,0,0,1,.68-.64c.69-.1,1.38-.14,2.06-.27a13.52,13.52,0,0,0,1.49-.47,13.2,13.2,0,0,1,1.36-.4,3.06,3.06,0,0,0,1.52-.59c.13-.11.3-.21.35-.35a1.36,1.36,0,0,0,.09-.74c-.07-.28-.39-.27-.61-.21a14.68,14.68,0,0,0-2,.62c-.88.39-1.09.38-1.68-.41-.06-.07-.13-.14-.19-.22a1,1,0,0,1,0-1.47,10.42,10.42,0,0,0,1.83-3.31,3.41,3.41,0,0,1,.83-1.06c.2-.23.46-.41.68-.64a1.92,1.92,0,0,0,.31-.47c.34-.85,0-1.34-.91-1.18-1.22.21-2.43.48-3.65.72-.92.17-1.83.36-2.75.49a2.54,2.54,0,0,1-1.06-.1c-.37-.11-.45-.37-.32-.74a1.68,1.68,0,0,1,1.89-1.29,3.85,3.85,0,0,0,2.6-.61A2.62,2.62,0,0,1,180,17l1.59-.4c.39-.11.78-.23,1.16-.37a19.16,19.16,0,0,0,2-.79,3.85,3.85,0,0,1,1.72-.44,3.4,3.4,0,0,0,2-.6,3,3,0,0,1,1.78-.47c.94,0,1.87,0,2.8-.11a8.33,8.33,0,0,0,1.6-.4,7.65,7.65,0,0,1,2.47-.35q.8,0,1.59,0a2.84,2.84,0,0,1,1.52.32,3.83,3.83,0,0,0,2,.41,4.13,4.13,0,0,1,.93,0,1.45,1.45,0,0,1,.78.29c.73.69,1.43,1.41,2.11,2.15a1.58,1.58,0,0,1,.38,1.53c-.08.32-.13.65-.22,1a3.45,3.45,0,0,0-.12,1.91,1.37,1.37,0,0,1-.27,1.28,1.51,1.51,0,0,0,0,2,1.11,1.11,0,0,1,.14,1.28,4.64,4.64,0,0,0-.56,3.24c.05.37,0,.76.05,1.14A1.51,1.51,0,0,1,205,30.9a1.94,1.94,0,0,0-.56,1.43c0,.51,0,1,0,1.51a6.72,6.72,0,0,1-.35,1.74,6,6,0,0,0,.89,6.33c.61.79.63,1,.05,1.83a1.49,1.49,0,0,0-.28,1c0,.44,0,.9,0,1.35a5.78,5.78,0,0,0,0,.93,9.61,9.61,0,0,1-.09,3c-.1.73,0,1.48-.07,2.22,0,.53-.11,1-.16,1.57A2.91,2.91,0,0,1,202.09,56a12,12,0,0,0-2,.4,3.34,3.34,0,0,1-2.32-.67.71.71,0,0,1,.18-1.06,6,6,0,0,1,1.31-.87,2.07,2.07,0,0,0,1-1,5.72,5.72,0,0,0,.54-2c.06-.93.26-1.84.35-2.77.15-1.47.28-3,.38-4.42a6.92,6.92,0,0,0-.1-1.36,5.65,5.65,0,0,1,.09-2.49,17,17,0,0,0,.41-3.76c0-.57.12-1.14.16-1.71.06-1,.11-2,.16-2.93,0-.57.05-1.14.07-1.71s0-1.1,0-1.64c0-1.89-.08-3.78-.11-5.67,0-1.15.05-2.3,0-3.45a3.76,3.76,0,0,0-1.81-2.79,2.86,2.86,0,0,0-2.1-.21c-1.4.19-2.79.42-4.19.62-.42.06-.86.05-1.28.11s-.89.17-1.34.24-1,.16-1.49.18c-.86,0-1.73,0-2.59,0a2.06,2.06,0,0,0-1,.38,4.71,4.71,0,0,1-1.21.87c-.08,0-.13.13-.2.2a2.29,2.29,0,0,0,.13.27c.55.89.53,1.11-.09,1.93a2.43,2.43,0,0,0-.42.73,3,3,0,0,1-.81,1.56.76.76,0,0,0-.08.72.81.81,0,0,0,.63.36,4.19,4.19,0,0,0,2.2-.53,4.46,4.46,0,0,0,1.76-1.84c.33-.7.65-1.39,1-2.08.24-.52.64-.67,1.09-.32a3.86,3.86,0,0,1,.87,1c.29.46.49,1,.75,1.46s.24.63-.08,1a4.35,4.35,0,0,1-.57.64,2.26,2.26,0,0,1-.77.46,1.94,1.94,0,0,0-1.18.75,3.11,3.11,0,0,1-.41.4,1.83,1.83,0,0,0-.37.42c-.3.62-.57,1.24-.85,1.89.13.19.33.11.47,0a2.46,2.46,0,0,1,1.48-.47,2.67,2.67,0,0,0,1.51-.58,3.9,3.9,0,0,1,2.87-.63,1,1,0,0,1,.94.86,1.51,1.51,0,0,1-.94,1.4,2.71,2.71,0,0,1-.85.1,2.16,2.16,0,0,0-1.65.57,1.73,1.73,0,0,1-1.31.45,4.36,4.36,0,0,0-3.93,2.19,2.74,2.74,0,0,1-.9.79,2.32,2.32,0,0,0-.95.83c-.11.18-.29.32-.41.49a2,2,0,0,0-.32.56.46.46,0,0,0,.52.63,2.37,2.37,0,0,0,.78-.35c.43-.26.83-.56,1.26-.82a2.36,2.36,0,0,1,1.43-.4,3.75,3.75,0,0,0,2.63-.76,4.82,4.82,0,0,1,2-.52c.1,0,.2,0,.29,0a7.32,7.32,0,0,1,4.37,0,3.33,3.33,0,0,1,1,.41,8.65,8.65,0,0,1,1.31,1.11,1.06,1.06,0,0,1,.27.7c0,.85-.06,1.71-.14,2.57a2.13,2.13,0,0,1-.3.72c-.23.47-.47.93-.71,1.4a11.75,11.75,0,0,0-.64,1.28c-.19.5-.29,1-.46,1.56A9.19,9.19,0,0,1,195.79,45a3.29,3.29,0,0,0-.43,1,8.85,8.85,0,0,1-.56,1.38c-.38.62-.87.65-1.45.19a3.54,3.54,0,0,0-.46-.33.52.52,0,0,0-.72.12,1.6,1.6,0,0,1-1.47.74,3.59,3.59,0,0,0-1.69.54,2,2,0,0,1-1.78.21c-.13,0-.31-.12-.41-.07-.86.39-1.83.32-2.68.77a4,4,0,0,1-1.74.28,1.11,1.11,0,0,1-1.05-1.09.72.72,0,0,1,.66-.87,1.71,1.71,0,0,1,.78,0c.87.26,1.36-.57,1.13-1.29a3.89,3.89,0,0,1-.21-1.12c0-1.77.06-3.53.08-5.3,0-.41-.09-.81-.11-1.21s0-.85,0-1.27a3.68,3.68,0,0,0-.06-.57c-.16-.63-.55-.86-1.11-.53a15.07,15.07,0,0,0-2.24,1.54,3.57,3.57,0,0,1-2.33,1C177.51,39.17,177.12,39.46,176.64,39.16Zm15.79-2.81c0,.45,0,.9,0,1.36a3.09,3.09,0,0,1-.44,1.7,2.93,2.93,0,0,0-.38,1.51c0,.95-.08,1.9-.14,2.85,0,.59-.14,1.18-.2,1.78s.14.6.54.39a2.23,2.23,0,0,0,1.54-2,1.62,1.62,0,0,1,.5-1.22,1.25,1.25,0,0,0,.36-.9c0-.6.1-1.19.14-1.78a1.6,1.6,0,0,1,.47-1.16,1.29,1.29,0,0,0,.4-1c0-.74,0-1.48,0-2.22,0-1-.34-1.41-1.35-1.61a3.86,3.86,0,0,0-.49-.1.83.83,0,0,0-.94.83C192.42,35.25,192.43,35.8,192.43,36.35Zm-4.11,6.27c.85.1,1.27-.38,1.06-1.18a2.25,2.25,0,0,1,0-1.26c.21-.82-.18-1.24-1-1.18-.55,0-1.09.09-1.63.15s-.85.32-.8,1a2.79,2.79,0,0,1-.2,1.53.66.66,0,0,0,.64,1C187,42.65,187.67,42.62,188.32,42.62Zm-2.76,3.8a3.46,3.46,0,0,1,.08.4c.05.33.17.6.53.68a.64.64,0,0,0,.74-.42.81.81,0,0,1,.9-.43c.17,0,.34,0,.5,0a1,1,0,0,0,.95-1.18c-.1-.7-.53-1-1.2-.84a2.1,2.1,0,0,1-1.52-.06.57.57,0,0,0-.84.49C185.63,45.48,185.61,45.91,185.56,46.42Zm3.16-11.56a1.8,1.8,0,0,0-.35.09c-.79.33-1.59.64-2.35,1A.81.81,0,0,0,186,37.4a1.11,1.11,0,0,0,1.14.17c.55-.23,1.12-.42,1.68-.61a1.26,1.26,0,0,0,.87-1.05A.88.88,0,0,0,188.72,34.86Z"/><path d="M221.66,52.93c-.11,0-.37-.07-.63-.1a1,1,0,0,1-.87-.92,1.07,1.07,0,0,1,.46-1.19,13.49,13.49,0,0,0,1.8-1.3c1-.9,1.83-1.88,2.73-2.84a7.76,7.76,0,0,0,.8-.92.68.68,0,0,0,.09-.58.58.58,0,0,0-.55-.17,2.65,2.65,0,0,0-1,.43,3.88,3.88,0,0,1-2.14.71,2,2,0,0,0-1,.39,2.75,2.75,0,0,1-1.58.59,1.59,1.59,0,0,0-1.13.53,4.52,4.52,0,0,1-2,1.26,2.53,2.53,0,0,0-1.25.79.73.73,0,0,1-1.13.12,2,2,0,0,1-.85-2.5c.08-.28.18-.55.26-.82.23-.73,0-1.13-.74-1.34l-.84-.19a.57.57,0,0,1-.5-.53.58.58,0,0,1,.43-.59,3.77,3.77,0,0,1,1-.26,2.76,2.76,0,0,0,1.35-.43,2.73,2.73,0,0,1,1.64-.44,2.84,2.84,0,0,0,1.5-.4c.4-.22.82-.39,1.24-.58a.79.79,0,0,0,.53-.7.51.51,0,0,0-.66-.6,1.57,1.57,0,0,0-.46.2c-1.06.74-2.26.49-3.42.45-.53,0-.72-.36-.68-.9a1.24,1.24,0,0,1,1.16-1.25,19,19,0,0,0,3.25-.53,1.89,1.89,0,0,0,1.33-1.43.51.51,0,0,0-.46-.61,1.32,1.32,0,0,0-1.15.27,3.74,3.74,0,0,1-3,.53,1,1,0,0,1-.4-.16.6.6,0,0,1,0-1.09,4,4,0,0,1,.6-.24c.36-.12.72-.26,1.09-.37s1-.28,1.51-.4c.3-.08.61-.12.91-.2a.82.82,0,0,0,.7-.64,1.55,1.55,0,0,0-.37-1.34.68.68,0,0,0-.65,0,3.72,3.72,0,0,1-1.89.56,4.15,4.15,0,0,0-1,.34c-.45.15-.9.3-1.36.43a12,12,0,0,0-1.37.39,7.76,7.76,0,0,1-1.76.59,4.63,4.63,0,0,0-1.4.52c-.68.4-1.34.27-1.51-.7a7.43,7.43,0,0,1-.09-1.41.47.47,0,0,1,.59-.48c1.71.21,3.26-.57,4.9-.82,1.29-.2,2.44-.83,3.69-1.14l1-.25a1.24,1.24,0,0,0,1.07-1c0-.21.11-.42.16-.63a.78.78,0,0,0-.81-1.05,1.14,1.14,0,0,0-1.05.49,1.32,1.32,0,0,1-2.23.17,1.7,1.7,0,0,0-1.29-.52,2.08,2.08,0,0,1-.43,0,.68.68,0,0,1-.69-.61.81.81,0,0,1,.45-.89,3.81,3.81,0,0,1,.84-.19c1.08-.15,2.17-.28,3.26-.45A5.55,5.55,0,0,0,220,24.61a1.22,1.22,0,0,0,.36-.82,15.07,15.07,0,0,0-.06-1.64s0-.1,0-.14c-.22-1.19.31-1.45,1.4-1.15a1.39,1.39,0,0,1,1,1.87,4.12,4.12,0,0,0-.15.55c-.12.69.32,1.06.92.78a4.66,4.66,0,0,1,2.74-.18,2.4,2.4,0,0,1,1.59,1.25c.27.39.1.75-.36.9-.24.08-.51.1-.76.17a9.78,9.78,0,0,0-1,.31c-.45.16-.88.36-1.33.51a6.62,6.62,0,0,0-1.95,1.31,1.22,1.22,0,0,0-.27.42c-.17.4,0,.68.45.63a2.42,2.42,0,0,0,.75-.23,4,4,0,0,1,1.95-.38,1.64,1.64,0,0,0,1.33-.42,2.32,2.32,0,0,1,1.79-.58c.31,0,.63,0,.94.05a1.49,1.49,0,0,1,1.32,1.23.62.62,0,0,1-.42.86,3.42,3.42,0,0,1-.54.18,3.12,3.12,0,0,0-.7.17c-1.2.68-2.54.56-3.84.7a4.3,4.3,0,0,0-1.83.57,5.14,5.14,0,0,1-1.2.41.92.92,0,0,0-.64,1.29.57.57,0,0,0,.8.37c.21-.07.4-.16.6-.24a1.22,1.22,0,0,1,1.1.11,1,1,0,0,1,.49.9.78.78,0,0,1-.62.71c-.57.2-1.12.41-1.68.63l-.47.19c-.5.25-.62.43-.51.72a1,1,0,0,0,1,.61,2.08,2.08,0,0,0,.59-.26,3.5,3.5,0,0,1,2.08-.37,1.29,1.29,0,0,1,.47.15.74.74,0,0,1,.1,1.37A6.08,6.08,0,0,1,223,39a4.6,4.6,0,0,0-.84.14,1.79,1.79,0,0,0-.7.45.68.68,0,0,0-.13.86.74.74,0,0,0,.87.34,12,12,0,0,0,1.8-.7,4.39,4.39,0,0,1,2.35-.5,1.58,1.58,0,0,1,.49.09.74.74,0,0,1,.14,1.36,6.38,6.38,0,0,1-1.31.56c-.71.25-1.48.41-2.16.73a10.92,10.92,0,0,1-2.85.66,2.18,2.18,0,0,0-.82.24,8.3,8.3,0,0,1-2.52,1c-.32.1-.62.25-.94.35a1.17,1.17,0,0,0-.81.92.8.8,0,0,0,.16.86.71.71,0,0,0,.87,0c.51-.26,1-.54,1.53-.79s.88-.36,1.32-.54l2.27-.91a5.5,5.5,0,0,1,.81-.27,8.17,8.17,0,0,0,2.23-.76,5.33,5.33,0,0,1,2.88-.36.81.81,0,0,1,.4.15A16,16,0,0,1,229.32,44a.92.92,0,0,1,.06,1.25c-.88.93-1.78,1.85-2.68,2.77-.34.34-.69.66-1,1a1,1,0,0,0-.1,1.3c.06.11.13.2.19.3.34.61.26,1-.32,1.33a8.13,8.13,0,0,1-1.06.62,3.49,3.49,0,0,1-1,.27C222.86,52.89,222.34,52.89,221.66,52.93Z"/><path d="M270.45,30a2.23,2.23,0,0,0-1.95.57,1.38,1.38,0,0,1-1,.43c-.77,0-1.05-.26-1.2-1a2.72,2.72,0,0,0-.56-1.22.88.88,0,0,1,.09-1.38,1.55,1.55,0,0,1,1.21-.53c.19,0,.38,0,.57,0a2.92,2.92,0,0,0,2.22-.61,1.59,1.59,0,0,1,1.64-.18c.15.06.31.14.46.19a3.08,3.08,0,0,1,2,2.5,1,1,0,0,1,0,.57A8.85,8.85,0,0,1,271.53,33a2.38,2.38,0,0,0-.36.35.64.64,0,0,0,.14.94c.23.17.51.27.74.44a.86.86,0,0,1,.13,1.46,4.22,4.22,0,0,1-3.07,1.51,1.78,1.78,0,0,0-.56.1,4.33,4.33,0,0,1-2,.18,2.06,2.06,0,0,0-.43,0c-.51,0-.86.26-.77.72a15.47,15.47,0,0,1-.08,2.64,1.47,1.47,0,0,0,0,.21c0,.48.32.69.78.53a2.9,2.9,0,0,0,.79-.47,2.76,2.76,0,0,1,1.41-.64,2.93,2.93,0,0,0,1.41-.67c.85-.71,1.72-1.37,2.56-2.08a1.54,1.54,0,0,1,1.61-.3,20.07,20.07,0,0,1,2.21,1,.9.9,0,0,1,.42.55,2.09,2.09,0,0,1-.26,1.85,20.53,20.53,0,0,1-1.73,2.1c-.73.76-1.55,1.43-2.32,2.14-.11.09-.26.15-.34.27s-.2.33-.16.43a.59.59,0,0,0,.42.31,3,3,0,0,0,1-.22,2,2,0,0,1,2,.23,1.25,1.25,0,0,1,0,2.14l-1.59,1a2.42,2.42,0,0,1-1.43.39.8.8,0,0,1-.87-.7,2,2,0,0,1-.06-.35.93.93,0,0,0-.82-.94l-1.05-.21A2.07,2.07,0,0,1,267.7,47c-.3-.46-.31-.71.1-1.07a9.73,9.73,0,0,1,1.55-1.15,4.15,4.15,0,0,0,1.52-1.48,1,1,0,0,0,.15-.4c.05-.32-.19-.57-.46-.42-.81.45-1.83.43-2.5,1.2a2.08,2.08,0,0,1-.84.36,3.86,3.86,0,0,1-.49.06,1.52,1.52,0,0,0-1.45,1.67c0,.54,0,1.1,0,1.65a8.19,8.19,0,0,1,0,.86,44,44,0,0,0,0,5.51c0,1.24-.19,1.46-1.44,1.46-1,0-1.23-.19-1.55-1.06-.22-.59-.45-1.16-.67-1.74a2.14,2.14,0,0,1,.16-2,4.1,4.1,0,0,0,.53-2.53,21.94,21.94,0,0,1-.13-4.29,6.07,6.07,0,0,0-.07-.84c.07-1.43.15-2.86.23-4.29,0-.62.1-1.24.15-1.86a1.42,1.42,0,0,1,.06-.42,2,2,0,0,0-.18-1.91,1.29,1.29,0,0,1-.15-.48c-.1-.66.17-1,.84-1a6.77,6.77,0,0,1,1.42.08c.67.12.81.32.89,1a4.75,4.75,0,0,0,.14.84.73.73,0,0,0,1.27.4,6.94,6.94,0,0,0,.69-.74c.78-.83,1.58-1.66,2.36-2.5A1.89,1.89,0,0,0,270.45,30Z"/><path d="M298.85,66.87a1.26,1.26,0,0,0,.53-1.38,2.45,2.45,0,0,1,.38-1.69c.3-.48.52-1,.82-1.49a1.43,1.43,0,0,1,1.78-.32.66.66,0,0,1,.24.47,9.69,9.69,0,0,1-.81,3.81c-.69,1.41-1.22,2.9-1.8,4.37-.22.57-.39,1.17-.58,1.75-.05.14-.08.32-.18.39a9.67,9.67,0,0,1-1.74,1.11,2.83,2.83,0,0,1-1.69.09,1.42,1.42,0,0,1-1.21-1.24.66.66,0,0,1,.53-.85c.32-.09.65-.15,1-.23a1.34,1.34,0,0,0,.65-2.37,1.07,1.07,0,0,1-.4-1,2.91,2.91,0,0,0-.65-2.07,2.13,2.13,0,0,1-.54-1.21c0-.17-.06-.33-.1-.49-.18-.65-.35-.71-1-.44a2,2,0,0,1-.67.2,1.7,1.7,0,0,0-1.79,1.65c-.1,1,0,2-.06,3.07a5.86,5.86,0,0,1-.13,1.26,1,1,0,0,1-1,.63c-.68-.07-1.1-.24-1.3-.84a4.14,4.14,0,0,1-.15-1.27c0-2,0-3.91,0-5.87,0-.74.09-1,.83-1.17a8.68,8.68,0,0,1,4-.22,7.59,7.59,0,0,0,1.36.08c.43,0,.86,0,1.28.11a1.18,1.18,0,0,1,1.17,1.14c.2,1,.4,2,.64,3C298.26,66.26,298.29,66.74,298.85,66.87Z"/><path d="M280.1,62.78c.07-.13.14-.25.2-.38a1.3,1.3,0,0,1,1.28-.64c1.15,0,2.29,0,3.44.09a2.93,2.93,0,0,1,2.18,1.47,1.59,1.59,0,0,1,.15.83c0,1.39,0,2.77,0,4.16a9.13,9.13,0,0,1,0,1.48.93.93,0,0,1-1.56.64l-.12-.08c-.81-.59-.79-.57-1.7-.07a3.41,3.41,0,0,1-3.11,0c-.3-.13-.56-.35-.86-.51a1.24,1.24,0,0,1-.69-1.44c.14-.79.31-1.59.5-2.37a1.07,1.07,0,0,0,0-.89,1.88,1.88,0,0,1-.17-.47c-.24-.85-.34-.93-1.2-.83a4.81,4.81,0,0,0-.84.17,1.66,1.66,0,0,0-1.28,1.69c0,1.17,0,2.35,0,3.52,0,.22,0,.43,0,.64a.72.72,0,0,1-.51.65,1.91,1.91,0,0,1-1.72-.21,1.28,1.28,0,0,1-.39-1.35,23,23,0,0,0,0-5.86c-.09-.78.38-1.36,1.05-1.08a5.64,5.64,0,0,0,3.23,0,3.43,3.43,0,0,1,.64,0c.6,0,1.16.09,1.38.8Zm.07,2.66a1.43,1.43,0,0,0,1.25.27,22.16,22.16,0,0,0,2.66-.83c.64-.25.62-.9,0-1.26a1.29,1.29,0,0,0-1.71.42,2,2,0,0,1-1.43.83C280.64,64.91,280.3,65,280.17,65.44Zm3,3.35a1.4,1.4,0,0,0,1.42-1.07c.12-.58-.18-1-.75-.92a3.6,3.6,0,0,0-1.15.37.79.79,0,0,0-.49.93A.93.93,0,0,0,283.17,68.79Z"/><path d="M260.37,22.93a.81.81,0,0,1,.91.64c0,.06.05.13.08.2.31.8.62.91,1.35.48a2.53,2.53,0,0,1,.65-.29c.92-.25,1.85-.47,2.78-.7.37-.09.78-.15.89-.6s-.21-.69-.5-.95a7.76,7.76,0,0,1-.78-.84.66.66,0,0,1,0-1,2,2,0,0,0,.52-1.51q0-1.65,0-3.3c0-1.1.18-1.27,1.3-1.27h.08c1.29-.12,1.84.85,1.75,2a14.4,14.4,0,0,0-.09,2.07,6.42,6.42,0,0,0,.39,1.52,1.2,1.2,0,0,1,0,1,1.3,1.3,0,0,0,.33,1.83c.46.38.16,1.37-.48,1.56a5.39,5.39,0,0,0-1.83.94,2.2,2.2,0,0,1-1,.27c-.42.06-.85.06-1.28.11a.88.88,0,0,0-.46.16,4.66,4.66,0,0,1-2.07.91.72.72,0,0,0-.6,1,1.86,1.86,0,0,1-.43,1.85,2.77,2.77,0,0,0-.46,1.25,2.63,2.63,0,0,1-.63,1.42,8,8,0,0,0-.56.74,1.31,1.31,0,0,1-2.14.18c-.35-.33-.72-.63-1.09-.92-.68-.54-.75-1-.2-1.62a1.55,1.55,0,0,0,.44-1.3,2.05,2.05,0,0,1,.91-2.05A3,3,0,0,0,259.42,24a2.62,2.62,0,0,1,0-.28C259.5,23.13,259.74,22.92,260.37,22.93Z"/><path d="M255.87,39.7a8.84,8.84,0,0,1-.86,2.5,4,4,0,0,0-.73,1.77,6.43,6.43,0,0,1-1.07,2.4,30.65,30.65,0,0,0-1.75,3,3.16,3.16,0,0,1-2.08,1.72,1.7,1.7,0,0,1-1.53-.41,5.86,5.86,0,0,1-2.09-3.17,1.64,1.64,0,0,1,0-1c.29-.76.55-1.53.84-2.29.15-.4.35-.78.5-1.18a4,4,0,0,0,.31-1,1.71,1.71,0,0,1,.43-1,2.68,2.68,0,0,0,.66-1.55,2.59,2.59,0,0,1,.37-1,3.09,3.09,0,0,0,.48-1.77c0-.35-.09-.76.32-.95a1,1,0,0,1,1.06.26,5.17,5.17,0,0,0,1.66,1,1.89,1.89,0,0,1,.7.49,1,1,0,0,1-.42,1.66c-.27.1-.55.17-.82.27a3.52,3.52,0,0,0-2,1.93,9.71,9.71,0,0,0-.62,2.2c-.1.61.25.84.83.59a2.3,2.3,0,0,0,.78-.49c.54-.67,1-1.38,1.54-2.07a7.7,7.7,0,0,1,.63-.76,3.32,3.32,0,0,0,.93-1.26,3.78,3.78,0,0,1,.33-.63.82.82,0,0,1,.82-.48.8.8,0,0,1,.63.61C255.77,39.26,255.8,39.45,255.87,39.7Z"/><path d="M263.69,64.46c0-1.55,0-3.11,0-4.66,0-.88.19-1.09,1.08-1.12h.65c.87,0,1.25.44,1.14,1.31-.05.38-.1.76-.13,1.14a2.7,2.7,0,0,0,0,.49c0,.33.24.45.56.41a2.19,2.19,0,0,0,.34-.1,3.78,3.78,0,0,1,4.42,1.21,2.38,2.38,0,0,1,.54,1.52c0,.81,0,1.63.06,2.44a3.52,3.52,0,0,1-1.54,3,3.8,3.8,0,0,1-.69.5,1.33,1.33,0,0,1-.73.26,3.66,3.66,0,0,1-2-.38,1,1,0,0,0-1.43.06,1.47,1.47,0,0,1-1.62.12,1.19,1.19,0,0,1-.68-1.24c0-.84,0-1.67,0-2.51s0-1.63,0-2.44Zm2.67,1.68a2.1,2.1,0,0,0,1.17,2.3,1.19,1.19,0,0,0,1.46,0,3.07,3.07,0,0,0,1.08-1.81,2.26,2.26,0,0,0,0-1.1A7.13,7.13,0,0,0,269,64a1,1,0,0,0-1.41-.13A2.15,2.15,0,0,0,266.36,66.14Z"/><path d="M173.5,29.13c-.06,1.09-.13,2.19-.17,3.29,0,.71,0,1.42,0,2.13a2,2,0,0,1-.06.64,9.7,9.7,0,0,0-.09,4.05c.09.8.1,1.62.15,2.43.09,1.38.18,2.76.3,4.13a1.11,1.11,0,0,0,.36.67,1.74,1.74,0,0,1,.63,1.46,1.91,1.91,0,0,0,.56,1.41,1.56,1.56,0,0,1,.17,1.93,1.22,1.22,0,0,1-1.87.23,12.11,12.11,0,0,1-2-2.55,1.8,1.8,0,0,1-.19-.9c0-.76.07-1.52.07-2.29s-.07-1.71-.08-2.57c0-1.44,0-2.87,0-4.31,0-2.32,0-4.64.1-7,0-1.22.18-2.43.26-3.64,0-.46,0-.91,0-1.37a.91.91,0,0,1,.4-.8.79.79,0,0,1,1.21.44,4,4,0,0,1,.16,1c0,.53,0,1.06,0,1.58Z"/><path d="M198.22,53.06a2.16,2.16,0,0,1-.36,0,12.86,12.86,0,0,0-2.56-.15c-1.48,0-3,0-4.44-.08a2.74,2.74,0,0,0-1.59.33,3,3,0,0,1-1.52.36,12.77,12.77,0,0,0-1.62.19c-.76.11-1.51.31-2.26.35-1.2.06-2.4,0-3.59,0a1.23,1.23,0,0,1-.72-.27.87.87,0,0,1-.28-.67c0-.16.3-.37.49-.43.88-.23,1.77-.42,2.66-.59.52-.1,1-.09,1.56-.2a3.13,3.13,0,0,0,1.34-.45,3.6,3.6,0,0,1,2.42-.68,4.26,4.26,0,0,0,2.72-.74,2,2,0,0,1,.95-.26,7.72,7.72,0,0,1,1.36,0,4.44,4.44,0,0,0,2.25-.32,1.34,1.34,0,0,1,1.3,0c.88.47,1.77.95,2.64,1.44a1.43,1.43,0,0,1,.64,1.08A.9.9,0,0,1,199,53a4.89,4.89,0,0,1-.76.16Z"/><path d="M254.22,70.76h-3.31a1.36,1.36,0,0,1-1.42-1.6c0-.9.08-1.8.09-2.71,0-1.69,0-3.39,0-5.09,0-.55,0-1.1-.07-1.64s.15-.8.69-.88a10.88,10.88,0,0,1,1.28-.13c.76,0,1.11.29,1.12,1,0,.38-.08.76-.08,1.14,0,2,0,4-.05,6,0,.92.3,1.2,1.21,1.15.39,0,.77,0,1.15,0,.72,0,1.43-.06,2.15-.12a1,1,0,0,1,1.26.78,2.46,2.46,0,0,1,.16.76c0,1-.32,1.33-1.31,1.32s-1.92,0-2.87,0Z"/><path d="M237.77,41.45c-.06-.12-.11-.17-.1-.21A4.83,4.83,0,0,1,238.76,39a11.31,11.31,0,0,0,1.56-2c.72-1,1.5-1.91,2.26-2.87l1.87-2.34c.11-.13.21-.27.32-.39,1.12-1.18,2.25-2.35,3.36-3.54.6-.64,1.15-1.34,1.77-2a8.31,8.31,0,0,0,1.89-2.32,1.64,1.64,0,0,1,.69-.69.62.62,0,0,1,1,.63,3.49,3.49,0,0,1-.24.82c-.23.65-.51,1.28-.69,1.94a2.14,2.14,0,0,1-.65,1.24,1.26,1.26,0,0,0-.3.31A3.07,3.07,0,0,1,250.21,29a2.93,2.93,0,0,0-.68.6,5.87,5.87,0,0,1-1.07.94A9.47,9.47,0,0,0,246,32.67c-.08.08-.14.2-.24.25a10.66,10.66,0,0,0-2.36,2.38c-.18.19-.36.38-.55.56a4.76,4.76,0,0,0-1.49,1.89,1.34,1.34,0,0,1-.52.59,4.83,4.83,0,0,0-1.35,1.56A6.26,6.26,0,0,1,237.77,41.45Z"/><path d="M262.3,66.24V69.4c0,.52,0,1-.59,1.27a2,2,0,0,1-1.86-.1,1.09,1.09,0,0,1-.4-.79,29.5,29.5,0,0,1-.1-3.64c.11-1.09,0-2.2,0-3.3,0-.82.05-.9.85-1a4.82,4.82,0,0,1,1.2,0,.89.89,0,0,1,.87,1C262.31,64,262.3,65.12,262.3,66.24Z"/><path d="M179.16,51.05a1.17,1.17,0,0,1-.53-.2,3.74,3.74,0,0,1-1.43-2.31,31.34,31.34,0,0,1-.57-3.64,6.92,6.92,0,0,0-.75-2.23,1.45,1.45,0,0,1-.12-1.17,1,1,0,0,1,.71-.64.73.73,0,0,1,1,.67,6.49,6.49,0,0,1,0,1.08,1.26,1.26,0,0,0,.46,1.15,1.31,1.31,0,0,1,.49,1.14,3,3,0,0,0,.53,1.68,2.29,2.29,0,0,1,.36,1.22,2,2,0,0,0,.47,1.26,4.63,4.63,0,0,1,.39.59C180.62,50.5,180.23,51.09,179.16,51.05Z"/><path d="M255.67,30a.9.9,0,0,1-.49.86c-.6.42-1.21.85-1.79,1.3a6.09,6.09,0,0,0-.74.78,2.14,2.14,0,0,1-1.26.75c-.54.09-.71-.11-.59-.63.2-.81.41-1.62.59-2.43a5.51,5.51,0,0,0,.07-.71c0-.61.18-.86.77-.94a18.3,18.3,0,0,1,2.56-.13C255.41,28.83,255.59,29.35,255.67,30Z"/><path d="M275.26,23.87a1.68,1.68,0,0,0-1.8-1.88c-.25,0-.56.15-.63-.24s.22-.45.46-.54a5.21,5.21,0,0,1,2.59-.32,1.4,1.4,0,0,1,.57.26c.44.3.84.63,1.28.92a1.48,1.48,0,0,1,.81,1.47,1.43,1.43,0,0,1-1.09,1.28,4.26,4.26,0,0,1-1.12.21C275.42,25.05,275.2,24.8,275.26,23.87Z"/><path d="M237.07,42.13c.41.76.41,1-.14,1.44a1.32,1.32,0,0,0-.38,1,1.71,1.71,0,0,1-.59,1.25,2.81,2.81,0,0,0-.51.76c-.38.72-.71,1.46-1.1,2.17a1.23,1.23,0,0,1-1.86.23,1,1,0,0,1-.05-1.14,2.64,2.64,0,0,1,.45-.55,13,13,0,0,0,2.38-2.95.21.21,0,0,1,0-.06,4.06,4.06,0,0,0,1.39-1.92C236.73,42.3,236.92,42.24,237.07,42.13Z"/><path d="M260.85,58.73l.35,0c.85,0,1.24.34,1.2,1.19a.87.87,0,0,1-.86,1,8.19,8.19,0,0,1-1.64,0c-.44-.05-.63-.34-.66-.79a2.09,2.09,0,0,1,0-.5c.05-.53.23-.73.75-.78A8.19,8.19,0,0,1,260.85,58.73Z"/><path d="M5.79,28.83a2.42,2.42,0,0,1,.6,0,3.14,3.14,0,0,0,2.28-.41,2.62,2.62,0,0,1,.45-.21,10.26,10.26,0,0,0,4-2.55A2.29,2.29,0,0,1,14.75,25a1.9,1.9,0,0,0,1-.31A10,10,0,0,0,18.83,22c.37-.56.39-.54,0-1.12a6.47,6.47,0,0,1-.44-.82c-.52-1.16-1-2.32-1.55-3.47a3.49,3.49,0,0,1-.35-2,2.6,2.6,0,0,0-.5-1.8c-.64-1-1.47-1.88-2.1-2.87A13.94,13.94,0,0,0,11.6,7.14C10.87,6.46,10.21,5.69,9.54,5a1.27,1.27,0,0,1,0-2c.31-.31.57-.66.9-.93s1-.2,1,.33a6.15,6.15,0,0,0,1.37,2.79c.46.73.93,1.44,1.4,2.16,0,0,0,0,0,.07.69,1,1.37,2.07,2.09,3.08a6.59,6.59,0,0,1,1,1.67,4.35,4.35,0,0,0,.59,1c.08.12.22.21.27.34a25.82,25.82,0,0,1,1.28,2.71,1.1,1.1,0,0,0,.55.61,2.64,2.64,0,0,1,1.4,3.13,2.05,2.05,0,0,0,0,.78c.09.5.38.62.83.39.26-.14.5-.29.76-.41.46-.21.74-.17.89.1a.88.88,0,0,1-.26,1,1.69,1.69,0,0,1-.45.21c-.64.24-.75.44-.54,1.08a7.55,7.55,0,0,0,.38.93,1,1,0,0,0,1.42.5,7.35,7.35,0,0,0,1.53-1.18A1.57,1.57,0,0,0,25.72,21a3.11,3.11,0,0,1-.28-.23.8.8,0,0,1-.25-.91c.14-.38.38-.71.82-.69a1.59,1.59,0,0,0,1.46-.74,4.44,4.44,0,0,1,.81-.81A7.52,7.52,0,0,0,30,15.17c.32-.58.19-.91-.41-1.2l-.4-.17a.84.84,0,0,1,.06-1.53A2.46,2.46,0,0,1,30,12.2c.74.05,1.47.17,2.21.17a3,3,0,0,1,1.87.6,14.82,14.82,0,0,1,1.21,1,1.54,1.54,0,0,1,.43,1.45c-.1.53-.19,1.07-.25,1.62a1.15,1.15,0,0,1-.79,1.07,10.93,10.93,0,0,0-3.67,2.57c-.49.49-1,.95-1.5,1.44a6,6,0,0,0-.85,1A21.36,21.36,0,0,0,27.61,25a2.14,2.14,0,0,0-.23.81,2.77,2.77,0,0,1-.5,1.33A3.27,3.27,0,0,0,27,30.65c.5.72.86,1.53,1.29,2.3a3.15,3.15,0,0,0,.48.79,11.72,11.72,0,0,0,1.43,1.19c.57.41,1,.18,1.09-.51a.87.87,0,0,0,0-.36A1.23,1.23,0,0,1,31.58,33c.33-.49.65-1,1-1.5.15-.24.27-.44.6-.42a1.35,1.35,0,0,0,1.15-.47.69.69,0,0,1,.82-.29c.34.14.4.46.44.77A1.59,1.59,0,0,1,35,32.75a.32.32,0,0,0-.1.1,9.64,9.64,0,0,0-1.52,3A4.66,4.66,0,0,1,32.85,37a2.72,2.72,0,0,1-.31.38c-.72.94-.61,1.41.14,2.33a24.88,24.88,0,0,1,3,3.92,4.91,4.91,0,0,0,1.92,1.89c.49.29,1,.65,1.43.95a3,3,0,0,0,.83.38.42.42,0,0,0,.57-.44,5,5,0,0,1,.34-1.75,1.23,1.23,0,0,0,0-.63A1.45,1.45,0,0,1,41,42.78a4.55,4.55,0,0,0,.46-1.11c.09-.25.09-.56.42-.59a.61.61,0,0,1,.62.5,5,5,0,0,1,.28,2.67,3.87,3.87,0,0,0,.15,2.66,8.46,8.46,0,0,1,.45,1.73A2.63,2.63,0,0,0,44,50.05a2.18,2.18,0,0,1,.26.34A1.11,1.11,0,0,1,43.92,52a1.77,1.77,0,0,1-1.86.26,8.09,8.09,0,0,1-2.83-1.89c-.73-.72-1.55-1.35-2.29-2.06a36.51,36.51,0,0,1-3.36-3.22,8.2,8.2,0,0,0-1.37-1.26A3.11,3.11,0,0,1,31,42.34a1.19,1.19,0,0,0-.11-.26c-.15-.31-.32-.61-.73-.6s-.45.31-.58.56c-.45.79-.87,1.59-1.36,2.36a3.23,3.23,0,0,1-.79.82A.91.91,0,0,1,26,44.94a4.9,4.9,0,0,1-.62-2.19,3.34,3.34,0,0,1,1.51-2.91,18.49,18.49,0,0,0,1.51-1.42,1,1,0,0,0,.21-.66,2.58,2.58,0,0,0-.27-1c-.38-.69-.82-1.35-1.26-2a13.51,13.51,0,0,0-.94-1.18,2,2,0,0,0-.53-.47.61.61,0,0,0-.95.41,7.65,7.65,0,0,1-.82,2.13,3,3,0,0,0-.22,1,2.42,2.42,0,0,1-.52,1.38,2,2,0,0,0-.45.81,11,11,0,0,1-1.76,3.43,8.54,8.54,0,0,0-1.29,2.62,1.33,1.33,0,0,1-.28.49c-.47.56-1,1.09-1.44,1.68a2.47,2.47,0,0,1-2.77,1c-.58-.13-1.17-.22-1.76-.33a1.21,1.21,0,0,1-1.09-.89,2,2,0,0,0-.58-.77,1.23,1.23,0,0,1-.44-1.47c.22-.54.65-.64,1.05-.23a7.42,7.42,0,0,1,.49.62.46.46,0,0,0,.74.06,5.39,5.39,0,0,1,1.28-.9,2,2,0,0,0,.62-.68,1.5,1.5,0,0,1,1-.71,1.37,1.37,0,0,0,1-.76,5.77,5.77,0,0,1,1.13-1.28,22.45,22.45,0,0,0,1.93-2.21,1.57,1.57,0,0,0,.2-.95A2.92,2.92,0,0,1,21,35.69c.25-.38-.14-1.4-.56-1.65a1.42,1.42,0,0,0-1.5.41.44.44,0,0,0-.08.11c-.42,1.14-1.46,1.59-2.38,2.18a14.74,14.74,0,0,0-1.45,1,1.55,1.55,0,0,1-2.29-.18,2.33,2.33,0,0,1-.08-2.38,2.18,2.18,0,0,1,1.63-1.16,1.74,1.74,0,0,0,1-.58c.5-.51,1.07-.95,1.61-1.43l2.19-2a1.16,1.16,0,0,1,1-.33c.43.06.58.28.47.7a.82.82,0,0,1-.14.33,1,1,0,0,0,0,1.43c.18.25.33.52.55.87a6.21,6.21,0,0,0,.49-.61,2.48,2.48,0,0,1,1-.93,3.14,3.14,0,0,0,.52-.38,1.23,1.23,0,0,0,.45-1.47A2.69,2.69,0,0,1,23.27,28,1.19,1.19,0,0,0,23,26.94c-.68-.89-1.35-1.79-2-2.69a.94.94,0,0,0-1.2-.35c-.3.14-.59.3-.89.45l-1.39.73-2.59,1.36c-.07,0-.11.11-.17.13-1.59.52-2.4,2-3.65,2.94a8.09,8.09,0,0,1-.74.57,1.3,1.3,0,0,0-.67,1c-.08.64-.17,1.28-.24,1.92a1.89,1.89,0,0,0,.42,1.48,1.36,1.36,0,0,1,.1,1.83,2.56,2.56,0,0,0-.34,1.37A40.7,40.7,0,0,1,9.28,42C9,43.65,8.6,45.3,8.19,46.94a3.61,3.61,0,0,0,0,2.11c0,.14.09.27.13.41.28.87.17,1.14-.64,1.55s-1.31.7-2,1a1.34,1.34,0,0,1-1.94-.47c-.51-.71-1-1.47-1.47-2.2a8.74,8.74,0,0,1-.62-.88,2.23,2.23,0,0,1-.31-.92c0-.59.23-.79.83-.83A1.93,1.93,0,0,1,4,47.41a2,2,0,0,0,.26.25c.55.47,1.06.31,1.2-.41a9.58,9.58,0,0,0,.14-1.2,7,7,0,0,1,.62-2.49,5.68,5.68,0,0,0,.61-2.82,9.36,9.36,0,0,1,.41-2.39,2.21,2.21,0,0,0,0-1.6A1.21,1.21,0,0,1,7,36.2a2.9,2.9,0,0,0-1.63-2.52c-.39-.25-.8-.45-1.17-.72s-.49-.49-.22-1c.18-.34.31-.7.49-1s.38-.66.58-1S5.5,29.27,5.79,28.83Z" fill="#706f6f"/><path d="M63.51,49.11a2.79,2.79,0,0,0-.45.41c-.51.81-1,1.62-1.5,2.45-.21.35-.35.78-.84.77a1.2,1.2,0,0,1-1.1-.68,4.72,4.72,0,0,0-.47-.89,2.51,2.51,0,0,1-.39-2.56,4.79,4.79,0,0,1,1.77-2.71,2.79,2.79,0,0,0,1.06-1.4,12.17,12.17,0,0,1,.74-1.31c.3-.54.56-1.1.86-1.64a7.75,7.75,0,0,1,.68-1.1c.62-.82,1.28-1.61,1.9-2.42s1.22-1.66,1.82-2.49a2.76,2.76,0,0,0,.28-.5.73.73,0,0,0-.14-.86,2.39,2.39,0,0,0-2.9-.46c-.59.35-1.2.68-1.8,1l-.06,0c-1.11,1-2.63,1.46-3.77,2.46a5.22,5.22,0,0,1-.85.52,7.63,7.63,0,0,0-2.32,2,1.38,1.38,0,0,0-.38,1,.86.86,0,0,1-.37.72,15.09,15.09,0,0,0-3,3.25,10.18,10.18,0,0,1-2,2,.47.47,0,0,1-.66.05c-.87-.76-2-1.26-2.56-2.36-.41-.79-.45-.87.09-1.6a3.5,3.5,0,0,0,.41-.82,12,12,0,0,0,.33-1.17,19.17,19.17,0,0,1,1.37-3.46,4.28,4.28,0,0,0,.41-1.22,15.18,15.18,0,0,1,1.54-4.07,5,5,0,0,1,1.23-1.91,1.61,1.61,0,0,0,.3-.49.72.72,0,0,0-.33-1.09,4.59,4.59,0,0,0-2-.81.66.66,0,0,1-.28,0c-.7-.36-.72-1.09-.91-1.72a1,1,0,0,1,.43-1.13,1.9,1.9,0,0,1,2-.46,2.42,2.42,0,0,0,2.4-.59c.64-.54,1.3-1,2-1.56a1.89,1.89,0,0,1,.5-.28.88.88,0,0,1,1.2.45c.2.54.09,1.21-.54,1.34a1.22,1.22,0,0,0-.57.28.45.45,0,0,0,.26.81.71.71,0,0,0,.81-.33c.16-.23.27-.53.64-.48a1.23,1.23,0,0,1,1,.6,5.77,5.77,0,0,1,.42,1c.24.73.18.88-.43,1.39a5.16,5.16,0,0,0-1.73,2.41,5.79,5.79,0,0,1-1,1.64c-.66.88-1.39,1.71-2,2.59A6.67,6.67,0,0,0,53.7,35,2.06,2.06,0,0,1,53,36a.67.67,0,0,0-.21.2c-.52,1-1.37,1.71-2,2.63-.15.23-.33.5,0,.83.44-.33.91-.64,1.32-1a14.78,14.78,0,0,1,2.6-1.78l.54-.34a2.86,2.86,0,0,1,.41-.3c1.55-.62,2.84-1.76,4.45-2.3a12.11,12.11,0,0,0,2.48-1.27,7.36,7.36,0,0,1,2-.78,12.91,12.91,0,0,0,1.46-.56c.29-.12.56-.27.85-.38s.68-.24,1-.36a3.72,3.72,0,0,0,2.32-2.2c.34-.87,1-1,1.56-.21a1.53,1.53,0,0,0,1.88.59c2.07-.57,2.08-.56,4,.25a2.06,2.06,0,0,1,.57.41c.52.47,1,1,1.53,1.41a1.32,1.32,0,0,1,.51,1A3.42,3.42,0,0,0,81,33.31a4.35,4.35,0,0,1,.36,1.07c0,.16,0,.35,0,.5a9.4,9.4,0,0,1,.13,3.95,10.48,10.48,0,0,0,0,1.94A3.38,3.38,0,0,0,81.94,42c.33.59.37.78-.08,1.28a8.53,8.53,0,0,0-1.48,2.52,4.4,4.4,0,0,1-1.57,2,6.86,6.86,0,0,0-1.16,1.06A3.61,3.61,0,0,1,76,49.89a11.5,11.5,0,0,0-1.73.84,2,2,0,0,1-.38.2,39.37,39.37,0,0,1-4,.93,20.72,20.72,0,0,1-3.15,0,1.73,1.73,0,0,1-1.2-.57c-.51-.51-1-1-1.48-1.56Zm13.9-11.84c.07-.75.09-1.24-.35-1.63a.77.77,0,0,1-.14-.88c.06-.18.14-.35.21-.53A1.05,1.05,0,0,0,76.85,33a3.68,3.68,0,0,0-2.71-1.12,1.4,1.4,0,0,0-1.38.6c-.3.51-.65,1-.92,1.53s-.26.83-.46,1.2c-.49.87-1,1.7-1.54,2.58a15.53,15.53,0,0,0-1,2.05A1.84,1.84,0,0,1,67.92,41a1.6,1.6,0,0,0-.88.89,4.32,4.32,0,0,1-1,1.39A8.52,8.52,0,0,0,65,44.51a1.33,1.33,0,0,0,.77,2.09,18.33,18.33,0,0,1,1.73.69,1.67,1.67,0,0,0,1.18.11c.53-.13,1.06-.27,1.61-.37a11.89,11.89,0,0,0,3.85-1.28,2.74,2.74,0,0,0,1.22-1.09c.23-.44.49-.87.74-1.3a4.17,4.17,0,0,0,.58-2.61,1.89,1.89,0,0,1,.18-1.1A5.44,5.44,0,0,0,77.41,37.27Z" fill="#706f6f"/><path d="M107,51.86a8.43,8.43,0,0,0-1.33.25,9.82,9.82,0,0,1-1.93.52,4.26,4.26,0,0,0-1,.33c-.22.08-.43.21-.65.29-.46.16-.82.07-1-.2a1,1,0,0,1,.24-1.06c.18-.16.4-.26.59-.4a7.79,7.79,0,0,0,.82-.68.55.55,0,0,1,.64-.18,1.8,1.8,0,0,0,2-.41,1.92,1.92,0,0,1,.84-.36,1.83,1.83,0,0,0,1.19-.6.91.91,0,0,1,.83-.33,2.51,2.51,0,0,0,1.44-.37,7.79,7.79,0,0,0,2.38-1.56c.64-.71.76-1,.26-1.84a4.87,4.87,0,0,0-3.11-2.36,2.27,2.27,0,0,1-.82-.27,6.78,6.78,0,0,0-2.7-.89,6.43,6.43,0,0,1-1.34-.46,2.63,2.63,0,0,0-1.17-.29c-.88,0-1.76-.06-2.65-.09s-1.08.22-1.16,1a3.08,3.08,0,0,1-.71,1.76A6.34,6.34,0,0,0,97.38,46a2.32,2.32,0,0,1-.46.72,13.3,13.3,0,0,0-1.66,2.33,7.2,7.2,0,0,1-5.93,3.56c-.35,0-.77.06-.93-.35s.13-.7.37-1a2.47,2.47,0,0,1,.68-.37,3.42,3.42,0,0,0,.8-.44c.84-.82,1.66-1.66,2.44-2.53a7,7,0,0,0,.7-1.07c.22-.34.45-.67.69-1s.63-.78.9-1.2c.43-.68.85-1.38,1.22-2.11a7,7,0,0,0,.35-1.15,1.8,1.8,0,0,1,.25-.73,8.55,8.55,0,0,0,1.46-3,3.61,3.61,0,0,0,.28-.82.81.81,0,0,0-.12-.63.71.71,0,0,0-.65,0c-.68.39-1.35.81-2,1.26a4.67,4.67,0,0,1-2.32.87,6.16,6.16,0,0,0-1.06.16,3.92,3.92,0,0,1-3.27-.67c-1.06-.69-2.1-1.42-3.13-2.16a2.3,2.3,0,0,1-.74-2.39.54.54,0,0,1,1-.19,1.92,1.92,0,0,1,.27.66,1.05,1.05,0,0,0,1.19.82,5.51,5.51,0,0,0,1.19-.21c.84-.19,1.67-.38,2.5-.6a5.41,5.41,0,0,0,.87-.34,5,5,0,0,1,2.06-.57,1.84,1.84,0,0,0,.95-.27,7.51,7.51,0,0,1,3-1,2.18,2.18,0,0,0,2-1.89,2.91,2.91,0,0,1,.61-1.43.64.64,0,0,0,.07-.91,3.29,3.29,0,0,1-.49-2.6,2.86,2.86,0,0,1,.64-1.63,2.22,2.22,0,0,0,.42-1.12,7.52,7.52,0,0,1,1.28-3.75,6.86,6.86,0,0,0,.42-.91,1.24,1.24,0,0,1,1.14-.85,1.3,1.3,0,0,1,1.18.89,19.24,19.24,0,0,0,1.88,3.3,3.71,3.71,0,0,0,1.18,1.12,1.29,1.29,0,0,1,.71,1.16,1.93,1.93,0,0,0,.86,1.52c1,.69,2,1.35,3,2a3.06,3.06,0,0,0,.73.28c.6.22.72.67.21,1.06a3.58,3.58,0,0,1-1.26.64,3.07,3.07,0,0,0-1.66,1,9.07,9.07,0,0,1-3.36,2.26c-.55.23-1.06.54-1.6.8a5,5,0,0,1-.79.32,13,13,0,0,0-3.62,1.84,2.28,2.28,0,0,0-.94,1.63c-.11.66-.23,1.32-.4,2-.26,1,.19,1.34,1.15,1.36s2.2.06,3.29.16a2.09,2.09,0,0,1,1.06.38A4.4,4.4,0,0,0,108,41a5.76,5.76,0,0,1,3.35,1.32,4.13,4.13,0,0,0,.9.56,8.17,8.17,0,0,1,4,4.42A1.31,1.31,0,0,1,115.8,49c-.54.43-1.15.78-1.71,1.18a4.31,4.31,0,0,1-2.92.74,4.51,4.51,0,0,0-2.73.72C107.89,52,107.87,52,107,51.86ZM102.65,29c0,.61.22.78.62.54a4.69,4.69,0,0,1,2.25-.62,3.28,3.28,0,0,0,1-.27q1.06-.43,2.1-.9a.51.51,0,0,0,.26-.86,2.73,2.73,0,0,0-.81-.66,5.15,5.15,0,0,1-1.83-2.29,14.75,14.75,0,0,0-.84-2c-.25-.5-.62-.49-.9,0a3.53,3.53,0,0,0-.27.73,2.14,2.14,0,0,1-1.08,1.36l-.5.29a.91.91,0,0,0-.21,1.59,3.08,3.08,0,0,0,.27.24c.83.76.89,1.21.3,2.17A4.69,4.69,0,0,0,102.65,29Z" fill="#706f6f"/><path d="M159,24.43a3.2,3.2,0,0,1-1.69,1.08,3.43,3.43,0,0,0-2,1.29,2.29,2.29,0,0,1-1.18.77,7.59,7.59,0,0,0-1.23.7,12,12,0,0,1-1.06.56c-.68.29-1.38.55-2.06.84a2,2,0,0,1-1.23.23c-.14-.37.1-.6.35-.78a6.27,6.27,0,0,1,2-1.19,2.66,2.66,0,0,0,1.44-1.12c.25-.34.55-.65.82-1a12.21,12.21,0,0,0,.91-1.11.79.79,0,0,0-.13-1.1,1.72,1.72,0,0,0-1.91-.45,2.14,2.14,0,0,1-1.65.06c-.69-.27-1.07,0-1.09.77A3.48,3.48,0,0,1,148,26.49a1.14,1.14,0,0,1-1.3.29,2.1,2.1,0,0,1-1.49-2,6.68,6.68,0,0,1,.91.09.89.89,0,0,0,1-.3,1.1,1.1,0,0,0,0-1.22.74.74,0,0,0-.12-.17c-.35-.33-.25-.63,0-.94a2.17,2.17,0,0,0,.5-1.17c.11-.8-.2-1.27-1-1.31-1-.05-1.11-.37-1.27-1.13a2.6,2.6,0,0,1,.12-1.61,2.77,2.77,0,0,0,.19-.62,1.19,1.19,0,0,0-.41-1.29,1.16,1.16,0,0,0-1.35,0,1.9,1.9,0,0,0-.67.79,3,3,0,0,0-.25,1.25,11,11,0,0,1-.56,3.6,3,3,0,0,0-.1,1.69,1,1,0,0,0,1.6.7c.21-.1.38-.29.59-.4a1.51,1.51,0,0,1,.65-.26c.66,0,.87.38.55,1-.2.38-.37.77-.59,1.2a11,11,0,0,1-2.73-.11,1.3,1.3,0,0,0-.88.13,2.22,2.22,0,0,1-1.72.23,1.23,1.23,0,0,0-1,.2c-.37.21-.76.41-1.15.59a1.63,1.63,0,0,1-1.17.15,1.14,1.14,0,0,0-1.33.47.89.89,0,0,1-1,.36c-.41-.08-.87.08-1.26-.34.1-.17.2-.35.31-.52a2,2,0,0,0,.4-1.68,19,19,0,0,1-.42-2.47,11,11,0,0,0-.56-2.78,4.89,4.89,0,0,1,0-1.58,5,5,0,0,0-.42-2.3.87.87,0,0,1,.07-.94,2.18,2.18,0,0,0,.35-1.36c0-.65,0-1.3,0-1.94a3.56,3.56,0,0,1,.2-1,.59.59,0,0,1,.62-.41.63.63,0,0,1,.64.48,13.61,13.61,0,0,1,.38,1.88,11.27,11.27,0,0,1-.07,1.29c0,.52,0,1,0,1.56s.17,1.18.16,1.77a5.71,5.71,0,0,0,.31,2.75.32.32,0,0,1,0,.14,3.09,3.09,0,0,0,.76,2.17c0,.52,0,1,0,1.57,0,.23-.1.47-.11.7a1,1,0,0,0,1.13,1.06,2.72,2.72,0,0,0,.88-.27,1.27,1.27,0,0,0,.55-1.93,3.12,3.12,0,0,1-.42-1.42c-.05-.74-.24-1.47-.26-2.2a6.75,6.75,0,0,1,.62-2.71.58.58,0,0,1,.35-.31,1.6,1.6,0,0,1,0,.49,2.13,2.13,0,0,0,0,1.41,2.34,2.34,0,0,1,.07,1.48,1.42,1.42,0,0,0,0,.71c.15.49.39.93,1,1s.86-.3,1.12-.72a1.41,1.41,0,0,0,.15-1.49,2.28,2.28,0,0,1-.14-1.6,2.8,2.8,0,0,0,.08-.57c0-.93-.05-1.86-.12-2.78-.05-.67-.4-.94-1-.66a1,1,0,0,1-1.36-.38c-.12-.15-.27-.26-.4-.41a1.06,1.06,0,0,1-.27-1.05c.25-.87.49-1.74.69-2.62a2.75,2.75,0,0,0,0-1,2.86,2.86,0,0,0-.27-.81,1,1,0,0,1,.1-1.15,2.21,2.21,0,0,0,.35-2.1,2.77,2.77,0,0,1,0-.91c0-.5,0-1,0-1.51,0-.14,0-.28,0-.42,0-.46.15-.7.48-.79A.94.94,0,0,1,140,.4a3.58,3.58,0,0,1,.29.73,1.43,1.43,0,0,0,2.37.71,12.27,12.27,0,0,0,1-1,2.84,2.84,0,0,1,1.82-.74.76.76,0,0,1,.82.47.91.91,0,0,1-.11,1,1.89,1.89,0,0,1-.69.49,11.77,11.77,0,0,0-2.69,1.48,2.41,2.41,0,0,1-1.28.39,1.24,1.24,0,0,0-1.33,1,2.46,2.46,0,0,1-.28.74,2.78,2.78,0,0,0-.32,1.3,2,2,0,0,1-.2,1,5.34,5.34,0,0,0-.52,1.85c-.12.73.09,1.14.63,1.35a1.2,1.2,0,0,0,1.6-.55c.11-.16.17-.37.32-.47A.76.76,0,0,1,142,10c.13,0,.25.26.28.43a1.19,1.19,0,0,1,0,.56.64.64,0,0,0,.36.83,1,1,0,0,1,.55,1.08c-.18,1,.77,1.27,1.45.87,0,0,.09,0,.12-.07a2.55,2.55,0,0,1,2.26-.6,2.92,2.92,0,0,0,.71-.08,1.13,1.13,0,0,0,.91-.81,11.92,11.92,0,0,1,.61-1.37,1.58,1.58,0,0,0,0-1.31,18.76,18.76,0,0,1-.68-2,1,1,0,0,0-1.55-.59c-.65.41-1.3.81-1.92,1.25a3.55,3.55,0,0,1-1.67.62c-.45.06-.69-.23-.52-.66a1.56,1.56,0,0,1,1-1,16.57,16.57,0,0,0,2.95-1.47c1.35-.69,2.07-.67,3.21.29a5.79,5.79,0,0,1,.64.57,2.17,2.17,0,0,1,.58,2.3,4.36,4.36,0,0,0-.3,2.26c.08.37.11.75.19,1.12a2.58,2.58,0,0,1-.17,1.55,15.65,15.65,0,0,0-1,4.88,9.86,9.86,0,0,1-.35,1.75,1.49,1.49,0,0,0,1.5,1.92,3.9,3.9,0,0,0,2.62-.8.82.82,0,0,1,1.12-.1,3.8,3.8,0,0,0,2.38.62.87.87,0,0,1,.86.51Zm-10.61-9.28h.11c0-.09.06-.2,0-.28a1.5,1.5,0,0,0-.32-.58c-.22-.2-.45,0-.64.11a1,1,0,0,0-.45,1,3.28,3.28,0,0,1-.24,1.8.64.64,0,0,0,.4.86.66.66,0,0,0,.92-.3,1.89,1.89,0,0,0,.19-.75C148.44,16.38,148.42,15.76,148.42,15.15Z" fill="#706f6f"/><path d="M237.56,74c-1,0-1.52-.41-1.62-1.32a.64.64,0,0,1,.58-.82c.31-.07.62-.09.92-.17a1.24,1.24,0,0,0,1-1.57,2.32,2.32,0,0,0-.34-.86,4,4,0,0,1-.8-2.33,1.81,1.81,0,0,0-.39-1.06,3,3,0,0,1-.64-1.57c0-.14,0-.28-.08-.42-.21-.9-.54-1-1.27-.41a6.41,6.41,0,0,1-.77.51,1,1,0,0,0-.5,1c0,.69,0,1.38,0,2.08,0,1,0,1.16,1,1.5a1.1,1.1,0,0,1,.82,1.05,1.07,1.07,0,0,1-.73,1,3.51,3.51,0,0,1-2,0,2.08,2.08,0,0,1-1.55-2.29c.05-.83.07-1.67.1-2.51a5.42,5.42,0,0,1,0-.57,1.36,1.36,0,0,0-.49-1.41,1.52,1.52,0,0,1-.28-.33,1.09,1.09,0,0,1,.2-1.64,1.86,1.86,0,0,0,.72-1.26,2.23,2.23,0,0,1,1.22-1.52c.53-.33,1.11.18,1,.9,0,.21-.09.42-.11.63A1.18,1.18,0,0,0,234.85,62a2.69,2.69,0,0,0,.84-.14,2,2,0,0,1,2.83,1.48c.25.82.4,1.67.61,2.5a3.86,3.86,0,0,0,.32.94.38.38,0,0,0,.72,0,5.44,5.44,0,0,0,.25-.81c.17-.55.35-1.09.52-1.63s.32-1,.43-1.51c.15-.69.29-.9,1-1a4.1,4.1,0,0,1,1.21,0,.54.54,0,0,1,.44.89,5.32,5.32,0,0,0-.76,2.28.74.74,0,0,1-.1.27,38.45,38.45,0,0,0-1.93,5.08,5.72,5.72,0,0,1-1.85,3A2.36,2.36,0,0,1,237.56,74Z" fill="#706f6f"/><path d="M6.78,65.12a3.29,3.29,0,0,0,.12-.71c0-.59-.09-1.19-.12-1.78,0-1-.1-2-.12-3a.71.71,0,0,1,.68-.79,8.29,8.29,0,0,1,1.41,0c.4,0,.56.32.6.69,0,.12,0,.24,0,.36v6.68c0,.9,0,1.81,0,2.72S9,70.63,7.94,70.61a1.73,1.73,0,0,1-1.44-.67A6.46,6.46,0,0,1,6,69.26L3.36,64.65c-.16-.28-.23-.71-.68-.6s-.31.5-.36.78a4.88,4.88,0,0,0,.07.85c0,1.29,0,2.59,0,3.88a1,1,0,0,1-.9,1.09,1.21,1.21,0,0,1-1.42-.91,4.6,4.6,0,0,1,0-1c0-.38.06-.77.06-1.15q0-3.44-.05-6.89c0-.33-.08-.66-.09-1,0-.53.15-.76.68-.83a8.3,8.3,0,0,1,1.41,0,1.07,1.07,0,0,1,.9.62c.38.63.77,1.26,1.14,1.89.1.17.16.35.24.52a2.76,2.76,0,0,0,.35.71,4.91,4.91,0,0,1,.93,1.67A1.35,1.35,0,0,0,6.78,65.12Z" fill="#706f6f"/><path d="M107.35,66v-.15a3.69,3.69,0,0,1,1.39-3.28,3.26,3.26,0,0,1,3.72-.5,1.16,1.16,0,0,0,1.34,0,3.37,3.37,0,0,1,.87-.32.82.82,0,0,1,1.07.58,1.92,1.92,0,0,1,.09.63c0,2.24,0,4.49-.1,6.73a17.39,17.39,0,0,1-.34,2.48.92.92,0,0,1-.37.49c-.38.28-.79.53-1.19.79a1.34,1.34,0,0,1-.43.25,5.52,5.52,0,0,1-3.59-.1,5.6,5.6,0,0,1-2-1.43,2.61,2.61,0,0,1-.36-.53.68.68,0,0,1,0-.81.57.57,0,0,1,.71-.17.56.56,0,0,0,.28,0,2.45,2.45,0,0,1,2.13.9c.65.72,2.48.15,2.82-.77a.89.89,0,0,0-.15-.94c-.26-.29-.57-.15-.86,0a10.52,10.52,0,0,1-1,.43,2.08,2.08,0,0,1-1.65-.24,4.1,4.1,0,0,1-.89-.44A3.74,3.74,0,0,1,107.35,67C107.34,66.66,107.35,66.35,107.35,66Zm2.82.18a2.67,2.67,0,0,0,.42,1.58,1,1,0,0,0,1.49.3,3.87,3.87,0,0,0,.78-.62,2,2,0,0,0,0-2.78,5.87,5.87,0,0,0-.67-.65,1.06,1.06,0,0,0-1.8.56A14.21,14.21,0,0,0,110.17,66.22Z" fill="#706f6f"/><path d="M135.69,50.21a3.71,3.71,0,0,1-.63-2.32,2.07,2.07,0,0,0,.07-.49c-.1-.79.38-1.22.94-1.64s1-.79,1.49-1.22a2.33,2.33,0,0,1,1.08-.53c1-.26,2.08-.54,3.1-.87.54-.18.67-.67.3-1.24a5.78,5.78,0,0,1-.78-2c-.13-.6.09-.92.82-1.16l.32.6a1,1,0,0,0,1.14.66,1.9,1.9,0,0,1,1.53.48,3.28,3.28,0,0,0,.58.42,1.85,1.85,0,0,1,1.15,1.44.84.84,0,0,0,.88.7c.36,0,.72,0,1.08,0a4.16,4.16,0,0,1,1,.15,3,3,0,0,0,1.69,0l.49-.14a1.8,1.8,0,0,1,2.1.67c.17.23.39.42.58.63a3.08,3.08,0,0,1,.37.44c.11.21.28.46.05.66a.84.84,0,0,1-.63.22,11.94,11.94,0,0,1-1.88-.44,7,7,0,0,0-2-.41A4.35,4.35,0,0,1,149,44.5,1.69,1.69,0,0,0,147,45a1.81,1.81,0,0,0-.59,2,1.4,1.4,0,0,1-.19,1.17,12.44,12.44,0,0,1-3.3,3.74,6.21,6.21,0,0,1-.62.35,3.9,3.9,0,0,0-.88.48,2.1,2.1,0,0,1-2.25.48l-1.46-.39a1,1,0,0,1-.45-.21.7.7,0,0,1-.2-.48.59.59,0,0,1,.4-.31,1.25,1.25,0,0,1,1.11.4c.37.41.71.29,1.2.17a5.33,5.33,0,0,0,2.63-2c.68-.8,1.23-1.71,1.83-2.57a.86.86,0,0,0-.05-1,1.57,1.57,0,0,1-.27-1.28.6.6,0,0,0-.66-.8,6,6,0,0,0-3.12.61,1.77,1.77,0,0,1-.82.23,2.28,2.28,0,0,0-1.37.55,3.91,3.91,0,0,1-.65.44,1.76,1.76,0,0,0-1,1.32c-.11.56-.18,1.12-.26,1.69,0,.2-.06.4-.08.6Z" fill="#706f6f"/><path d="M157.06,74a3.16,3.16,0,0,1-2.44-.77,5.83,5.83,0,0,0-.69-.39,1.31,1.31,0,0,1-.63-1.59.6.6,0,0,1,.58-.46,2.64,2.64,0,0,1,2,.63,1.89,1.89,0,0,0,1.56.56,1.58,1.58,0,0,0,1.43-1.31c.09-.51-.2-.8-.71-.67s-.92.26-1.37.41a1.5,1.5,0,0,1-1.36-.19c-.43-.27-.88-.49-1.32-.74a1.74,1.74,0,0,1-.83-1.2c-.11-.51-.26-1-.42-1.51a2.25,2.25,0,0,1,.1-1.67,4.29,4.29,0,0,0,.34-1.16,1.37,1.37,0,0,1,.5-.92,4,4,0,0,1,2-1.21,2.79,2.79,0,0,1,2.56.56.57.57,0,0,0,.88,0,3.89,3.89,0,0,1,.5-.41.93.93,0,0,1,1.5.59,3.94,3.94,0,0,1,0,.91c0,.24,0,.48,0,.72,0,2.08,0,4.16,0,6.25a5.54,5.54,0,0,1-.17,1.27,1.83,1.83,0,0,1-.95,1.28,3,3,0,0,0-.42.27A3.09,3.09,0,0,1,157.06,74Zm-1.62-7.8h0v.43a1.77,1.77,0,0,0,1.35,1.64c.52.15,1-.1,1.48-.76a2.17,2.17,0,0,0,.51-1.66,6.22,6.22,0,0,0-.87-1.7.93.93,0,0,0-1.1-.33A1.62,1.62,0,0,0,155.6,65C155.52,65.42,155.49,65.8,155.44,66.17Z" fill="#706f6f"/><path d="M167.52,63.31c0-1.19,0-2.39,0-3.58,0-.77.08-.86.85-.91a10.92,10.92,0,0,1,1.14-.08c.66,0,.92.28.92.93,0,2.09,0,4.17,0,6.25,0,.38,0,.75,0,1.13a1.06,1.06,0,0,0,.56.86,2.26,2.26,0,0,0,2.74.2,1.34,1.34,0,0,0,.74-1.15c0-.5,0-1,0-1.5,0-1.41,0-2.83,0-4.24,0-.52-.08-1-.09-1.57s.07-.75.72-.82a7.3,7.3,0,0,1,1.55,0c.58.06.73.26.75.86s0,1,0,1.43c0,1.2,0,2.39,0,3.59,0,.83-.05,1.67-.1,2.5a2,2,0,0,1-.18.62c-.09.22-.24.42-.31.64-.52,1.62-1.87,2-3.31,2.17a12.53,12.53,0,0,1-2.29,0,3.75,3.75,0,0,1-2.21-1.11,3.51,3.51,0,0,1-1.35-2.94c.06-1.08,0-2.16,0-3.24Z" fill="#706f6f"/><path d="M122.32,64.54V59.67c0-.85.08-.94,1-.94a4.05,4.05,0,0,1,.92.1c.61.14.81.4.76,1s-.17,1.13-.23,1.7a3.62,3.62,0,0,0,0,.93.48.48,0,0,0,.78.39,2.1,2.1,0,0,0,.76-.62,8.92,8.92,0,0,1,1.48-1.65,7.1,7.1,0,0,0,1-1.13,1.46,1.46,0,0,1,1.21-.65c.53,0,1-.07,1.57-.09.32,0,.65,0,.77.39s-.07.59-.32.81l-2.38,2.16a4.08,4.08,0,0,0-.36.36c-.73.84-.73.94-.24,1.86.88,1.62,2.07,3,3.06,4.57a3.45,3.45,0,0,1,.49,1.09.52.52,0,0,1-.54.68,17.84,17.84,0,0,1-1.79-.06,1,1,0,0,1-.79-.56c-.18-.36-.37-.72-.58-1.07-.34-.57-.71-1.13-1.06-1.7-.19-.32-.39-.65-.56-1-.37-.74-.92-.86-1.61-.19a2.57,2.57,0,0,0-.75,2.36,3.56,3.56,0,0,1,0,1.34,1.42,1.42,0,0,1-2.18.64,1.14,1.14,0,0,1-.29-.93Z" fill="#706f6f"/><path d="M72.85,58.82c.53,0,1.05,0,1.58,0a1.64,1.64,0,0,1,1.18.43c.5.44,1,.87,1.53,1.3a1.19,1.19,0,0,1,.38,1.23c-.09.49-.48.69-.92.8a2,2,0,0,1-1.85-.7,2.22,2.22,0,0,1-.37-.44,1.59,1.59,0,0,0-1.41-.7,2.57,2.57,0,0,0-2.74,2.35,10.24,10.24,0,0,0,.13,3.62,1.64,1.64,0,0,0,.81,1.21l.12.07a2.3,2.3,0,0,0,3.28-.52,9.91,9.91,0,0,0,.68-1c.42-.65.63-.71,1.29-.35a5.79,5.79,0,0,1,.65.45,1.12,1.12,0,0,1,.2,1.55A7.68,7.68,0,0,1,75.54,70a4.55,4.55,0,0,1-2.38.67,6.34,6.34,0,0,1-1.64-.08,4.56,4.56,0,0,1-2.89-2c-.27-.45-.58-.88-.82-1.34a2.62,2.62,0,0,1-.33-1c0-1,0-2.1,0-3.16a1.65,1.65,0,0,1,.35-1.06,4.81,4.81,0,0,0,.56-.92A4.13,4.13,0,0,1,70,59.29a2.6,2.6,0,0,1,1.12-.4,14.06,14.06,0,0,1,1.72,0Z" fill="#706f6f"/><path d="M81.56,67.52c0,.43,0,.86,0,1.29a4.79,4.79,0,0,1,0,1,.92.92,0,0,1-1,.85c-.68,0-1.06-.17-1.16-.8a14.65,14.65,0,0,1-.06-2c0-.29.06-.57.06-.85,0-1.37,0-2.73,0-4.09,0-1-.08-1.91-.12-2.86a3.41,3.41,0,0,1,0-.64.77.77,0,0,1,.19-.45,1.61,1.61,0,0,1,1.5-.21.77.77,0,0,1,.59.81c0,.48,0,1-.07,1.43,0,.28-.1.56-.12.85a.65.65,0,0,0,.3.67.52.52,0,0,0,.71-.16c.55-.8,1.34-.67,2.13-.66A2.69,2.69,0,0,1,87,63.47a2,2,0,0,1,.16,1,15.73,15.73,0,0,0,.12,4.28,2,2,0,0,1,0,.78,1.34,1.34,0,0,1-2.64-.23c0-1.22.08-2.44.08-3.66a4.11,4.11,0,0,0-.22-1.25,1.06,1.06,0,0,0-1.9-.37c-.25.32-.55.6-.77.94a1.88,1.88,0,0,0-.25.8c0,.57,0,1.14,0,1.72Z" fill="#706f6f"/><path d="M38.55,66.39c.26,1.39-.68,2.33-1.4,3.36a.69.69,0,0,1-.23.17,5.13,5.13,0,0,1-6-.47,2.29,2.29,0,0,1-.65-1,7.47,7.47,0,0,1-.41-1.74,7.34,7.34,0,0,1,.09-1.55c0-.17.13-.32.14-.48a3.19,3.19,0,0,1,2.44-2.63,4.35,4.35,0,0,1,4.3.47A4,4,0,0,1,38.55,66.39ZM34.42,68.5a.93.93,0,0,0,.36-.08A2.81,2.81,0,0,0,35.88,66a8.45,8.45,0,0,0-.63-1.6,1.07,1.07,0,0,0-1.7-.36,2.64,2.64,0,0,0-1,3.23A2.34,2.34,0,0,0,34.42,68.5Z" fill="#706f6f"/><path d="M206.8,67c-.5,0-1,0-1.5,0-.3,0-.6,0-.73.32a.72.72,0,0,0,.23.78,1.59,1.59,0,0,0,2.44,0,1.54,1.54,0,0,1,2-.48.85.85,0,0,1,.3,1.33,5,5,0,0,1-.88.83,4.47,4.47,0,0,1-3.8.8,3.55,3.55,0,0,1-2.34-1.76c-.14-.22-.18-.5-.33-.72-1-1.53-.35-3,.21-4.43a3.71,3.71,0,0,1,3.59-2,4.1,4.1,0,0,1,3.72,2.84c.09.32.24.63.33,1a1,1,0,0,1-.91,1.44c-.78.11-1.57.14-2.35.21Zm-1-1.74v0a4.8,4.8,0,0,0,.85,0,.6.6,0,0,0,.44-1,1.17,1.17,0,0,0-1.12-.63,1.4,1.4,0,0,0-1.25.71.56.56,0,0,0,.43.86A4.7,4.7,0,0,0,205.82,65.28Z" fill="#706f6f"/><path d="M56.93,66.2A8.66,8.66,0,0,0,57,69.49a2.05,2.05,0,0,1,.06.49c0,.45-.22.67-.67.67a1.69,1.69,0,0,1-.76-.17,2.61,2.61,0,0,0-2.33,0,3.17,3.17,0,0,1-3.07-.34,2.26,2.26,0,0,1-.88-2.4A1.78,1.78,0,0,1,51,65.85l2.6-.81.13,0c.52-.2.78-.5.71-.86a1,1,0,0,0-.93-.67,1.28,1.28,0,0,0-1.19.53,1.93,1.93,0,0,1-1.93.63.85.85,0,0,1-.79-.62.86.86,0,0,1,.26-.92,4,4,0,0,1,2.63-1.32,18.9,18.9,0,0,1,2.71.11,1.62,1.62,0,0,1,1.52,1.41C56.83,64.25,56.85,65.23,56.93,66.2Zm-4.11,2.44a1.61,1.61,0,0,0,1.53-.94c.18-.49-.09-1-.57-.91a2.48,2.48,0,0,0-1.6.71.57.57,0,0,0,.15,1A2,2,0,0,0,52.82,68.64Z" fill="#706f6f"/><path d="M18.44,66.51c.09,1.1.16,2.19.26,3.28.05.65-.07.8-.74.85a1.81,1.81,0,0,1-1.28-.36,1.08,1.08,0,0,0-1.27,0,3.41,3.41,0,0,1-3.54-.15,1.65,1.65,0,0,1-.8-1.14,4.2,4.2,0,0,1,.21-2.38.88.88,0,0,1,.83-.69,6,6,0,0,0,2.05-.59A9.28,9.28,0,0,1,15.25,65a3.05,3.05,0,0,0,.53-.2.56.56,0,0,0,0-1,1.54,1.54,0,0,0-1.86.12c-.18.16-.35.34-.52.51a1.54,1.54,0,0,1-1.92.07,1,1,0,0,1,.06-1.5A4.83,4.83,0,0,1,15,61.7l1.5.15a2.33,2.33,0,0,1,2,2.22c0,.81,0,1.63,0,2.44Zm-4,2.14a1.64,1.64,0,0,0,1.66-1.23c0-.46-.2-.7-.64-.61a13.14,13.14,0,0,0-1.36.39.79.79,0,0,0-.44.33,1,1,0,0,0-.06.66A.75.75,0,0,0,14.46,68.65Z" fill="#706f6f"/><path d="M187.29,66.75V69c0,1.35-.49,1.79-2,1.61a.94.94,0,0,1-.85-.92,11,11,0,0,1,0-1.15c0-1.2,0-2.39,0-3.59,0-.54-.12-1.09-.72-1.28a1.23,1.23,0,0,0-1.36.57,2.43,2.43,0,0,0-.65,1.76c0,.91.08,1.81.09,2.72a6.1,6.1,0,0,1-.11,1.13,1,1,0,0,1-1,.83,1.24,1.24,0,0,1-1.36-.7,2.61,2.61,0,0,1-.16-.91c0-1.58.06-3.15.07-4.73,0-.5-.09-1-.08-1.5a1,1,0,0,1,1.46-1,2.8,2.8,0,0,1,.81.45.68.68,0,0,0,.92,0,3.52,3.52,0,0,1,3-.46,2.75,2.75,0,0,1,2,2.51c0,.82,0,1.63,0,2.44Z" fill="#706f6f"/><path d="M93.73,67H92.22c-.36,0-.75,0-1,.35s.06.71.48,1a1.31,1.31,0,0,0,1.93-.17,2.54,2.54,0,0,1,1.51-.73,1,1,0,0,1,1.09.51.83.83,0,0,1-.2,1,4,4,0,0,1-3.34,1.64A5,5,0,0,1,90,69.92a3.67,3.67,0,0,1-1.35-2.22,5.08,5.08,0,0,1,.58-4.27,4,4,0,0,1,7.14,1.33,5.47,5.47,0,0,1,.14,1.14,1.05,1.05,0,0,1-1.17,1.15c-.54,0-1.09,0-1.64,0Zm-1-1.68v0a5.77,5.77,0,0,0,.72,0c.41-.06.57-.36.35-.71a2.67,2.67,0,0,0-.57-.64,1.18,1.18,0,0,0-1.82.53c-.13.33-.06.58.27.69A7.58,7.58,0,0,0,92.75,65.34Z" fill="#706f6f"/><path d="M143.52,66.09c0-.89-.09-1.77-.13-2.65a1.61,1.61,0,0,1,0-.22c-.08-1.33.72-1.72,1.84-1.16a1.81,1.81,0,0,0,1.68,0,3.43,3.43,0,0,1,3.66.33,2,2,0,0,1,.86,2,28.61,28.61,0,0,0,0,4.72,5.79,5.79,0,0,1,0,.72.89.89,0,0,1-.94.81,3.19,3.19,0,0,1-.92-.12,1.15,1.15,0,0,1-1-1.21,4.1,4.1,0,0,1,0-.5c0-1.15.09-2.29.09-3.44a3.6,3.6,0,0,0-.17-1.13.83.83,0,0,0-1.27-.5,1.5,1.5,0,0,0-1,1.24c-.06,1.08-.06,2.15-.08,3.22,0,.38.07.77.05,1.15a1.42,1.42,0,0,1-2.82,0,5.61,5.61,0,0,1,0-.58C143.43,67.85,143.48,67,143.52,66.09Z" fill="#706f6f"/><path d="M141.47,65.64c.05,1.15.1,2.29.13,3.44a3.7,3.7,0,0,1-.14,1,1,1,0,0,1-1.31.54,1.64,1.64,0,0,1-.51-.26,1.17,1.17,0,0,0-1.46-.06,3.19,3.19,0,0,1-3.1,0,2,2,0,0,1-1-1.1,6.85,6.85,0,0,1-.54-3.35,21.8,21.8,0,0,0,0-2.8c0-.93.26-1.26,1.2-1.29h.36c.92,0,1.31.42,1.3,1.34,0,1.34-.06,2.68-.09,4,0,.15,0,.29,0,.43a.93.93,0,0,0,.52,1,1.29,1.29,0,0,0,1.41-.19,2.12,2.12,0,0,0,.79-1.63c0-1.25,0-2.49-.08-3.73,0-.59.1-.91.65-1.13a2.46,2.46,0,0,1,.76-.16c.77,0,1.12.3,1.13,1.06,0,.95,0,1.91,0,2.87Z" fill="#706f6f"/><path d="M45.34,67.05c0-.69,0-1.39,0-2.08a2.38,2.38,0,0,0-.18-.83.92.92,0,0,0-.88-.52,2.1,2.1,0,0,0-1.64,1.24,9.15,9.15,0,0,0-.13,1.48,2.36,2.36,0,0,0,0,.28c0,.91,0,1.81,0,2.71,0,.48,0,1-.54,1.23a1.48,1.48,0,0,1-1.62-.26,1.56,1.56,0,0,1-.4-.8,3,3,0,0,1,0-.79c.05-1.16.12-2.33.12-3.5,0-.76-.11-1.53-.12-2.29a1.11,1.11,0,0,1,1.42-1.14,3.37,3.37,0,0,1,.87.32,1.07,1.07,0,0,0,1.14,0,3.37,3.37,0,0,1,2.78-.16,2.5,2.5,0,0,1,1.71,2A11.7,11.7,0,0,1,48,67c0,.44,0,.89,0,1.34v.86a1.4,1.4,0,0,1-1.89,1.46.92.92,0,0,1-.73-.71,3.53,3.53,0,0,1-.1-.85c0-.67,0-1.34,0-2Z" fill="#706f6f"/><path d="M220.84,61.68a4.78,4.78,0,0,1,3.06.84,1.42,1.42,0,0,1,.63.91.9.9,0,0,1-.59,1,3,3,0,0,1-.83.21.7.7,0,0,1-.69-.43,1.73,1.73,0,0,0-2-.79.8.8,0,0,0-.74.66c0,.32.18.52.65.65l.14,0a7.88,7.88,0,0,1,3.24,1A2.93,2.93,0,0,1,224.91,67c.39.59.17,1.1-.09,1.68a3.38,3.38,0,0,1-3.37,2,8.33,8.33,0,0,1-1.5-.05,3.85,3.85,0,0,1-1.14-.39,7.37,7.37,0,0,1-1.22-.77,1.43,1.43,0,0,1-.57-1.38,1.38,1.38,0,0,1,1.46-.5,3.56,3.56,0,0,1,1.11.61,2.58,2.58,0,0,0,1.86.62c.14,0,.32,0,.41-.08s.44-.37.46-.58-.19-.46-.37-.63a1,1,0,0,0-.53-.18c-.61-.11-1.23-.18-1.84-.31a2.46,2.46,0,0,1-.79-.31,10.66,10.66,0,0,1-1.16-1,1,1,0,0,1-.36-.6c0-.61.08-1.23.13-1.84a.12.12,0,0,1,0-.07c.65-.62,1.19-1.4,2.2-1.49C220,61.71,220.43,61.7,220.84,61.68Z" fill="#706f6f"/><path d="M103.36,67.22c0-.68,0-1.35,0-2s-.08-1.18-.69-1.47-1.09.12-1.55.45a1.47,1.47,0,0,0-.64,1.29c0,1.3,0,2.59,0,3.88a2.82,2.82,0,0,1,0,.58.84.84,0,0,1-.55.69,1.52,1.52,0,0,1-2-1.57,30.27,30.27,0,0,0,0-5.79,2.9,2.9,0,0,1,0-.51.81.81,0,0,1,.9-.89,2,2,0,0,1,1,.18,1.77,1.77,0,0,0,1.82,0,3.17,3.17,0,0,1,3.63.71,1.78,1.78,0,0,1,.52,1.29c0,.86,0,1.73,0,2.59,0,.67.07,1.33.11,2,0,.28,0,.57,0,.86a1.22,1.22,0,0,1-1.1,1.21c-1,.14-1.5-.26-1.53-1.28,0-.72,0-1.44,0-2.16Z" fill="#706f6f"/><path d="M193.63,61.75h.43c.91.09,1.2.37,1.41,1.25.12.51.32,1,.47,1.5a13.2,13.2,0,0,1,.37,1.37c.12.62.26.91.55.89.5,0,.56-.45.67-.81.26-.87.52-1.74.75-2.61a1.93,1.93,0,0,1,1.77-1.61,1.72,1.72,0,0,1,.64.05.66.66,0,0,1,.48,1c-.44.73-.48,1.61-.85,2.33a20,20,0,0,0-1.15,2.75,19.6,19.6,0,0,1-1,2.14,1.09,1.09,0,0,1-.24.35,1.71,1.71,0,0,1-2.5-.75,22.12,22.12,0,0,0-1.75-4.28c-.12-.28-.24-.57-.34-.86-.19-.52-.36-1-.54-1.55l-.09-.2c-.26-.69,0-1,.69-1l.21,0Z" fill="#706f6f"/><path d="M23,70.66a2.68,2.68,0,0,1-1.59-.38,1.82,1.82,0,0,1-1-1.69c0-1.18,0-2.35.06-3.52a1.5,1.5,0,0,0-.5-1.35,2,2,0,0,1-.39-.51.79.79,0,0,1,.21-1.14,2,2,0,0,0,.83-1.29c.18-1,.91-1.3,1.71-1.52.49-.14.74.09.71.59,0,.26-.1.51-.13.77-.08.66.05.87.67,1.08l.27.07a1,1,0,0,1,.73.89A1.08,1.08,0,0,1,24,63.8c-.16.09-.35.14-.53.22-.47.19-.57.36-.57.87,0,.71,0,1.42,0,2.13a1.24,1.24,0,0,0,.73,1.28,3.54,3.54,0,0,1,.67.41,1.08,1.08,0,0,1,.38,1.22,1,1,0,0,1-1,.73C23.43,70.67,23.24,70.66,23,70.66Z" fill="#706f6f"/><path d="M132.22,26.73c-.29.17-.55.34-.83.48a1.16,1.16,0,0,1-1.7-.64,14.15,14.15,0,0,1-.29-1.47c-.11-.43-.24-.86-.36-1.3s-.27-.86-.35-1.3c-.24-1.36-.46-2.72-.68-4.08a12.83,12.83,0,0,1-.16-1.64,4.55,4.55,0,0,0-.32-2,1.6,1.6,0,0,1,0-1.32.9.9,0,0,1,.94-.63.89.89,0,0,1,.93.63,11.34,11.34,0,0,0,.73,1.38,3.39,3.39,0,0,1,.48,2.26c0,.35-.07.71-.1,1.07a1.92,1.92,0,0,0,.38,1.35,1.8,1.8,0,0,1,.36,1.42,5.52,5.52,0,0,0,.05,1,15.32,15.32,0,0,1,0,2.14,2.07,2.07,0,0,0,.75,2.15C132.2,26.33,132.19,26.58,132.22,26.73Z" fill="#706f6f"/><path d="M61.47,64.59c0,1.48,0,3,0,4.44,0,.19,0,.38,0,.58-.07.86-.39,1.13-1.25,1a1.48,1.48,0,0,1-1.43-1.78c0-.49.08-1,.09-1.49v-6c0-.43,0-.86-.09-1.28-.09-.85.11-1.12.94-1.26a5.16,5.16,0,0,1,.78-.08c.74,0,1,.26,1,1,0,1.48,0,3,0,4.44v.43Z" fill="#706f6f"/><path d="M147.73,30.73c.12.4.26.73.33,1.08.12.54-.09.81-.63.89a1.33,1.33,0,0,1-.28,0A1.49,1.49,0,0,0,145.69,34a4.83,4.83,0,0,1-1.23,2.07,9.9,9.9,0,0,0-1,1.39c0,.08-.08.17-.13.26-.27.53-.66.8-1,.67a1.07,1.07,0,0,1-.28-1.24,3.27,3.27,0,0,1,.65-.92A6.15,6.15,0,0,0,144,34.13a.9.9,0,0,0,.08-.28c.07-.49-.23-.75-.69-.55s-.93.5-1.4.72c-.68.31-1.36.6-2.05.87a2.28,2.28,0,0,1-.7.11.7.7,0,0,1-.53-1.21,1.57,1.57,0,0,1,.64-.44,5.85,5.85,0,0,0,2.49-2,2.88,2.88,0,0,1,.27-.34c.5-.49.65-.48,1.33-.23a3.5,3.5,0,0,0,1.24.19c.88-.05,1.75-.19,2.63-.28A3.43,3.43,0,0,1,147.73,30.73Z" fill="#706f6f"/><path d="M213.61,68.56a7.85,7.85,0,0,1,0,1c-.1.9-.51,1.21-1.39,1.14-.53,0-1-.42-1-1.34,0-1.08.18-2.14.19-3.21,0-.88-.12-1.76-.18-2.64a4.68,4.68,0,0,1,0-.64,1,1,0,0,1,1.59-1,1.64,1.64,0,0,1,.42.26c.54.48.7.34,1.12,0a2.21,2.21,0,0,1,1.7-.39.81.81,0,0,1,.63,1.38l-.39.52a1,1,0,0,1-1,.38.79.79,0,0,0-.91.54c-.06.15-.13.3-.18.46A10.59,10.59,0,0,0,213.61,68.56Z" fill="#706f6f"/><path d="M120.3,34.53a5.27,5.27,0,0,1,.63-2.11c.24-.49.43-1,.63-1.51s.48-1.2.64-1.82a8.85,8.85,0,0,0,.15-1.55c0-.38,0-.76,0-1.15a.49.49,0,0,1,.45-.55.75.75,0,0,1,.59.29,18.22,18.22,0,0,1,1.09,2.63,4.08,4.08,0,0,1,.09,2.4,1.58,1.58,0,0,0,.09.7,1.31,1.31,0,0,1-.4,1.37c-.8.71-1.63,1.39-2.45,2.09l-.11.08c-.28.19-.57.38-.93.19a.9.9,0,0,1-.44-.84Z" fill="#706f6f"/><path d="M229.29,65.91c.05.9.11,1.81.13,2.72a8.09,8.09,0,0,1-.1,1.2.64.64,0,0,1-.13.33,1.49,1.49,0,0,1-1.64.4c-.69-.13-1-.42-1.08-1a1.4,1.4,0,0,1,0-.5,34.43,34.43,0,0,0,.08-4.87c0-.45-.08-.9-.08-1.35a.72.72,0,0,1,.63-.83,5.36,5.36,0,0,1,1.13-.13.87.87,0,0,1,1,.93c.08,1,.14,2,.21,3.07Z" fill="#706f6f"/><path d="M25.77,66.05c0-1.08,0-2.16,0-3.23,0-.56.19-.77.74-.88a2,2,0,0,1,.64,0c.92.06,1.24.45,1.19,1.41s-.11,2.09-.12,3.14c0,.72.07,1.43.1,2.14a5.76,5.76,0,0,1,0,.93A1.17,1.17,0,0,1,27,70.61a1.1,1.1,0,0,1-1.22-1.12c-.05-1,0-2.06,0-3.09v-.35Z" fill="#706f6f"/><path d="M191.47,66.32V69a5.42,5.42,0,0,1,0,.57c-.06.7-.31,1-.85,1-.84.06-1.24-.17-1.38-.9a8.74,8.74,0,0,1-.06-1.36c0-.57,0-1.13,0-1.7,0-1.27,0-2.54,0-3.81a.92.92,0,0,1,1-1c.76,0,1.17.26,1.26,1,0,.33,0,.67.05,1Z" fill="#706f6f"/><path d="M138.31,14a8.11,8.11,0,0,0,.8-.22c.17-.06.33-.2.5-.26a.49.49,0,0,1,.7.3,1,1,0,0,1,.13.54,5.82,5.82,0,0,0,.06,1.91,1.23,1.23,0,0,1,0,.43,4.3,4.3,0,0,0,.17,2.53,1.38,1.38,0,0,1-.67,1.44.8.8,0,0,1-1.05-.36,2.25,2.25,0,0,1-.18-1,7.49,7.49,0,0,0-.08-1.7,2,2,0,0,1,.14-1.1,3.11,3.11,0,0,0-.14-2.15C138.64,14.21,138.43,14.1,138.31,14Z" fill="#706f6f"/><path d="M227.93,58.78c.23,0,.46,0,.69,0,.62.09.85.37.86,1s-.21.94-.79,1a8,8,0,0,1-1.69-.14.82.82,0,0,1-.67-.89.83.83,0,0,1,.81-.91c.26,0,.52,0,.78-.06Z" fill="#706f6f"/><path d="M27,58.79l.6,0a.92.92,0,0,1,.88.88.94.94,0,0,1-.7,1,2.49,2.49,0,0,1-1.68-.08.85.85,0,0,1-.59-.95.9.9,0,0,1,.74-.85,1.36,1.36,0,0,1,.29,0Z" fill="#706f6f"/><path d="M190.38,58.73a1.1,1.1,0,0,1,1.17,1.44.57.57,0,0,1,0,.14c-.16.45-.68.66-1.4.56s-1-.39-1-.85C189.07,59.24,189.35,58.65,190.38,58.73Z" fill="#706f6f"/><path d="M143.51,15.94c0,1,0,1.94-.15,2.9a16,16,0,0,1-.55,2.14,3.58,3.58,0,0,0-.18.91c0,.77.44,1.06,1.17.82l.34-.1a2.27,2.27,0,0,1-.4.29.79.79,0,0,1-1.19-.59,3.43,3.43,0,0,1,0-1.06,5.73,5.73,0,0,1,.25-.9,10,10,0,0,0,.44-3A6.77,6.77,0,0,1,143.51,15.94Z" fill="#706f6f"/><path d="M146.93,24a.51.51,0,0,1-.56.5c-.24,0-.49-.06-.52-.37a.78.78,0,0,1,.59-.63A.49.49,0,0,1,146.93,24Z" fill="#706f6f"/><path d="M147,20c-.28,0-.57,0-.85,0-.69,0-1-.19-1.08-.88a3.4,3.4,0,0,1,.07-2c0,.66,0,1.32.1,2a.88.88,0,0,0,.94.8A7.4,7.4,0,0,1,147,20Z" fill="#706f6f"/><path d="M144.21,22.53a.92.92,0,0,1,1.13-.61,3.63,3.63,0,0,0,1.54,0,1.19,1.19,0,0,1-1.12.3A2,2,0,0,0,144.21,22.53Z" fill="#706f6f"/><path d="M147.25,21.32v-1A.91.91,0,0,1,147.25,21.32Z" fill="#706f6f"/><path d="M145,15.29h-.87A.71.71,0,0,1,145,15.29Z" fill="#706f6f"/><path d="M145.44,15.87l-.51-.6C145.32,15.28,145.32,15.63,145.44,15.87Z" fill="#706f6f"/><line x1="400.17" y1="1.86" x2="400.17" y2="74.07" fill="none" stroke="#000" stroke-miterlimit="10" stroke-width="3"/><path d="M442.57,21.87h-1.79v-6H428.47v7H426.7v-7H415.2v6h-1.84V14.19H426.7V11.6H414.64V10h26.78V11.6H428.47v2.59h14.1Zm1.07,13.83a5.33,5.33,0,0,1-1.1,3.06,4.36,4.36,0,0,1-3,1c-1.44.09-3.06.13-4.86.13-1.55,0-3,0-4.41-.11a4.42,4.42,0,0,1-2.8-.79,2.88,2.88,0,0,1-.72-2.18V34.26H415.51V24.19h24.35V34.26H428.6V37a.79.79,0,0,0,.31.67,6.49,6.49,0,0,0,2.24.35c1.29.09,2.73.13,4.31.13a30.76,30.76,0,0,0,4.83-.2,1.57,1.57,0,0,0,1-1,6.88,6.88,0,0,0,.42-2.15Zm-18.39-14a41.75,41.75,0,0,1-7.93,1.32l-.57-1.62a45.64,45.64,0,0,0,7.92-1.08Zm0-3.6-.58,1.52a48.32,48.32,0,0,0-7.68-1.1l.77-1.52A55.21,55.21,0,0,1,425.25,18.14Zm1.5,10.24V25.84h-9.4v2.54Zm0,4.21V30h-9.4v2.63ZM438,28.38V25.84h-9.4v2.54Zm0,4.21V30h-9.4v2.63Zm1.05-10.82-.81,1.48a48.66,48.66,0,0,0-8.3-1.38l.78-1.41A46.25,46.25,0,0,1,439.05,21.77Zm-.24-3.18a75.58,75.58,0,0,1-8,1l-.53-1.44a71.25,71.25,0,0,0,7.92-1.1Z"/><path d="M478.39,25.46H464.22V37.21a2.68,2.68,0,0,1-.8,2,2.9,2.9,0,0,1-2.12.78c-1.4,0-2.92,0-4.56-.07L456,38c2.67.07,4.49.1,5.46.1a.77.77,0,0,0,.6-.3,1,1,0,0,0,.24-.64V25.46H447.88V23.59h14.46V19a53.56,53.56,0,0,0,9.57-7.11H451.76V10h22.8v1.89A70,70,0,0,1,464.22,20v3.56h14.17Z"/><path d="M508.51,35h-14l.88,1.15a46.78,46.78,0,0,1-11.55,4L483,38.5A37.68,37.68,0,0,0,493.7,35h-5.47V22.11h20.28ZM493.06,18.78h-9.84V17h9.84Zm-.27-6.34h-8.87V10.76h8.87Zm13.9,13.33v-2H490.11v2Zm0,3.76V27.35H490.11v2.18Zm0,3.8V31.11H490.11v2.22Zm7.09-13.43L513,21.61q-6.75-1-10.52-4.1a16.38,16.38,0,0,1-8.05,4l-.95-1.68c4.32-.67,7.3-2.42,8.94-5.28l1.92.35a4.83,4.83,0,0,1-.81,1.37Q507.1,19.2,513.78,19.9ZM513,13.45a27.71,27.71,0,0,1-3.3,4l-1.34-1.27a28.55,28.55,0,0,0,2.56-3H498.1a18.16,18.16,0,0,1-3.22,3.16l-1.22-1.22a18.24,18.24,0,0,0,5.11-6.2l1.71.6-1.11,1.94H513Zm.54,25.14-.85,1.61a66.58,66.58,0,0,0-10.2-3l.87-1.58A63.61,63.61,0,0,1,513.58,38.59Z"/><path d="M524.28,28.32a91.66,91.66,0,0,1-4.86,11.18L518,38a85.45,85.45,0,0,0,4.6-10.77Zm.55-5.81-1.19,1.41a65.9,65.9,0,0,0-5.53-4.06l1.34-1.34A46.84,46.84,0,0,1,524.83,22.51Zm.67-8.39-1.38,1.34a42.05,42.05,0,0,0-5.65-4.33l1.41-1.37A57.06,57.06,0,0,1,525.5,14.12Zm23.36-2.18H540.6a30,30,0,0,1-1.07,3.7h7.75V27.82h-6.82v9.53a2.78,2.78,0,0,1-.68,1.81c-.45.54-1.49.82-3.11.82a17,17,0,0,1-1.81-.1l-.53-1.82a21.06,21.06,0,0,0,2.42.15,3,3,0,0,0,1.52-.22.65.65,0,0,0,.29-.54V27.82H532V15.64h5.53c.3-.84.65-2.07,1.05-3.7h-9.5V23.35A30.28,30.28,0,0,1,524.55,40L523,38.62a20.44,20.44,0,0,0,3-6.56A46.79,46.79,0,0,0,527.23,20V10.22h21.63Zm-13,19.3A41.48,41.48,0,0,1,529.9,38l-1.26-1.34a41.23,41.23,0,0,0,5.79-6.82Zm9.5-10.47v-3.4H533.88v3.4Zm0,5.36V22.51H533.88v3.62ZM549,36.72l-1.32,1.37a44.86,44.86,0,0,0-5-6.82L544.16,30A50.56,50.56,0,0,1,549,36.72Z"/><path d="M584.15,21.27l-1.08,1.62a69.37,69.37,0,0,0-13.49-5.95V22H580V34.36H557.45V22H567.8V15.12Q563.39,19.4,554.29,23l-1.23-1.62a36.56,36.56,0,0,0,13.29-7.21H553.43V12.41H567.8V9.06h1.78v3.35h14.36v1.75H569.58v1A78.61,78.61,0,0,1,584.15,21.27Zm0,17.87H553.36V37.39h30.76Zm-6-11.92V23.76H559.27v3.46Zm0,5.3V29H559.27v3.5Z"/><path d="M600.44,14.59H588.65V12.85h5.29l-1.56-3.26,1.77-.67,1.72,3.93h4.57Zm-1,5.13h-10V18h10Zm0,5.07h-10V23.06h10ZM599,39.1h-1.82V37.25h-5.57v2.66h-1.82V28.19H599Zm-1.82-3.62V30h-5.57v5.52Zm21.35-21.66q0,6.66-.2,13.88t-.42,8.49a4.57,4.57,0,0,1-1,2.2A3.82,3.82,0,0,1,615,39.63a12.35,12.35,0,0,1-3.09.32H610l-.62-1.86c.68,0,1.44,0,2.27,0A7.51,7.51,0,0,0,615,37.7a2.38,2.38,0,0,0,.91-1.11,51.8,51.8,0,0,0,.57-7.43q.28-6.73.29-13.63h-11a41.65,41.65,0,0,1-2.74,3.9h9.57V34.16H602.7V19.83a14.12,14.12,0,0,1-1.27,1.58L600,20.32A40.77,40.77,0,0,0,607,8.92l1.7.57a25.77,25.77,0,0,1-2,4.33Zm-7.73,11.75V21.2h-6.27v4.37Zm0,6.78v-5h-6.27v5Z"/><path d="M634.85,32.35a32.06,32.06,0,0,1-10,5.5l-1.17-1.56q6.84-2.53,9.71-5.14Zm18.59-2.71-1.58,1.06A29.74,29.74,0,0,0,649.78,28q-6.84.72-9.47.95v8.92a1.8,1.8,0,0,1-.51,1.3,2.25,2.25,0,0,1-1.15.67,13.37,13.37,0,0,1-2.36.14c-.64,0-1.23,0-1.78,0L633.73,38c.66,0,1.34,0,2,0A17.59,17.59,0,0,0,638,38c.28-.06.41-.33.41-.81V29.09q-7.73.48-11.64.62l-.55-1.55a98.58,98.58,0,0,0,12.66-5.65c-4.07.24-7.69.4-10.88.48l-.46-1.29a37.79,37.79,0,0,0,12.75-7.29l1.75,1a40.34,40.34,0,0,1-8.76,5.67l3.29-.15c1.05-.05,2.07-.12,3.08-.2a14.93,14.93,0,0,0,3.22-.43,50.65,50.65,0,0,0,4.38-3.07l1.63,1.13q-5.65,4.35-17,9.4,8.52-.32,16.48-1.34a29.57,29.57,0,0,0-2.68-2.56l1.58-1.06A39.51,39.51,0,0,1,653.44,29.64ZM642.7,10q-4.92,4.44-14.77,7l-1.41-1.61q9.81-2.13,14.6-6.44Zm11.61,26.39-1.2,1.51a40.71,40.71,0,0,0-8.86-5.5l1.2-1.48A45.16,45.16,0,0,1,654.31,36.41Z"/><path d="M662.71,31.58a34.68,34.68,0,0,1-2.13,8.26l-1.66-.6A33.26,33.26,0,0,0,661,31.15Zm8.49-2.18-1.61.56a15.92,15.92,0,0,0-.57-2,92.61,92.61,0,0,1-9.29,2.42l-.52-1.61a55.25,55.25,0,0,0,6.92-8.7c-1.85.39-3.93.74-6.22,1l-.46-1.67a36.94,36.94,0,0,0,5.81-10.34l1.65.6a35.91,35.91,0,0,1-5.14,9.43,43.7,43.7,0,0,0,5.53-1,20.43,20.43,0,0,0,1.41-2.64l1.62.7A54.2,54.2,0,0,1,662.27,28a45.39,45.39,0,0,0,6.18-1.75q-.36-1-.87-2.19l1.58-.67A31.76,31.76,0,0,1,671.2,29.4Zm-4.16,9-1.78.37a26.34,26.34,0,0,0-1.14-7.19l1.77-.27A44.06,44.06,0,0,1,667,38.36Zm4-2.78-1.65.53a32,32,0,0,0-1.4-5l1.61-.48A29.49,29.49,0,0,1,671.06,35.58Zm18.4-20.68H678.69A44.19,44.19,0,0,1,674,22.82a94.76,94.76,0,0,0,11-1.17,31.18,31.18,0,0,0-2.61-3.27l1.54-1a44.78,44.78,0,0,1,5.17,7.35l-1.47,1.08A19.2,19.2,0,0,0,686,23.21l-3.26.52V36.85a.7.7,0,0,0,.8.78h2.5a1.09,1.09,0,0,0,.8-.31,4.88,4.88,0,0,0,.53-2.15c.14-1.23.22-2.61.25-4.16l1.77.64a23.3,23.3,0,0,1-.54,5.42,2.94,2.94,0,0,1-1.31,1.9,7.07,7.07,0,0,1-2.93.44,5.67,5.67,0,0,1-2.87-.5A2.06,2.06,0,0,1,681,37V24c-2,.23-3.16.34-3.63.34q0,10.6-6.54,15.66l-1.22-1.26a15.53,15.53,0,0,0,4.4-5.54,20.8,20.8,0,0,0,1.58-8.68c-.59.09-1.88.16-3.87.22l-.4-1.6a29.24,29.24,0,0,0,5.47-8.19h-6V13.18h6.77c.4-.91.95-2.29,1.64-4.16l1.72.53c-.59,1.63-1.09,2.84-1.47,3.63h10Z"/><path d="M442.72,67h-9.54V48.81h9.13v1.82h-7.14v6.18h6.6v1.83h-6.6v6.49h7.55Z"/><path d="M452.57,60.5h-6.9V58.94h6.9Z"/><path d="M469.46,67h-2.39L464,61.85a6.49,6.49,0,0,0-1.77-2.15,3.37,3.37,0,0,0-1.86-.51H458.6V67h-2V48.81H462a5.81,5.81,0,0,1,4,1.28,4.43,4.43,0,0,1,1.48,3.54q0,3.76-4,4.89v0a3.59,3.59,0,0,1,1.23.85,14.66,14.66,0,0,1,1.46,2.09ZM458.6,50.66v6.68h3a3.85,3.85,0,0,0,2.7-1,3.35,3.35,0,0,0,1-2.57,2.91,2.91,0,0,0-.95-2.31,4,4,0,0,0-2.76-.83Z"/><path d="M481.34,61h-9.18a5,5,0,0,0,1.18,3.43,4,4,0,0,0,3.08,1.2,6.35,6.35,0,0,0,4-1.47V66a7.37,7.37,0,0,1-4.5,1.26,5.42,5.42,0,0,1-4.27-1.77,7.29,7.29,0,0,1-1.56-5,7.1,7.1,0,0,1,1.69-4.88,5.4,5.4,0,0,1,4.24-1.94A4.85,4.85,0,0,1,480,55.33a6.86,6.86,0,0,1,1.39,4.57Zm-2-1.72a4.31,4.31,0,0,0-.88-2.85,3,3,0,0,0-2.43-1,3.52,3.52,0,0,0-2.49,1,4.81,4.81,0,0,0-1.35,2.84Z"/><path d="M483.72,64.32a6.14,6.14,0,0,0,3.73,1.25q2.76,0,2.76-1.86a1.66,1.66,0,0,0-.6-1.33,8.65,8.65,0,0,0-2.37-1.19,7,7,0,0,1-2.8-1.67,3.24,3.24,0,0,1-.69-2.1,3.19,3.19,0,0,1,1.42-2.7,5.85,5.85,0,0,1,3.5-1,7.19,7.19,0,0,1,3,.59v2a5.82,5.82,0,0,0-3.29-.94,3.11,3.11,0,0,0-1.87.52,1.58,1.58,0,0,0-.72,1.35,1.63,1.63,0,0,0,.5,1.29,8.7,8.7,0,0,0,2.24,1.16,7.7,7.7,0,0,1,3,1.71,3.06,3.06,0,0,1,.76,2.11,3.17,3.17,0,0,1-1.42,2.74,6.19,6.19,0,0,1-3.65,1,7.11,7.11,0,0,1-3.44-.78Z"/><path d="M494.6,60.64a7.13,7.13,0,0,1,1.76-5.09,6.31,6.31,0,0,1,4.8-1.86,5.72,5.72,0,0,1,4.48,1.8,7.1,7.1,0,0,1,1.63,4.95,7,7,0,0,1-1.76,5,6.08,6.08,0,0,1-4.65,1.87,6,6,0,0,1-4.53-1.8A6.66,6.66,0,0,1,494.6,60.64Zm2-.08a5.39,5.39,0,0,0,1.2,3.67A4.06,4.06,0,0,0,501,65.6a3.87,3.87,0,0,0,3.15-1.34,5.65,5.65,0,0,0,1.12-3.75,5.86,5.86,0,0,0-1.1-3.81A3.87,3.87,0,0,0,501,55.36a4,4,0,0,0-3.22,1.38A5.71,5.71,0,0,0,496.59,60.56Z"/><path d="M521,67h-2v-2h0a4.23,4.23,0,0,1-4,2.35c-3.1,0-4.64-1.84-4.64-5.52V54h1.93v7.41q0,4.19,3.19,4.19A3.21,3.21,0,0,0,518,64.44a4.4,4.4,0,0,0,1-3V54h2Z"/><path d="M531.87,56a2.51,2.51,0,0,0-1.55-.41,2.65,2.65,0,0,0-2.26,1.31,6,6,0,0,0-.88,3.42V67h-2V54h2v2.68h.05a4.48,4.48,0,0,1,1.36-2.14,3.08,3.08,0,0,1,2-.77,3.4,3.4,0,0,1,1.26.18Z"/><path d="M542.59,66.35a6.66,6.66,0,0,1-3.52.91,5.82,5.82,0,0,1-4.45-1.8,6.55,6.55,0,0,1-1.69-4.68,7.16,7.16,0,0,1,1.83-5.15,6.38,6.38,0,0,1,4.86-1.94,6.84,6.84,0,0,1,3,.63v2.06a5.3,5.3,0,0,0-3.11-1,4.21,4.21,0,0,0-3.28,1.43,5.46,5.46,0,0,0-1.3,3.82,5.22,5.22,0,0,0,1.21,3.65,4.16,4.16,0,0,0,3.24,1.34,5.22,5.22,0,0,0,3.22-1.14Z"/><path d="M556.09,61H546.9a5,5,0,0,0,1.18,3.43,4,4,0,0,0,3.08,1.2,6.39,6.39,0,0,0,4.05-1.47V66a7.41,7.41,0,0,1-4.5,1.26,5.39,5.39,0,0,1-4.27-1.77,7.24,7.24,0,0,1-1.57-5,7.15,7.15,0,0,1,1.69-4.88,5.42,5.42,0,0,1,4.24-1.94,4.85,4.85,0,0,1,3.89,1.64,6.86,6.86,0,0,1,1.4,4.57Zm-2-1.72a4.31,4.31,0,0,0-.88-2.85,3,3,0,0,0-2.42-1,3.53,3.53,0,0,0-2.5,1,4.81,4.81,0,0,0-1.35,2.84Z"/><path d="M558.46,64.32a6.14,6.14,0,0,0,3.73,1.25c1.84,0,2.77-.62,2.77-1.86a1.64,1.64,0,0,0-.61-1.33A8.65,8.65,0,0,0,562,61.19a7,7,0,0,1-2.8-1.67,3.24,3.24,0,0,1-.69-2.1,3.19,3.19,0,0,1,1.42-2.7,5.87,5.87,0,0,1,3.5-1,7.27,7.27,0,0,1,3,.59v2a5.85,5.85,0,0,0-3.3-.94,3.11,3.11,0,0,0-1.87.52,1.58,1.58,0,0,0-.72,1.35,1.63,1.63,0,0,0,.5,1.29,8.64,8.64,0,0,0,2.25,1.16,7.86,7.86,0,0,1,3,1.71,3.1,3.1,0,0,1,.75,2.11,3.17,3.17,0,0,1-1.42,2.74,6.19,6.19,0,0,1-3.65,1,7.11,7.11,0,0,1-3.44-.78Z"/><path d="M590,65.72a12,12,0,0,1-6.05,1.54,8.2,8.2,0,0,1-6.24-2.52,9.26,9.26,0,0,1-2.39-6.62A9.47,9.47,0,0,1,578,51.21a9,9,0,0,1,6.72-2.71,11.12,11.12,0,0,1,5,1v2.27a9.48,9.48,0,0,0-5.21-1.4,6.6,6.6,0,0,0-5,2.12,7.73,7.73,0,0,0-2,5.51,7.84,7.84,0,0,0,1.82,5.47,6.38,6.38,0,0,0,5,2,7.63,7.63,0,0,0,3.76-.88V59.38h-4V57.55h6Z"/><path d="M594.25,54.92a7.91,7.91,0,0,1,4.37-1.23q4.51,0,4.52,4.8V67h-2v-2h-.07a4.34,4.34,0,0,1-4,2.34,4.26,4.26,0,0,1-3-1A3.54,3.54,0,0,1,593,63.52c0-2.39,1.42-3.8,4.26-4.2l3.92-.57q0-3.37-2.7-3.37A6.26,6.26,0,0,0,594.25,57ZM598,60.81a4.3,4.3,0,0,0-2.31.8A2.24,2.24,0,0,0,595,63.4a2,2,0,0,0,.69,1.58,2.73,2.73,0,0,0,1.83.61,3.36,3.36,0,0,0,2.59-1.12,3.94,3.94,0,0,0,1-2.77V60.38Z"/><path d="M613,66.83a3.84,3.84,0,0,1-1.89.41c-2.22,0-3.34-1.25-3.34-3.76v-7.8H605.5V54h2.25V50.81l2-.63V54H613v1.68H609.7v7.45a3.11,3.11,0,0,0,.44,1.88,1.79,1.79,0,0,0,1.49.56,2.08,2.08,0,0,0,1.35-.43Z"/><path d="M625.93,61h-9.19a5,5,0,0,0,1.19,3.43,4,4,0,0,0,3.08,1.2,6.35,6.35,0,0,0,4-1.47V66a7.37,7.37,0,0,1-4.5,1.26,5.41,5.41,0,0,1-4.27-1.77,7.29,7.29,0,0,1-1.57-5,7.11,7.11,0,0,1,1.7-4.88,5.4,5.4,0,0,1,4.23-1.94,4.82,4.82,0,0,1,3.89,1.64,6.86,6.86,0,0,1,1.4,4.57Zm-2-1.72a4.26,4.26,0,0,0-.88-2.85,3,3,0,0,0-2.42-1,3.49,3.49,0,0,0-2.49,1,4.7,4.7,0,0,0-1.35,2.84Z"/><path d="M645.29,54,641.4,67h-2l-2.72-9.39a5.7,5.7,0,0,1-.2-1.17h0a5.51,5.51,0,0,1-.27,1.15L633.19,67h-1.94l-3.94-13h2.05l2.75,9.83a6.27,6.27,0,0,1,.17,1.15h.09a6.25,6.25,0,0,1,.24-1.17l3-9.81h1.79l2.73,9.85a8,8,0,0,1,.18,1.15h.11a4.78,4.78,0,0,1,.21-1.15l2.7-9.85Z"/><path d="M648,54.92a7.89,7.89,0,0,1,4.37-1.23q4.51,0,4.51,4.8V67h-2v-2h-.07a4.72,4.72,0,0,1-7,1.32,3.54,3.54,0,0,1-1.11-2.72c0-2.39,1.43-3.8,4.27-4.2l3.91-.57q0-3.37-2.69-3.37A6.25,6.25,0,0,0,648,57Zm3.74,5.89a4.38,4.38,0,0,0-2.32.8,2.28,2.28,0,0,0-.65,1.79,2,2,0,0,0,.7,1.58,2.69,2.69,0,0,0,1.82.61,3.36,3.36,0,0,0,2.59-1.12,3.9,3.9,0,0,0,1-2.77V60.38Z"/><path d="M671,54l-6,15.1q-1.56,4-4.4,4a5,5,0,0,1-1.28-.15V71.13a4,4,0,0,0,1.2.21,2.55,2.55,0,0,0,2.36-1.9L664,66.93,658.92,54h2.17l3.57,10.11q.08.21.27.93H665a8.15,8.15,0,0,1,.25-.91L669,54Z"/></svg>