<?xml version="1.0" encoding="utf-8"?>
<!-- Generator: Adobe Illustrator 19.0.0, SVG Export Plug-In . SVG Version: 6.00 Build 0)  -->
<svg version="1.1" id="圖層_1" xmlns="http://www.w3.org/2000/svg" xmlns:xlink="http://www.w3.org/1999/xlink" x="0px" y="0px"
	 viewBox="0 0 213.2 59" style="enable-background:new 0 0 213.2 59;" xml:space="preserve">
<style type="text/css">
	.st0{fill:#00316C;}
	.st1{fill-rule:evenodd;clip-rule:evenodd;fill:#272C5D;}
	.st2{fill:#C30D23;}
</style>
<g id="XMLID_173_">
	<path id="XMLID_194_" class="st0" d="M67.8,23.8c-0.2,1.2-0.4,1.8-0.6,1.9c-0.6,0.2-1,0.2-1.4,0c-0.2-0.1-0.3-0.3-0.2-0.5
		c0.6-2.6,1.1-5.5,1.3-8.6c0-0.2,0.1-0.2,0.2-0.2c0.4,0.2,0.9,0.4,1.4,0.7h3.9v-5.4H68l-1.3,0.2c-0.2,0.1-0.3,0-0.4-0.1
		c-0.1-0.3-0.1-0.6-0.2-0.8c-0.1-0.2,0-0.2,0.2-0.2L68,11h4.2l1.2-1.3c0.2-0.2,0.3-0.2,0.5,0L75,11c0.8,0.9,0.7,1.6-0.4,1.9
		c-0.1,0-0.2,0.1-0.2,0.2v5.7c0,0.2-0.1,0.4-0.3,0.5c-0.4,0.2-0.9,0.2-1.3,0.1c-0.2-0.1-0.4-0.3-0.4-0.5v-1.1h-3.8
		c-0.2,1.6-0.5,3.3-0.7,5l0.8,0.1H72l1.1-1.5c0.1-0.1,0.2-0.1,0.3,0l1.6,1.7c0.2,0.3,0.3,0.5,0.3,0.8c-0.1,0.3-0.3,0.5-0.9,0.6
		c-0.2,0-0.2,0.2-0.2,0.5c-0.1,1.9-0.4,4.1-0.7,6.6c-0.3,1.4-0.7,2.3-1.3,2.7c-0.6,0.5-1.5,0.7-2.6,0.8c-0.1-1.3-0.6-2.1-1.7-2.6
		c-0.2-0.1-0.2-0.3-0.2-0.4c0.1-0.2,0.2-0.2,0.4-0.2c1.4,0.4,2.3,0.6,2.8,0.4c0.3-0.1,0.5-0.4,0.6-0.8c0.5-1.4,0.8-4.1,0.9-7.9h-3.5
		L67.8,23.8z M85.6,30.1c-1.9,1-4.8,2-8.5,3c-0.2,0.1-0.3,0.2-0.3,0.6c0,0.6-0.1,0.9-0.5,0.9c-0.4,0.1-0.6-0.1-0.8-0.6
		c-0.3-0.8-0.6-1.7-0.9-2.7c-0.1-0.2,0-0.3,0.3-0.3c0.5,0,1,0,1.5,0c2-5.4,3.3-12.5,4-21.1c0-0.2,0.1-0.2,0.3-0.2
		c0.7,0.2,1.4,0.4,2.1,0.5c0.5,0.1,0.7,0.4,0.7,0.8c-0.1,0.4-0.4,0.6-1,0.6c-0.2,0-0.3,0.1-0.3,0.2c-1.1,8-2.8,14.3-5.2,19.1
		c3.2-0.3,6-0.8,8.4-1.5c-0.5-2.1-1.2-4-2.2-5.9c-0.1-0.1-0.1-0.3,0-0.3c0.1-0.1,0.2-0.1,0.3,0.1c0.7,0.8,1.4,1.7,2,2.6
		c0,0.1,0.1,0.1,0.1,0.2c1.9,3,2.6,5.4,2.1,7.2C87.6,33.8,87.3,34,87,34c-0.4,0-0.6-0.2-0.8-0.5c-0.2-0.4-0.3-0.8-0.3-1.4
		C85.8,31.5,85.7,30.8,85.6,30.1z"/>
	<path id="XMLID_190_" class="st0" d="M101.2,21.2h-3.3c-0.1,3.7-0.7,6.6-2,8.5c-1.5,2.2-3.8,3.8-6.7,4.8c-0.2,0.1-0.4,0-0.4-0.2
		c0-0.2,0-0.3,0.2-0.4c1.1-0.6,2.2-1.3,3.2-2.1c0.4-0.3,0.7-0.7,1-1c1.9-2.1,2.8-5.3,2.8-9.7h-5.4l-1.4,0.2c-0.2,0-0.3,0-0.3-0.1
		c-0.1-0.3-0.2-0.6-0.2-0.9c0-0.1,0.1-0.1,0.3-0.1l1.7,0.2h8.2V10.2c0-0.2,0-0.3,0-0.4c0-0.1,0-0.2,0.1-0.1c0.7,0.1,1.3,0.3,2,0.4
		c0.6,0.1,0.9,0.4,0.9,0.8c0,0.5-0.3,0.8-0.9,0.9c-0.2,0.1-0.2,0.1-0.2,0.3v8.6h6.1l1.5-1.9c0.1-0.1,0.3-0.1,0.4,0l2.1,1.7
		c0.3,0.2,0.3,0.4,0.3,0.6c-0.1,0.2-0.2,0.3-0.5,0.3h-7.5v9.3c0,0.6,0.1,1.1,0.4,1.4c0.3,0.3,1.9,0.4,4.8,0.3c0.6-0.3,1-1.5,1.3-3.5
		c0.1-0.2,0.2-0.3,0.3-0.3c0.2,0,0.3,0.1,0.3,0.3c-0.1,1.9,0,2.9,0.4,3.1c0.5,0.2,0.7,0.6,0.7,1.1c0,0.6-0.4,0.9-1.1,1.2
		c-0.9,0.3-2.4,0.5-4.4,0.5c-2.1,0-3.4-0.3-3.9-0.9c-0.5-0.6-0.7-1.4-0.7-2.4V21.2z M91.9,12.2c-0.1-0.1-0.1-0.2,0-0.3
		c0.1-0.1,0.2-0.1,0.3,0c0.8,0.6,1.6,1.4,2.3,2.4c1.2,1.8,1.7,3.1,1.5,4c-0.1,0.3-0.3,0.6-0.6,0.7c-0.3,0.1-0.6,0-0.8-0.2
		c-0.2-0.2-0.5-0.8-0.8-1.8C93.2,14.6,92.6,13,91.9,12.2z M106,12.3c0.1-0.4,0.3-0.9,0.4-1.3c0-0.1,0.1-0.2,0.2-0.1
		c0.7,0.3,1.3,0.6,2,0.8c0.6,0.2,0.8,0.6,0.8,0.9c-0.1,0.4-0.5,0.5-1.1,0.4c-0.1,0-0.3,0.1-0.4,0.3c-1.1,2.3-2.5,4.1-4.1,5.4
		c-0.2,0.1-0.4,0.1-0.4,0c-0.1-0.1-0.1-0.2,0.1-0.4C104.6,16.5,105.5,14.5,106,12.3z"/>
	<path id="XMLID_185_" class="st0" d="M119.4,20.5v13.9c0,0.2-0.1,0.4-0.4,0.5c-0.4,0.2-0.8,0.2-1.2,0.1c-0.2-0.1-0.3-0.2-0.3-0.4
		V21.6c-0.7,3-1.8,5.4-3.5,7.3c-0.2,0.1-0.4,0.2-0.5,0c-0.1-0.1-0.1-0.3,0.1-0.6c1.5-2.6,2.7-6,3.6-10.3h-1.6l-1.6,0.2
		c-0.1,0-0.2,0-0.2-0.1c-0.1-0.3-0.2-0.7-0.2-1c0-0.1,0.1-0.1,0.3-0.1l1.8,0.2h2v-4.1c-1.2,0.3-2.3,0.5-3.2,0.6
		c-0.3,0-0.4-0.1-0.4-0.2c0-0.2,0.1-0.3,0.2-0.3c2.7-0.6,4.8-1.8,6.4-3.6c0.2-0.2,0.3-0.3,0.3-0.2c0.5,0.3,1,0.6,1.5,0.9
		c0.4,0.3,0.5,0.6,0.3,0.9c-0.2,0.3-0.4,0.4-0.8,0.2c-0.1-0.1-0.3-0.1-0.4,0.1c-0.6,0.4-1.3,0.7-2,1v4.7h1.4l1.1-1.7
		c0.1-0.1,0.2-0.1,0.4,0l1.2,1.7c0.2,0.2,0.2,0.3,0.2,0.5c-0.1,0.2-0.2,0.2-0.4,0.2h-3.9v1.5c0.5,0.3,1,0.7,1.5,1.2
		c1.2,1.2,1.8,2.2,1.7,3.1c-0.1,0.3-0.2,0.6-0.5,0.7c-0.3,0.1-0.5,0.1-0.8-0.1c-0.2-0.1-0.4-0.4-0.5-0.7
		C120.1,21.9,119.6,20.8,119.4,20.5z M130.7,26.3l-7.7,1.8l-1.1,0.5c-0.1,0-0.2,0-0.2-0.1c-0.1-0.2-0.3-0.4-0.4-0.6
		c-0.1-0.1-0.1-0.2,0.1-0.2l1.5-0.2l7.8-1.8V9.8c0-0.1,0-0.2,0-0.3c0-0.1,0.1-0.2,0.2-0.1c0.6,0.2,1.2,0.3,1.9,0.4
		c0.6,0.1,0.9,0.4,0.9,0.9c0,0.5-0.3,0.8-0.9,0.9c-0.2,0-0.2,0.1-0.2,0.3l0,13.2L133,25l1.1-1.9c0.2-0.3,0.4-0.4,0.6-0.2l1.8,1.4
		c0.1,0.1,0.2,0.2,0.2,0.4c0,0.2-0.1,0.3-0.2,0.3l-3.8,0.9v8.4c0,0.3-0.1,0.5-0.3,0.6c-0.5,0.2-0.9,0.2-1.4,0.1
		c-0.2-0.1-0.3-0.3-0.3-0.5V26.3z M124.2,19.3c-0.1-0.1-0.1-0.2-0.1-0.3c0.1-0.1,0.2-0.2,0.3-0.1c0.6,0.2,1.3,0.6,2,1.2
		c1.2,1,1.7,1.9,1.7,2.8c0,0.4-0.2,0.6-0.5,0.8c-0.3,0.1-0.5,0.1-0.8,0c-0.2-0.1-0.4-0.4-0.6-0.6C125.4,21,124.7,19.8,124.2,19.3z
		 M125.2,12.4c-0.1-0.1-0.1-0.2-0.1-0.3c0.1-0.1,0.2-0.2,0.3-0.1c0.6,0.3,1.2,0.7,1.8,1.3c0.6,0.7,1,1.2,1.2,1.7
		c0.2,0.4,0.3,0.8,0.2,1.1c-0.1,0.4-0.2,0.6-0.6,0.7c-0.3,0.1-0.6,0.1-0.8-0.1c-0.4-0.3-0.6-0.6-0.6-0.8
		C126.1,14,125.6,12.9,125.2,12.4z"/>
	<path id="XMLID_181_" class="st0" d="M144.2,23.9V33c0,0.4-0.2,0.8-0.6,1.2c-0.4,0.5-1.1,0.7-2.2,0.9c0.1-0.8-0.5-1.5-1.6-2.1
		c-0.2-0.1-0.3-0.2-0.3-0.4c0.1-0.2,0.2-0.2,0.4-0.2c0.6,0.1,1.2,0.2,1.7,0.2c0.3,0,0.4-0.1,0.5-0.2c0.1-0.1,0.1-0.3,0.1-0.5v-6.7
		c-0.5,0.3-1,0.6-1.5,0.8c-0.1,0.1-0.2,0.3-0.1,0.5c0.1,0.5,0,0.8-0.3,0.9c-0.4,0.1-0.7-0.1-0.9-0.6c-0.3-0.7-0.6-1.4-0.9-2.1
		c-0.1-0.2-0.1-0.3,0.1-0.4c1.6-0.5,2.8-0.8,3.6-1.1v-6.8h-1.5l-1.6,0.2c-0.1,0-0.2,0-0.2-0.1c-0.1-0.3-0.1-0.7-0.2-1
		c0-0.1,0.1-0.1,0.3-0.1l1.8,0.2h1.5v-6c0-0.2,0-0.3,0-0.4c0-0.1,0.1-0.1,0.2-0.1c0.7,0.1,1.3,0.2,1.9,0.3c0.7,0.1,1,0.4,1,0.8
		c0,0.4-0.3,0.7-0.9,0.8c-0.2,0-0.3,0.1-0.2,0.3v4.3h0.2l1.1-1.7c0.1-0.1,0.2-0.1,0.3,0l1.2,1.7c0.2,0.2,0.2,0.3,0.2,0.5
		c-0.1,0.2-0.2,0.2-0.3,0.2h-2.6v5.9c0.7-0.4,1.3-0.8,2-1.2c0.1-0.1,0.2-0.1,0.3,0c0.1,0.1,0.1,0.3-0.1,0.4
		C145.8,22.5,145.1,23.2,144.2,23.9z M149.4,20.8H149l-1.3,0.2c-0.2,0.1-0.3,0-0.4,0c-0.1-0.3-0.1-0.6-0.2-0.9
		c0-0.1,0.1-0.2,0.2-0.1l1.7,0.2h3.5v-4.7h-3.3l-1.5,0.2c-0.2,0-0.3,0-0.3-0.1c-0.1-0.3-0.1-0.6-0.2-0.9c0-0.1,0.1-0.1,0.3-0.1
		l1.7,0.2h3.3V10c0-0.2,0-0.3,0-0.4c0-0.1,0-0.2,0.1-0.1c0.7,0.1,1.3,0.3,2,0.4c0.6,0.1,0.9,0.4,0.9,0.8c0,0.5-0.3,0.8-0.9,0.9
		c-0.2,0.1-0.2,0.1-0.2,0.3v2.9h2.3l1.5-1.9c0.1-0.1,0.3-0.1,0.4,0l2.1,1.7c0.3,0.2,0.3,0.4,0.3,0.6c-0.1,0.2-0.2,0.3-0.5,0.3h-6
		v4.7h2.6l1.1-1.3c0.1-0.1,0.2-0.1,0.3,0.1l1.5,1.5c0.2,0.2,0.3,0.5,0.2,0.8c-0.1,0.3-0.4,0.5-1.1,0.5c-0.2,0-0.3,0.1-0.3,0.2
		c-0.9,2.8-2.1,5.2-3.8,7.3c1.8,1.6,3.9,2.7,6.2,3.3c0.2,0,0.3,0.2,0.3,0.4c0,0.2-0.1,0.3-0.3,0.4c-0.9,0.2-1.5,0.7-1.7,1.5
		c-0.1,0.2-0.2,0.2-0.4,0.1c-2-1-3.8-2.4-5.4-4.3c-2.3,2.1-5.1,3.6-8.3,4.4c-0.1,0-0.2,0-0.2-0.2c0-0.2,0-0.3,0.1-0.4
		c2.8-1.1,5.3-2.8,7.5-5.1c-1.2-1.8-2.1-3.6-2.7-5.4C149.7,22.3,149.4,21.3,149.4,20.8z M152.2,25.5c0.5,0.9,1.1,1.7,1.8,2.5
		c1.5-2,2.6-4.4,3.3-7.1c0-0.1-0.1-0.1-0.1-0.1h-6.8C150.7,22.6,151.3,24.2,152.2,25.5z"/>
	<path id="XMLID_179_" class="st0" d="M175.3,19.8c0,0.2-0.1,0.3-0.1,0.4c-1.3,7-4.9,11.9-11,14.7c-0.2,0.1-0.3,0-0.4-0.1
		c-0.1-0.2,0-0.4,0.2-0.4c2.3-1.5,4.4-3.5,6.2-6c1.7-2.5,2.9-5.9,3.4-10.2h-7.9l-1.5,0.2c-0.2,0-0.3,0-0.3-0.1
		c-0.1-0.3-0.2-0.6-0.2-0.9c0-0.1,0.1-0.1,0.3-0.1l1.7,0.2h7.9c0.2-2,0.4-4.7,0.4-8.1c0-0.2,0.1-0.3,0.2-0.2
		c0.8,0.1,1.5,0.2,2.3,0.4c0.6,0.1,0.9,0.4,0.9,0.9c0,0.5-0.4,0.7-1.1,0.8c-0.2,0-0.2,0.1-0.2,0.3c-0.1,2.3-0.3,4.3-0.5,6.1h6.3
		l1.5-1.9c0.1-0.1,0.3-0.1,0.4,0l2.1,1.7c0.3,0.2,0.3,0.4,0.3,0.6c-0.1,0.2-0.3,0.3-0.5,0.3h-9.9c1.7,7.6,5.2,12.3,10.7,14
		c0.2,0.1,0.3,0.2,0.3,0.4c0,0.2-0.2,0.3-0.4,0.3c-1,0.1-1.6,0.6-1.8,1.4c-0.1,0.2-0.2,0.2-0.4,0.1c-0.6-0.4-1.2-0.8-1.8-1.2
		C178.7,30,176.4,25.5,175.3,19.8z"/>
	<path id="XMLID_174_" class="st0" d="M191.3,22c0,1.1-0.2,1.9-0.6,2.4c-0.4,0.3-0.7,0.5-1.1,0.5c-0.3,0-0.5-0.1-0.7-0.4
		c-0.1-0.2-0.2-0.4-0.2-0.8c0-0.3,0.3-0.7,0.7-1.1c0.6-0.7,1-1.6,1.2-2.7c0-0.2,0-0.3,0.2-0.3c0.1,0,0.2,0.1,0.2,0.2
		c0.1,0.4,0.1,0.7,0.2,1.1l0.6,0.1l-0.4-9.8c0-0.2,0.1-0.2,0.3-0.2c0.4,0.2,0.9,0.4,1.4,0.6c0.6-0.4,1.5-1.2,2.6-2.4
		c0.1-0.1,0.2-0.1,0.3,0c0.4,0.4,0.8,0.8,1.3,1.2c0.4,0.4,0.6,0.8,0.3,1.1c-0.2,0.3-0.6,0.3-1-0.1c-0.1-0.1-0.2-0.1-0.3,0
		c-0.8,0.4-1.8,0.8-2.9,1.1l0.1,1.9h0.6l1-1.5c0.1-0.2,0.3-0.2,0.5,0l1.7,1.5c0.1,0.1,0.2,0.3,0.1,0.5c-0.1,0.2-0.2,0.3-0.4,0.3
		h-3.5l0.1,2.4h0.5l1-1.5c0.1-0.2,0.3-0.2,0.5,0l1.7,1.5c0.1,0.1,0.2,0.3,0.1,0.5c-0.1,0.2-0.2,0.3-0.4,0.3h-3.4l0.1,2.7h12.9
		l0.1-2.7h-1.4l-1.5,0.2c-0.1,0-0.2,0-0.2-0.1c-0.1-0.3-0.2-0.6-0.2-0.9c0-0.1,0.1-0.1,0.2-0.1l1.7,0.2h1.4l0.2-2.4h-1.5l-1.5,0.2
		c-0.1,0-0.2,0-0.2-0.1c-0.1-0.3-0.1-0.6-0.2-0.9c0-0.1,0.1-0.1,0.2-0.1l1.7,0.2h1.5l0.2-2.6H206l-1.3,0.2c-0.2,0.1-0.3,0.1-0.3-0.1
		c-0.1-0.3-0.1-0.6-0.2-0.9c0-0.1,0.1-0.2,0.2-0.1l1.7,0.2h0.9l1.3-1.4c0.1-0.2,0.3-0.2,0.4,0.1l1.4,1.5c0.4,0.4,0.5,0.8,0.5,1.2
		c-0.1,0.4-0.4,0.6-1,0.6c-0.2,0-0.3,0.1-0.3,0.2l-0.4,7.6l1-1.1c0.1-0.1,0.3-0.1,0.4,0l1.6,1.8c0.3,0.4,0.4,0.8,0.3,1.1
		c-0.2,0.3-0.5,0.4-1.1,0.3c-0.2-0.1-0.4,0-0.7,0.2c-0.6,0.5-1.1,0.9-1.6,1.2c-0.2,0.1-0.3,0.1-0.4,0.1c-0.1-0.1-0.1-0.2,0-0.4
		c0.3-0.8,0.5-1.6,0.6-2.3h-16.1L191.3,22z M201.2,29.2v4.2c0,0.4-0.2,0.8-0.6,1.2c-0.4,0.4-1,0.6-1.8,0.7c0.1-0.8-0.5-1.4-1.6-2
		c-0.2-0.1-0.3-0.2-0.3-0.4c0.1-0.2,0.2-0.3,0.4-0.2c1,0.3,1.5,0.3,1.7,0.2c0.2-0.1,0.2-0.3,0.2-0.5v-3.1h-8.1l-1.5,0.2
		c-0.2,0-0.3,0-0.3-0.1c-0.1-0.3-0.2-0.6-0.2-0.9c0-0.1,0.1-0.1,0.3-0.1l1.7,0.2h8.1v-1.6c0-0.1,0-0.3,0-0.4c0-0.1,0.1-0.2,0.2-0.1
		c0.5,0.1,1,0.2,1.7,0.3c0.7-0.7,1.4-1.4,2-2.2h-7.7l-1.3,0.2c-0.2,0.1-0.4,0-0.4-0.1c-0.1-0.3-0.1-0.6-0.2-0.9c0-0.2,0-0.2,0.2-0.1
		l1.7,0.2h7.6l1.3-1.1c0.1-0.1,0.2-0.1,0.3,0.1l1.3,1.9c0.3,0.5,0.3,0.9,0,1.2c-0.3,0.3-0.7,0.3-1.1,0c-0.2-0.1-0.4-0.1-0.7,0
		c-0.8,0.5-1.5,0.9-2.1,1.2c0.1,0.1,0.2,0.3,0.2,0.5c0,0.4-0.3,0.7-0.8,0.8c-0.1,0-0.2,0.1-0.2,0.2h5.7l1.5-1.9
		c0.1-0.1,0.3-0.1,0.4,0l2.1,1.7c0.3,0.2,0.3,0.4,0.3,0.6c-0.1,0.2-0.2,0.3-0.5,0.3H201.2z M200.5,18.9c-1,0.7-1.9,1.2-2.9,1.6
		c-0.2,0.1-0.3,0-0.4-0.1c-0.1-0.1,0-0.3,0.2-0.4c0.5-0.4,1.3-1.1,2.2-2.1c0,0,0-0.1-0.1-0.1c-0.5-0.5-0.9-0.9-1.3-1.2
		c-0.2-0.1-0.3-0.3-0.2-0.5c0.1-0.2,0.2-0.3,0.4-0.2c0.6,0.1,1.3,0.4,2,0.8c0.4-0.7,0.7-1.2,0.8-1.6c0.1-0.1,0.1-0.1,0.2-0.1
		c0.5,0.4,1,0.8,1.4,1.1c0.4,0.3,0.5,0.7,0.4,0.9c-0.2,0.3-0.4,0.3-0.8,0.1c-0.1-0.1-0.2,0-0.3,0c-0.1,0.1-0.2,0.2-0.3,0.3
		c0.6,0.5,0.9,1,0.9,1.6c0,0.3-0.2,0.5-0.4,0.7c-0.3,0.2-0.5,0.2-0.8,0.1C201.6,20.1,201.2,19.7,200.5,18.9z M200.7,13.5
		c-0.1,0.1-0.2,0.2-0.4,0.3c-0.7,0.6-1.5,1-2.2,1.3c-0.2,0.1-0.3,0.1-0.3-0.1c-0.1-0.1,0-0.3,0.1-0.4c0.6-0.5,1.2-1.1,1.8-1.8
		c0-0.1,0.1-0.2,0.1-0.2c-0.3-0.4-0.8-0.8-1.5-1.2c-0.2-0.1-0.3-0.3-0.2-0.5c0.1-0.2,0.2-0.3,0.4-0.2c0.6,0.1,1.2,0.4,1.9,0.7
		c0.4-0.7,0.6-1.3,0.7-1.6c0.1-0.1,0.1-0.1,0.2-0.1c0.5,0.4,1,0.7,1.5,1c0.4,0.3,0.6,0.6,0.5,0.9c-0.1,0.3-0.4,0.4-0.8,0.2
		c-0.1-0.1-0.2-0.1-0.3,0.1c-0.1,0.1-0.2,0.2-0.3,0.4c0.6,0.3,0.9,0.8,0.9,1.5c0,0.3-0.1,0.5-0.3,0.7c-0.2,0.2-0.5,0.2-0.8,0.1
		C201.5,14.4,201.1,14,200.7,13.5z"/>
</g>
<g id="XMLID_131_">
	<path id="XMLID_171_" class="st0" d="M68,46.8V51h1.2v0.3h-4V51h1.2v-8.4h-1.2v-0.3h4v0.3H68v3.9h3.3v-3.9h-1.2v-0.3h4v0.3h-1.2V51
		h1.2v0.3h-4V51h1.2v-4.2H68z"/>
	<path id="XMLID_169_" class="st0" d="M82.4,42.2v0.3h-1.2v5.7c0,1.4-0.2,2-0.7,2.5c-0.5,0.5-1.3,0.7-2.4,0.7
		c-0.9,0-1.7-0.3-2.2-0.7c-0.5-0.4-0.8-1.3-0.8-2.8v-5.4h-1.2v-0.3h4v0.3h-1.2v5c0,1.9-0.2,3.5,2,3.5c1.4,0,2.1-1,2.1-2.5v-6h-1.2
		v-0.3H82.4z"/>
	<path id="XMLID_167_" class="st0" d="M89.3,51.5h-0.4l-5.2-8.6V51h1.2v0.3h-2.8V51h1.2v-8.4h-1.2v-0.3h3.1l3.6,5.9v-5.6h-1.2v-0.3
		h2.8v0.3h-1.2V51.5z"/>
	<path id="XMLID_165_" class="st0" d="M96.9,44.8c-0.3-1.2-1-2.4-2.3-2.4c-2.3,0-2.2,2.3-2.2,4.3c0,1.8-0.2,4.5,2,4.5
		c1.7,0,1.5-1.4,1.5-2.8h-1.2V48h3.8v0.3h-0.9c0,2-1.4,3.2-3.1,3.2c-1.4,0-2.2-0.5-3.1-1.7c-0.6-0.8-0.9-2-0.9-3
		c0-1.2,0.4-2.4,1.1-3.3c0.7-0.9,1.6-1.4,2.7-1.4c0.9,0,1.4,0.2,2.1,0.7l0.5-0.6h0.3v2.6H96.9z"/>
	<path id="XMLID_162_" class="st0" d="M101.2,51h1.2v0.3h-4V51h1.2v-8.4h-1.2v-0.3h4v0.3h-1.2V51z M103.2,51.3V51h1.3l-3.1-4.4
		l3.4-4h-1.4v-0.3h3.1v0.3h-1.2l-2.7,3.1l3.9,5.3h0.6v0.3H103.2z"/>
	<path id="XMLID_160_" class="st0" d="M114.9,42.2v0.3h-1.2v5.7c0,1.4-0.2,2-0.7,2.5c-0.5,0.5-1.3,0.7-2.4,0.7
		c-0.9,0-1.7-0.3-2.2-0.7c-0.5-0.4-0.8-1.3-0.8-2.8v-5.4h-1.2v-0.3h4v0.3h-1.2v5c0,1.9-0.2,3.5,2,3.5c1.4,0,2.1-1,2.1-2.5v-6h-1.2
		v-0.3H114.9z"/>
	<path id="XMLID_157_" class="st0" d="M114.4,51.3V51h1l2.9-8.9h0.4l2.8,8.9h1v0.3h-3.9V51h1.3l-0.7-2.4h-2.7l-0.8,2.4h1.3v0.3
		H114.4z M116.7,48.2h2.4l-1.2-3.8L116.7,48.2z"/>
	<path id="XMLID_155_" class="st0" d="M129.2,51.5h-0.4l-5.2-8.6V51h1.2v0.3h-2.8V51h1.2v-8.4h-1.2v-0.3h3.1l3.6,5.9v-5.6h-1.2v-0.3
		h2.8v0.3h-1.2V51.5z"/>
	<path id="XMLID_153_" class="st0" d="M136.9,44.8c-0.3-1.2-1-2.4-2.3-2.4c-2.3,0-2.2,2.3-2.2,4.3c0,1.8-0.2,4.5,2,4.5
		c1.7,0,1.5-1.4,1.5-2.8h-1.2V48h3.8v0.3h-0.9c0,2-1.4,3.2-3.1,3.2c-1.4,0-2.2-0.5-3.1-1.7c-0.6-0.8-0.9-2-0.9-3
		c0-1.2,0.4-2.4,1.1-3.3c0.7-0.9,1.6-1.4,2.7-1.4c0.9,0,1.4,0.2,2.1,0.7l0.5-0.6h0.3v2.6H136.9z"/>
	<path id="XMLID_151_" class="st0" d="M151.5,42.2v0.3h-1.2v5.7c0,1.4-0.2,2-0.7,2.5c-0.5,0.5-1.3,0.7-2.4,0.7
		c-0.9,0-1.7-0.3-2.2-0.7c-0.5-0.4-0.8-1.3-0.8-2.8v-5.4H143v-0.3h4v0.3h-1.2v5c0,1.9-0.2,3.5,2,3.5c1.4,0,2.1-1,2.1-2.5v-6h-1.2
		v-0.3H151.5z"/>
	<path id="XMLID_149_" class="st0" d="M158.3,51.5H158l-5.2-8.6V51h1.2v0.3h-2.8V51h1.2v-8.4h-1.2v-0.3h3.1l3.6,5.9v-5.6h-1.2v-0.3
		h2.8v0.3h-1.2V51.5z"/>
	<path id="XMLID_147_" class="st0" d="M162.2,51h1.2v0.3h-4V51h1.2v-8.4h-1.2v-0.3h4v0.3h-1.2V51z"/>
	<path id="XMLID_145_" class="st0" d="M167.4,51.5H167l-2.9-8.9h-1v-0.3h3.9v0.3h-1.3l2.1,6.4l2.1-6.4h-1.3v-0.3h2.7v0.3h-1
		L167.4,51.5z"/>
	<path id="XMLID_143_" class="st0" d="M173.8,42.6v3.9c1.2,0,1.8-0.2,1.9-1.7h0.3v3.8h-0.3c-0.1-1.5-0.5-1.8-1.9-1.8V51h1.7
		c1.6,0,1.9-1,2.2-2.6h0.4l-0.1,2.9h-7V51h1.2v-8.4H171v-0.3h6.8l0.1,2.4h-0.3c-0.3-1.3-0.7-1.8-1.4-2c-0.3-0.1-0.7-0.1-1.1-0.1
		H173.8z"/>
	<path id="XMLID_140_" class="st0" d="M181.3,51h1.2v0.3h-4V51h1.2v-8.4h-1.2v-0.3h4.1c1.3,0,2.9,0.2,2.9,2.1c0,1.5-1.5,2.1-2.6,2.2
		v0c1.9,0.3,2.3,1.5,2.3,3.7c0,0.5,0,1,1.2,0.8v0.3c-0.3,0.1-0.7,0.2-1,0.2c-1.2,0-1.9-0.7-1.9-2.1c0-1.1-0.2-2-0.5-2.3
		c-0.3-0.3-0.7-0.5-1.1-0.5h-0.7V51z M181.3,46.3h1c1.1,0,1.6-0.6,1.6-1.8c0-1.5-0.4-1.9-1.5-1.9h-1.1V46.3z"/>
	<path id="XMLID_138_" class="st0" d="M187.2,51.4H187v-2.7h0.4c0.3,1.3,1,2.5,2.3,2.5c1,0,1.8-0.8,1.8-1.9c0-1.3-1-1.5-1.9-1.9
		c-0.2-0.1-0.5-0.2-0.7-0.3c-1.1-0.4-1.7-1.3-1.7-2.6c0-1.4,1-2.5,2.2-2.5c0.7,0,1.2,0.2,1.8,0.7l0.5-0.5h0.2v2.6h-0.4
		c-0.1-1.3-0.9-2.4-2.1-2.4c-0.8,0-1.5,0.6-1.5,1.5c0,1,0.7,1.2,1.4,1.4c0.3,0.1,0.6,0.2,0.8,0.3c0.2,0.1,0.6,0.2,0.8,0.3
		c1,0.5,1.4,1.4,1.4,2.7c0,1.7-1,3-2.6,3c-0.6,0-1.3-0.3-1.7-0.7L187.2,51.4z"/>
	<path id="XMLID_136_" class="st0" d="M195.4,51h1.2v0.3h-4V51h1.2v-8.4h-1.2v-0.3h4v0.3h-1.2V51z"/>
	<path id="XMLID_134_" class="st0" d="M198.3,51.3V51h1.3v-8.4c-1.7-0.1-2.3,0.8-2.5,2.6h-0.4l0.1-2.9h7l0.1,2.9h-0.4
		c-0.2-1.7-0.7-2.7-2.5-2.6V51h1.3v0.3H198.3z"/>
	<path id="XMLID_132_" class="st0" d="M205.9,51.3V51h1.3v-3.8l-2.6-4.6h-0.9v-0.3h4v0.3h-1.3l2.1,3.9l2-3.9h-1.3v-0.3h2.6v0.3h-1
		l-2.1,4.3V51h1.4v0.3H205.9z"/>
</g>
<g id="XMLID_2_">
	<g id="XMLID_124_">
		<g id="XMLID_127_">
			<path id="XMLID_128_" class="st1" d="M1.3,29c0-0.4,0-0.7,0-1.1c0-0.2,0.1-0.3,0.1-0.5c0.4-0.3,0.8-0.4,1.3-0.3
				c0.6,0.1,1.1,0.4,1.5,0.7c0.1,0.1,0.3,0.2,0.5,0.4c0-0.8,0-1.5-0.1-2.2c-0.2,0-0.3-0.1-0.5-0.1c-0.4,0-0.7-0.2-1-0.4
				c-0.9-0.7-1.5-1.5-1.7-2.6C1.2,22,1.5,21.4,2,20.8c1.3-0.2,2.2,0.4,2.9,1.5c0.2-0.7,0.3-1.4,0.5-2.1c-0.1,0-0.2-0.1-0.3-0.1
				c-0.5-0.2-1-0.5-1.5-0.9c-0.6-0.6-0.9-1.2-0.9-2.1c0-0.9,0.3-1.7,0.8-2.4c0-0.1,0.1-0.1,0.1-0.2c1.6,0.2,2.4,1.1,2.8,2.7
				c0.4-0.9,0.8-1.7,1.1-2.5c-0.1-0.1-0.1-0.1-0.2-0.2c-0.3-0.3-0.7-0.6-0.9-0.9c-0.6-0.7-0.9-1.6-0.7-2.5C6,10,6.6,9.3,7.2,8.6
				c0,0,0.1,0,0.1,0c1.4,0.7,1.9,1.9,2.1,3.4c0.6-0.7,1.1-1.3,1.7-2c-0.4-0.3-0.8-0.6-1.1-1l0,0C9.9,8.8,9.9,8.6,9.8,8.5l0,0
				C9.6,8.3,9.6,8,9.7,7.8c0-0.1,0-0.3,0-0.4c0-0.7,0.2-1.3,0.5-1.9c0.3-0.6,0.8-1,1.5-1.1c0.2,0,0.4,0,0.6,0.2
				c0.3,0.2,0.5,0.5,0.6,0.8c0.2,0.5,0.3,1,0.3,1.4c0,0.5-0.1,1-0.1,1.5c0.1,0,0.1,0,0.1-0.1c0.7-0.5,1.3-1.1,2-1.6
				c0.2-0.1,0.2-0.3,0.3-0.5c0.2-0.4,0.3-0.9,0.5-1.3c0.5-1,1.2-1.7,2.3-1.9c0.5,0,1,0,1.5,0C20,3,20.3,3.1,20.5,3.2
				c0.6,0.3,0.8,0.8,0.7,1.5c-0.1,0.7-0.4,1.3-1,1.8c-0.9,0.8-2,1.2-3.2,1c-0.4-0.1-0.8-0.2-1.1-0.2c-0.6,0.4-1.1,0.8-1.8,1.3
				c1.3-0.1,2.4,0.1,3.3,1.1c-0.1,0.6-0.3,1.2-0.9,1.5c-0.3,0.2-0.7,0.5-1,0.6c-0.3,0.1-0.7,0.2-1,0.3c-1,0.1-1.8-0.3-2.6-1
				c-0.1-0.1-0.1-0.1-0.2-0.2c-0.7,0.5-1.3,1.2-1.9,2c0.4-0.2,0.8-0.3,1.1-0.4c0.8-0.3,1.5-0.2,2.3,0c0.4,0.1,0.7,0.4,0.8,0.8
				c-0.2,0.5-0.3,1.1-0.7,1.5c-0.2,0.2-0.3,0.3-0.5,0.5c-1.2,1.2-2.9,1.3-4.1,0.2c-0.1-0.1-0.1-0.1-0.2-0.2
				c-0.2,0.4-0.5,0.9-0.7,1.3c-0.2,0.3-0.3,0.7-0.5,1l0,0c0.1,0,0.1-0.1,0.2-0.1c1.1-0.8,2.3-0.9,3.6-0.5c0.1,0,0.2,0.1,0.3,0.1
				c-0.1,0.7-0.1,1.3-0.6,1.9c-0.1,0.1-0.2,0.2-0.3,0.4c-0.4,0.5-0.8,0.9-1.3,1.2c-0.7,0.4-1.5,0.4-2.2,0c-0.2-0.1-0.3-0.2-0.6-0.4
				c-0.2,0.9-0.3,1.7-0.5,2.5c0.2-0.1,0.3-0.3,0.4-0.5c0.3-0.3,0.6-0.5,0.9-0.8l0,0c0.6-0.2,1.3-0.4,1.9-0.2
				c0.5,0.1,0.7,0.3,0.7,0.8c0,0.9-0.2,1.7-0.6,2.4c-0.6,0.9-1.5,1.4-2.7,1.3c-0.3,0-0.6-0.1-0.9-0.1c-0.1,0.9,0.1,1.8,0.2,2.7
				c0.1-0.1,0.1-0.1,0.1-0.1c0.3-0.7,0.8-1.3,1.4-1.8c0.5-0.4,1-0.6,1.6-0.3l0,0c0.3,0.2,0.5,0.5,0.6,0.8c0.1,0.4,0.2,0.9,0.1,1.3
				c-0.1,0.7-0.3,1.3-0.7,1.9l0,0c-0.7,0.8-1.5,1.1-2.6,1.1c-0.1,0-0.1,0-0.2,0c0,0.6,0.8,2.8,1,3c0.1-0.4,0.2-0.9,0.3-1.3
				c0.2-0.6,0.4-1.2,0.9-1.6c0.5-0.4,1.3-0.6,1.9,0c0.3,1,0.6,1.9,0.4,3c-0.2,1.3-1.1,2.2-2.3,2.6c-0.1,0-0.1,0-0.2,0.1
				c0.2,0.3,0.4,0.7,0.6,1c0.2,0.3,0.4,0.6,0.7,1c0-0.4,0.1-0.7,0.1-1c0.1-0.8,0.4-1.5,1-2c0.5-0.5,0.9-0.5,1.3,0.1
				c0,0,0,0.1,0.1,0.1c0.7,0.8,1,1.7,1,2.8c0,0.9-0.3,1.6-0.9,2.2c-0.2,0.2-0.4,0.4-0.6,0.6c0.2,0.2,0.3,0.4,0.5,0.6
				c0.5,0.4,0.9,0.8,1.4,1.3l0,0c-0.1-0.4-0.3-0.7-0.3-1.1c-0.1-0.6-0.1-1.1,0.2-1.7c0.1-0.3,0.3-0.5,0.4-0.8
				c0.3-0.5,0.9-0.7,1.3-0.2c0.3,0.3,0.6,0.6,0.9,1l0,0c0.1,0.2,0.2,0.4,0.4,0.6c0.6,1,0.7,2.1,0,3.1c-0.1,0.2-0.3,0.4-0.5,0.6
				c-0.1,0.1-0.1,0.1-0.2,0.2c0.2,0.1,0.3,0.3,0.5,0.4c1.1,0.9,2.3,1.5,3.7,1.9c0.4,0.1,0.8,0.2,1.3,0.3c0,0,0,0,0,0
				c0.2,0.6,0.6,1,0.9,1.6c0.2,0,0.3-0.1,0.4-0.1c1-0.3,2.1-0.7,3.1-1c0.4-0.1,0.7,0,1,0.2c0.1,0.1,0.3,0.3,0.4,0.4
				c0,0,0.1-0.1,0.1-0.1c0,0,0-0.1,0.1-0.1c0.3-0.4,0.7-0.7,1.3-0.7c0.6,0,1.3,0,1.9,0c0.4,0,0.8,0.2,1.1,0.5
				c0.2,0.2,0.3,0.5,0.5,0.7c0,0,0-0.1,0.1-0.1c0.3-0.7,0.8-0.9,1.5-0.7c0.5,0.1,0.9,0.3,1.4,0.4c0,0,0,0,0,0c0,0,0,0,0,0
				c-0.3-0.1-0.5-0.3-0.8-0.4c0.3-0.5,0.6-1,0.8-1.6c0.2-0.4,0.4-0.8,0.7-1.1c0.1-0.1,0.3-0.2,0.4-0.2c0.3,0,0.6-0.1,0.9-0.1
				c0.7-0.1,1.5-0.2,2.2-0.2c0.4,0,0.7-0.1,1.1,0c0.3,0.2,0.3,0.4,0.1,0.7c-0.1,0.2-0.3,0.4-0.5,0.5c-0.5,0.4-0.9,0.7-1.4,1.1
				c-0.1,0.1-0.2,0.2-0.3,0.4c0.3-0.1,0.6-0.2,0.9-0.2c1.6-0.4,3-1.1,4.3-2.2c0.1-0.1,0.2-0.2,0.3-0.3c-0.1-0.1-0.2-0.2-0.3-0.3
				c-0.3-0.3-0.6-0.7-0.7-1.1c-0.3-0.9-0.1-1.7,0.3-2.5c0.4-0.6,0.8-1.1,1.3-1.6c0.4-0.4,0.9-0.3,1.2,0.1c0.2,0.4,0.4,0.7,0.6,1.1
				c0.1,0.2,0.1,0.5,0.1,0.7c0.1,0.6-0.1,1.2-0.4,1.8l0,0c0.7-0.6,1.4-1.1,1.9-1.9c-0.4-0.3-0.8-0.6-1.1-1c-0.4-0.6-0.5-1.3-0.5-2
				c0-1.1,0.5-2,1.2-2.7c0.1-0.1,0.1-0.1,0.2-0.2c0.3-0.2,0.5-0.1,0.7,0c0.8,0.6,1.2,1.3,1.3,2.3c0,0.3,0.1,0.6,0.1,1
				c0.4-0.6,0.8-1.1,1.2-1.6c0-0.1,0-0.1-0.1-0.2c0.1,0,0.1,0,0.1-0.1c0,0,0.1-0.1,0.1-0.1c0,0,0,0,0,0c-0.1,0-0.1,0-0.2-0.1
				c-1.1-0.3-1.8-1-2.2-2.1c-0.2-0.5-0.1-1-0.1-1.5c0-0.7,0.2-1.3,0.5-2c0.1,0,0.2-0.1,0.2-0.1c0.7-0.3,1.5-0.1,1.9,0.4
				c0.4,0.5,0.6,1,0.8,1.6c0.1,0.4,0.2,0.8,0.3,1.2c0.5-1,1.1-2.7,1-3.2c-0.1,0-0.3,0-0.4,0c-1.4,0-2.4-0.7-2.9-2
				c-0.3-0.8-0.4-1.6-0.1-2.4c0.2-0.6,0.8-0.9,1.4-0.8c0.5,0.1,0.9,0.4,1.2,0.7c0.5,0.5,1,1,1.3,1.7c0.1-0.9,0.3-1.8,0.3-2.8
				c-0.2,0-0.3,0-0.4,0.1c-0.5,0.1-1,0.2-1.6,0.1c-0.5-0.1-1-0.3-1.4-0.7c-0.4-0.4-0.6-0.9-0.8-1.4c-0.2-0.5-0.3-1.1-0.2-1.6
				c0-0.4,0.2-0.7,0.7-0.7c0.1,0,0.2,0,0.3,0c0.8-0.1,1.5,0.1,2.1,0.5c0.4,0.3,0.7,0.7,1,1.1c0,0,0,0,0,0c0,0,0,0,0,0
				c-0.1-0.9-0.3-1.7-0.5-2.6c-0.2,0.1-0.3,0.2-0.4,0.3c-0.9,0.6-1.9,0.6-2.7,0c-0.2-0.1-0.4-0.3-0.5-0.4l0,0
				c-0.3-0.4-0.7-0.9-1-1.3c-0.3-0.5-0.3-1-0.4-1.6c0.1-0.1,0.2-0.1,0.2-0.1c0.8-0.3,1.6-0.4,2.5-0.2c0.6,0.1,1.1,0.4,1.5,0.8l0,0
				c-0.3-0.6-0.6-1.1-0.9-1.7c-0.1-0.2-0.2-0.4-0.3-0.6c-0.1,0-0.1,0-0.1,0c-0.1,0.1-0.2,0.1-0.2,0.2c-0.7,0.5-1.6,0.7-2.5,0.6
				c-1.4-0.3-2.6-1.4-2.9-3c0.1-0.3,0.4-0.5,0.6-0.7c0.8-0.4,1.6-0.4,2.4-0.2c0.5,0.1,0.9,0.3,1.3,0.4l0,0c-0.1-0.1-0.1-0.2-0.2-0.2
				c-0.4-0.5-0.7-0.9-1.2-1.3c-0.2-0.1-0.4-0.3-0.6-0.4c-0.2,0.1-0.3,0.3-0.4,0.4c-1,0.8-2.1,1-3.3,0.6c-0.5-0.2-1-0.6-1.5-0.9
				c-0.5-0.3-0.6-0.9-0.7-1.4c1-1,2.1-1.1,3.4-1.1c-0.6-0.4-1.2-0.8-1.8-1.2c-0.4,0.1-0.7,0.2-1,0.2c-1.2,0.2-2.4-0.1-3.4-0.9
				c-0.6-0.5-1-1-1.1-1.7c-0.1-0.4-0.1-0.8,0.2-1.2c0.2-0.3,0.5-0.5,0.9-0.6C39.5,3.1,39.8,3,40.1,3c0.7-0.1,1.4-0.1,2,0.2
				c0.9,0.4,1.4,1.1,1.8,1.9c0.2,0.4,0.4,0.9,0.5,1.4c0.4,0.3,0.7,0.6,1.2,0.9c0.4,0.3,0.7,0.7,1.2,0.9c0-0.1,0-0.2,0-0.2
				c-0.1-0.6-0.1-1.2-0.1-1.8c0.1-0.5,0.2-0.9,0.4-1.3c0.3-0.5,0.7-0.7,1.2-0.6c0.3,0.1,0.5,0.2,0.8,0.4c0.4,0.3,0.6,0.7,0.8,1.1
				c0.2,0.7,0.3,1.4,0.3,2.1c0,0.1,0,0.2-0.1,0.3c-0.3,0.6-0.7,1.2-1.3,1.5c-0.1,0-0.1,0.1-0.2,0.1c0.6,0.7,1.2,1.3,1.8,2
				c0.2-1.5,0.7-2.8,2.2-3.4c0.1,0,0.1,0.1,0.2,0.1c0.4,0.4,0.8,0.9,1.1,1.4c0.3,0.7,0.5,1.4,0.3,2.1c-0.2,0.6-0.5,1.2-1,1.6
				c-0.3,0.3-0.6,0.5-0.9,0.8c0.3,0.7,0.7,1.5,1,2.2c0,0.1,0.1,0.2,0.2,0.3c0.2-0.8,0.4-1.4,1-1.9c0.5-0.5,1.2-0.7,1.9-0.8
				c0.1,0.1,0.2,0.2,0.3,0.4c0.3,0.4,0.5,0.9,0.6,1.4c0.3,1.1,0,2.1-0.9,2.9c-0.2,0.2-0.4,0.3-0.6,0.5l0,0c-0.4,0.2-0.8,0.3-1.1,0.5
				c0.2,0.7,0.4,1.4,0.5,2.2c0.7-1.1,1.7-1.6,3.1-1.5c0.1,0.1,0.2,0.2,0.3,0.3c0.4,0.7,0.5,1.3,0.2,2.1c-0.2,0.6-0.5,1-0.9,1.5
				c-0.5,0.7-1.2,1-2,1.1c-0.1,0-0.2,0-0.3,0.1c0,0.7,0,1.5,0,2.2c0.1-0.1,0.2-0.2,0.3-0.2c0.4-0.3,0.9-0.6,1.4-0.8
				c0.6-0.1,1.1-0.1,1.6,0.3c0,0.2,0.1,0.3,0.1,0.5c0,0.4,0,0.8,0,1.1c0,0.1,0,0.1-0.1,0.2c-0.3,0.9-0.8,1.5-1.7,1.9
				c-0.5,0.2-1.1,0.3-1.7,0.4c-0.2,0-0.4,0.1-0.6,0.1c-0.2,0.8-0.4,1.6-0.6,2.3l0,0c0.1,0,0.2,0,0.2,0c0.4-0.1,0.8-0.2,1.3-0.3
				c0.6-0.1,1.2,0.1,1.7,0.5c0.1,0.1,0.2,0.3,0.1,0.5c-0.1,0.7-0.4,1.2-0.9,1.7c-0.6,0.6-1.4,0.9-2.3,1.1c-0.5,0.1-1,0.1-1.6,0.2
				c-0.4,0.6-0.9,1.3-1.4,1.9l0,0c0.6-0.1,1.2-0.2,1.8-0.1c0.7,0.1,1.3,0.3,1.7,0.9c0,0,0,0.1,0,0.1c0,0,0,0.1,0,0.1
				c-0.2,0.7-0.6,1.3-1.2,1.8c-0.5,0.4-1.1,0.7-1.8,0.7c-0.5,0-1-0.1-1.4-0.3c-0.3-0.1-0.6-0.3-0.9-0.4c-0.5,0.5-1,1.1-1.5,1.6
				c0.1,0,0.1,0,0.2,0.1c0.6,0.1,1.2,0.3,1.7,0.5c0.3,0.1,0.5,0.3,0.7,0.6c0.2,0.3,0.2,0.6-0.1,0.8c-0.3,0.3-0.6,0.6-0.9,0.8
				c-0.7,0.5-1.4,0.7-2.3,0.7c-0.6,0-1.2-0.2-1.8-0.6c-0.2-0.1-0.3-0.2-0.5-0.3c-2,1.2-3.9,2.4-6.1,3.1c0.6,0.1,1.1,0.2,1.6,0.3
				c1.7,0.4,3.4,0.7,5,1.3c0.3,0.1,0.5,0.2,0.8,0.3c0.5,0.2,0.5,0.8,0.2,1.2c-0.3,0.3-0.7,0.4-1.1,0.4c-1.4,0.1-2.5,0.6-3.4,1.6
				c-0.3,0.4-0.7,0.7-1.2,0.8c-0.2,0-0.5,0-0.7,0c-0.4-0.1-0.7-0.3-1-0.6c-0.3-0.3-0.5-0.5-0.8-0.8c-1-0.8-1.9-1.6-2.9-2.4
				c-0.3-0.2-0.6-0.5-1-0.6c-0.4,0.2-0.7,0.4-1.1,0.5c-0.3,0.1-0.6,0-0.9-0.3c-0.2-0.2-0.3-0.5-0.4-0.7c0-0.1-0.1-0.1-0.1-0.3
				c0,0.1,0,0.2-0.1,0.3c-0.2,0.8-0.8,1.3-1.6,1.3c-0.6,0-1.3,0-1.9,0c-0.3,0-0.5-0.1-0.8-0.2c-0.4-0.2-0.6-0.6-0.8-1.1
				c0,0.1-0.1,0.2-0.1,0.2c-0.3,0.8-0.8,1-1.5,0.6c-0.2-0.1-0.4-0.2-0.6-0.4c-0.2,0.1-0.4,0.2-0.5,0.3c-0.6,0.4-1.2,0.8-1.7,1.3
				c-0.8,0.7-1.6,1.4-2.4,2.2c-1,0.9-2,0.6-2.6-0.1c-0.7-0.8-1.6-1.4-2.6-1.7c-0.4-0.1-0.7-0.1-1.1-0.1c-0.3,0-0.6-0.1-0.8-0.4
				c-0.3-0.4-0.2-0.9,0.2-1.1c0.2-0.1,0.5-0.2,0.8-0.3c1.4-0.5,2.8-0.8,4.2-1.1c0.7-0.2,1.4-0.3,2.2-0.5c-2.2-0.7-4-2-5.9-3.1
				c-0.2,0.1-0.3,0.2-0.5,0.3c-0.8,0.4-1.6,0.7-2.5,0.5c-1-0.2-1.7-0.7-2.3-1.4c-0.2-0.3-0.2-0.6,0-0.9c0.2-0.3,0.5-0.5,0.8-0.6
				c0.5-0.2,1-0.3,1.4-0.5c0.1,0,0.2-0.1,0.3-0.1c-0.5-0.5-1-1.1-1.4-1.6c-0.1,0-0.2,0.1-0.2,0.1c-0.4,0.2-0.9,0.4-1.4,0.5
				C8.1,43,7.6,43,7,42.7c-1-0.5-1.6-1.3-1.9-2.4c0,0,0-0.1,0-0.1c0.1-0.1,0.3-0.3,0.5-0.4c0.6-0.4,1.3-0.5,2-0.4
				c0.3,0,0.5,0.1,0.9,0.1c-0.5-0.7-1-1.3-1.4-1.9c-0.4,0-0.7-0.1-1-0.1c-1-0.1-1.9-0.4-2.7-1.1c-0.5-0.5-0.8-1.2-0.9-1.9
				c0.3-0.5,0.7-0.7,1.1-0.8c0.5-0.1,0.9,0,1.4,0.1c0.2,0.1,0.5,0.1,0.7,0.2c-0.2-0.8-0.4-1.6-0.6-2.4c-0.1,0-0.2,0-0.3,0
				c-0.4,0-0.7-0.1-1.1-0.1c-0.9-0.2-1.6-0.6-2.1-1.4C1.5,29.6,1.4,29.3,1.3,29z M38.2,48c-0.6,0.4-1,0.9-1.4,1.4
				c0.2,0.1,0.3,0.1,0.5,0.1C37.6,49.1,37.9,48.6,38.2,48z"/>
		</g>
		<g id="XMLID_125_">
			<path id="XMLID_126_" class="st1" d="M20.3,47.1c-0.4-0.3-0.8-0.6-1.2-0.9c-0.3-0.2-0.5-0.5-0.6-0.9c0.1-0.3,0.3-0.4,0.5-0.4
				c0.5,0,1,0.1,1.4,0.1c0.7,0.1,1.4,0.2,2.2,0.2c0.4,0,0.7,0.2,0.9,0.6c0.3,0.6,0.6,1.2,1,1.7c0.1,0.2,0.2,0.4,0.3,0.6
				c-0.8,0.4-1.5,0.8-2.3,1.1c-0.5-0.5-0.9-0.9-1.3-1.4c0,0,0,0,0,0C20.9,47.6,20.6,47.4,20.3,47.1C20.3,47.1,20.3,47.1,20.3,47.1z"
				/>
		</g>
	</g>
	<g id="XMLID_3_">
		<g id="XMLID_120_">
			<path id="XMLID_121_" class="st2" d="M29.7,40.3c-7.8,0-14.1-6.3-14.1-13.9c0-7.7,6.3-13.9,14.1-13.9c7.8,0,14.1,6.3,14.1,13.9
				C43.8,34.1,37.5,40.3,29.7,40.3z M29.7,13c-7.4,0-13.5,6-13.5,13.4c0,7.4,6.1,13.4,13.5,13.4c7.4,0,13.5-6,13.5-13.4
				C43.2,19,37.2,13,29.7,13z"/>
		</g>
		<path id="XMLID_117_" class="st2" d="M29.7,7.4c-10.6,0-19.2,8.5-19.2,19c0,10.5,8.6,19,19.2,19c10.6,0,19.2-8.5,19.2-19
			C48.9,15.9,40.3,7.4,29.7,7.4z M29.7,44.5c-10.1,0-18.4-8.1-18.4-18.1c0-10,8.3-18.1,18.4-18.1c10.1,0,18.4,8.1,18.4,18.1
			C48.1,36.4,39.9,44.5,29.7,44.5z"/>
		<g id="XMLID_113_">
			<path id="XMLID_114_" class="st2" d="M21.2,24.2c-0.3,0.1-0.5,0.1-0.6,0c-0.1,0-0.1-0.1-0.1-0.2c0.3-1.1,0.6-2.5,0.7-3.7
				c0-0.1,0.1-0.1,0.1,0c0.2,0.1,0.3,0.4,0.6,0.5h1.6l0-2c0,0-2.5,0-2.5,0c-0.1-0.1-0.1-0.4,0-0.4h2.5l0.3-0.4c0.1,0,0.1,0,0.2,0
				c0,0,0.5,0.4,0.7,0.6c0.1,0.1-0.1,0.2-0.2,0.2c0,0,0,0.1,0,0.1l0,2.5c0,0.1-0.1,0.1-0.2,0.2c-0.2,0.1-0.4,0.1-0.6,0
				c-0.1-0.1-0.1-0.1-0.1-0.2v-0.3h-1.6c-0.1,0.6-0.2,1.1-0.3,1.8h2l0.3-0.3c0.1,0,0.1,0,0.1,0c0,0,0.7,0.6,0.7,0.6
				c0,0.1,0,0.2-0.2,0.1c-0.1,0-0.1,0.1-0.1,0.1c-0.1,0.8-0.3,2.1-0.5,3.1c-0.1,0.5-0.2,0.8-0.5,1c-0.2,0.2-0.6,0.3-1.1,0.3
				c-0.1-0.5-0.1-0.7-1.1-1c-0.1,0-0.1-0.1-0.1-0.2c0-0.1,0.1-0.1,0.2-0.1c0.6,0.2,1.4,0.3,1.6,0.2c0.1,0,0.2-0.2,0.3-0.4
				c0.1-0.8,0.3-1.6,0.4-3.2h-1.9C21.4,23.8,21.3,24.2,21.2,24.2z M28.9,26.3c-0.9,0.4-2.3,0.6-3.8,0.9c-0.1,0-0.2,0-0.2,0.2
				c0,0.2-0.1,0.2-0.2,0.3c-0.2,0.1-0.3-0.2-0.4-0.4c-0.1-0.3-0.2-0.6-0.3-0.9c0-0.1,0.1-0.1,0.2-0.1c0.2,0,0.7,0,0.9,0
				c0.7-2.1,1.1-4.8,1.5-8.2c0-0.1,0-0.1,0.1-0.1c0.3,0.1,0.6,0.2,0.9,0.3c0.2,0.1,0.4,0.2,0.4,0.3c0,0.1-0.1,0.1-0.2,0.2
				c-0.1,0-0.1,0-0.2,0c0,0-0.2,0-0.2,0.1c-0.5,3.2-1.2,5.4-2,7.3c1.3-0.1,2.2-0.1,3.2-0.4c-0.2-0.8-0.5-2.2-0.9-2.9
				c0-0.1,0.1-0.1,0.1-0.1c0,0,0.1,0,0.2,0c0,0,0.1,0.1,0.1,0.2c0,0.1,0.1,0.1,0.1,0.2c0.1,0.1,0.2,0.2,0.3,0.4
				c0.2,0.2,0.3,0.4,0.5,0.7c0.3,0.4,0.5,0.9,0.7,1.4c0.1,0.4,0.3,0.8,0.3,1.2c0,0.1,0,0.2,0,0.3c0,0.1,0,0.2,0,0.2
				c-0.1,0.2-0.3,0.3-0.4,0.3c-0.2,0-0.3,0-0.4-0.2C29.1,27.3,28.9,26.5,28.9,26.3z"/>
		</g>
		<g id="XMLID_106_">
			<g id="XMLID_111_">
				<path id="XMLID_112_" class="st2" d="M34.5,22.6c0,0.8-0.1,1.6-0.3,2.4c-0.2,0.7-0.6,1.3-1.2,1.7c-0.3,0.3-0.7,0.5-1.1,0.7
					c-0.3,0.1-0.5,0.2-0.8,0.3c0,0-0.7,0.2-0.7,0.1c0-0.2,0.2-0.2,0.4-0.3c0.7-0.4,1.3-0.8,1.9-1.4c0.6-0.7,0.8-1.7,0.9-2.6
					c0-0.3,0-0.6,0-1h-2c0,0-0.7,0-0.8,0c-0.4-0.1-0.2-0.3-0.1-0.3h0.8h3.4V18c0,0,0-0.1,0-0.2c0,0,0,0,0,0c0.3,0,1.3,0.2,1.3,0.4
					c0,0.1-0.2,0.2-0.4,0.3c-0.1,0-0.1,0.1-0.1,0.1v3.7h2.7l0.6-0.7c0.1,0,0.1,0,0.2,0l0.9,0.7c0.1,0.1,0.1,0.2,0.1,0.2
					c0,0.1-0.1,0.1-0.2,0.1h-3.6V26c0,0.3,0,0.4,0.1,0.6c0.2,0.1,1.2,0.2,2.3,0.1c0.2-0.1,0.5-0.7,0.6-1.5c0-0.1,0.2-0.1,0.2,0
					c-0.1,0.7,0,1.3,0.2,1.4c0.2,0.1,0.3,0.2,0.3,0.4c0,0.2-0.2,0.4-0.4,0.5c-0.3,0.1-0.6,0.1-0.9,0.1c-0.4,0-0.8,0.1-1.3,0.1
					c-0.3,0-0.5,0-0.8,0c-0.2,0-0.5-0.1-0.8-0.2c-0.3-0.2-0.4-0.8-0.4-1.1v-3.7H34.5z"/>
			</g>
			<g id="XMLID_109_">
				<path id="XMLID_110_" class="st2" d="M31.8,18.8c0,0,0.1,0,0.2,0c0.4,0.3,0.8,0.6,1.2,0.9c0.6,0.7,0.9,1.3,0.8,1.6
					c-0.1,0.1-0.2,0.2-0.3,0.3c-0.2,0-0.3,0-0.5-0.1c-0.1-0.1-0.2-0.4-0.4-0.7c-0.3-0.9-0.7-1.6-1-1.9
					C31.8,18.9,31.8,18.8,31.8,18.8z"/>
			</g>
			<g id="XMLID_107_">
				<path id="XMLID_108_" class="st2" d="M37.9,18.8C37.9,18.7,37.9,18.7,37.9,18.8c0.4,0.1,0.7,0.2,0.9,0.3
					c0.2,0.1,0.4,0.2,0.4,0.3c-0.1,0.1-0.1,0.2-0.4,0.2c-0.1,0-0.1,0.1-0.2,0.1c-0.6,0.8-1.2,1.5-1.8,2c-0.1,0.1-0.2,0-0.2,0
					c0,0,0-0.1,0-0.2c0.5-1.1,0.7-1.4,1-2.3C37.8,19.1,37.8,18.9,37.9,18.8z"/>
			</g>
		</g>
		<g id="XMLID_46_">
			<g id="XMLID_103_">
				<path id="XMLID_104_" class="st2" d="M16.3,37.3l-0.1,0.1c-0.1-0.2-0.3-0.4-0.4-0.6c-0.1-0.2-0.3-0.4-0.5-0.6l0.1-0.1
					c0.1,0.1,0.2,0.2,0.3,0.3c0,0,0.1,0,0.1,0c0,0,0.1-0.1,0.3-0.1l0.1-0.1l0.4-0.3c-0.1-0.2-0.2-0.3-0.3-0.5
					c-0.1-0.2-0.2-0.3-0.3-0.4l-0.6,0.4c-0.1,0.1-0.2,0.1-0.2,0.2c0,0,0,0.1,0,0.1c0,0,0.1,0.1,0.1,0.3l-0.1,0.1
					c-0.1-0.2-0.3-0.4-0.4-0.6c-0.1-0.2-0.3-0.4-0.5-0.7l0.1-0.1l0.2,0.2c0,0,0.1,0,0.1,0c0,0,0,0,0.1,0c0,0,0.2-0.1,0.4-0.2
					c0.3-0.2,0.5-0.3,0.6-0.4c0.4-0.3,0.7-0.5,0.8-0.6c0.1,0,0.1-0.1,0.1-0.1c0,0,0-0.1-0.1-0.3l0-0.1l0.1-0.1
					c0.1,0.2,0.3,0.5,0.4,0.6c0.1,0.2,0.3,0.4,0.4,0.6l-0.1,0.1l-0.2-0.2c0,0-0.1,0-0.1,0c0,0-0.1,0-0.2,0.1l-0.7,0.5l0.3,0.5
					c0,0,0.1,0.2,0.3,0.5c0.5-0.3,0.7-0.5,0.8-0.6c0,0,0.1-0.1,0.1-0.1c0,0,0-0.1-0.1-0.3c0,0,0,0,0-0.1l0.1-0.1
					c0.2,0.3,0.3,0.5,0.4,0.7c0.1,0.2,0.3,0.4,0.4,0.6l-0.1,0.1c-0.1-0.1-0.2-0.2-0.3-0.2c0,0-0.1,0-0.1,0c0,0-0.1,0-0.2,0.1
					l-0.7,0.4c-0.3,0.2-0.6,0.4-0.9,0.6c-0.1,0.1-0.2,0.1-0.2,0.2c0,0,0,0.1,0,0.1C16.1,37,16.2,37.1,16.3,37.3z"/>
			</g>
			<g id="XMLID_100_">
				<path id="XMLID_101_" class="st2" d="M13.9,33.7l-0.1,0.1c-0.1-0.3-0.2-0.5-0.2-0.7c-0.1-0.2-0.2-0.4-0.3-0.7l0.1-0.1
					c0.1,0.2,0.2,0.3,0.2,0.3c0,0,0,0,0.1,0c0,0,0.1,0,0.3-0.1l1-0.4c0.2-0.1,0.4-0.2,0.5-0.2c0.1-0.1,0.2-0.2,0.2-0.3
					c0-0.1,0-0.3,0-0.5c-0.1-0.2-0.2-0.3-0.3-0.4c-0.1-0.1-0.3-0.1-0.4-0.1c-0.1,0-0.4,0.1-0.7,0.2c-0.1,0-0.3,0.1-0.6,0.2
					c-0.2,0.1-0.3,0.1-0.3,0.2c0,0,0,0,0,0.1c0,0,0,0.1,0,0.3c0,0,0,0,0,0.1l-0.1,0.1c-0.1-0.3-0.1-0.5-0.2-0.6
					c0-0.1-0.1-0.3-0.2-0.5l0.1-0.1c0.1,0.2,0.2,0.3,0.2,0.3c0,0,0.1,0,0.1,0c0.1,0,0.4-0.1,1-0.3c0.3-0.1,0.5-0.2,0.7-0.2
					c0.1,0,0.3,0,0.4,0c0.1,0,0.2,0.1,0.3,0.1c0.1,0.1,0.2,0.1,0.3,0.2c0.1,0.1,0.2,0.3,0.2,0.4c0.1,0.3,0.1,0.5,0.1,0.7
					c0,0.2-0.1,0.3-0.2,0.5c-0.1,0.1-0.3,0.2-0.5,0.3l-1.2,0.4c-0.2,0.1-0.2,0.1-0.3,0.1c0,0,0,0,0,0.1
					C13.9,33.3,13.9,33.5,13.9,33.7z"/>
			</g>
			<g id="XMLID_97_">
				<path id="XMLID_98_" class="st2" d="M12.6,29.4l-0.1,0c0-0.2,0-0.4,0-0.5c0-0.2,0-0.3-0.1-0.6c0.2-0.2,0.8-0.7,1.7-1.6l-1.1,0.1
					c-0.3,0-0.4,0.1-0.4,0.1c0,0-0.1,0-0.1,0.1c0,0,0,0.1,0,0.3l-0.1,0c0-0.2,0-0.4,0-0.6c0-0.2,0-0.4-0.1-0.6l0.1,0
					c0,0,0,0.1,0,0.1c0,0.2,0.1,0.2,0.1,0.3c0,0,0.1,0,0.2,0c0.2,0,0.6,0,1.2-0.1c0.4,0,0.8-0.1,1.3-0.1c0,0.1,0.1,0.1,0.1,0.2
					l-0.9,0.8l-1.3,1.3l1-0.1l0.9-0.1c0.1,0,0.1,0,0.1,0c0,0,0,0,0,0c0,0,0-0.1,0-0.3c0,0,0,0,0-0.1l0.1,0c0,0.2,0,0.4,0,0.6
					c0,0.1,0,0.3,0.1,0.6l-0.1,0c0,0,0-0.1,0-0.1c0-0.2-0.1-0.2-0.1-0.3c0,0,0,0-0.1,0c0,0-0.2,0-0.6,0c-0.5,0-1,0.1-1.4,0.1
					c-0.1,0-0.2,0-0.2,0c0,0-0.1,0-0.1,0.1c0,0,0,0.1,0,0.3C12.6,29.3,12.6,29.3,12.6,29.4z"/>
			</g>
			<g id="XMLID_94_">
				<path id="XMLID_95_" class="st2" d="M14.1,22l0.1,0c0,0.2,0,0.3,0,0.4c0,0,0,0,0.1,0.1c0,0,0.1,0,0.3,0.1c0.3,0,0.5,0.1,0.7,0.1
					c0,0.1,0,0.2,0,0.3c0,0.3,0,0.5,0,0.6c0,0.1,0,0.3,0,0.4c-0.1,0.3-0.1,0.6-0.3,0.8c-0.1,0.2-0.3,0.4-0.6,0.5
					c-0.2,0.1-0.5,0.1-0.8,0.1c-0.5-0.1-0.9-0.4-1.1-0.8c-0.2-0.3-0.2-0.7-0.1-1.2c0.1-0.3,0.2-0.7,0.3-1c0.1,0,0.1,0,0.2,0
					c0.2,0,0.4,0.1,0.7,0.1l0,0.2c-0.2,0-0.4,0-0.5,0.1c-0.1,0-0.2,0.1-0.2,0.2c-0.1,0.1-0.1,0.3-0.2,0.4c0,0.2,0,0.4,0,0.6
					c0.1,0.2,0.2,0.3,0.4,0.4c0.2,0.1,0.4,0.2,0.6,0.2c0.4,0.1,0.7,0,0.9-0.1c0.2-0.2,0.4-0.4,0.4-0.7c0-0.2,0-0.3,0-0.5l-0.6-0.1
					c-0.1,0-0.2,0-0.3,0c0,0,0,0-0.1,0c0,0-0.1,0.1-0.1,0.2c0,0,0,0,0,0.1l-0.1,0c0.1-0.3,0.1-0.5,0.1-0.7
					C14,22.6,14.1,22.4,14.1,22z"/>
			</g>
			<g id="XMLID_91_">
				<path id="XMLID_92_" class="st2" d="M13.2,20.8l-0.1-0.1c0.1-0.2,0.2-0.5,0.3-0.7c0.1-0.2,0.2-0.5,0.3-0.7l0.1,0.1l-0.1,0.3
					c0,0,0,0.1,0,0.1c0,0,0.1,0.1,0.2,0.1l0.8,0.4c-0.2-0.5-0.4-0.9-0.5-1.2c-0.1-0.1-0.1-0.2-0.1-0.2c0,0,0,0-0.1,0
					c0,0-0.1,0.1-0.2,0.2l-0.1-0.1c0.1-0.2,0.2-0.4,0.3-0.6c0.1-0.1,0.1-0.3,0.2-0.5l0.1,0.1c-0.1,0.2-0.1,0.3-0.1,0.4
					c0,0.1,0,0.2,0.1,0.4l0.4,0.9c0.2,0,0.4-0.1,0.7-0.2c0.3-0.1,0.5-0.1,0.6-0.2c0.2,0,0.3-0.1,0.4-0.1c0.1-0.1,0.2-0.2,0.3-0.3
					L17,19c-0.1,0.2-0.2,0.5-0.3,0.7c-0.1,0.2-0.2,0.5-0.3,0.7l-0.1-0.1c0-0.1,0.1-0.2,0-0.2c0,0,0,0,0-0.1c0,0-0.1,0-0.1,0
					l-1.3,0.3l0.1,0.1l0.6,0.3c0.2,0.1,0.3,0.1,0.3,0.1c0,0,0.1,0,0.1,0c0,0,0.1-0.1,0.2-0.2c0,0,0,0,0-0.1l0.1,0.1
					c-0.1,0.2-0.2,0.4-0.3,0.6c-0.1,0.2-0.2,0.4-0.3,0.8l-0.1-0.1c0.1-0.2,0.1-0.4,0.1-0.4c0,0,0-0.1-0.1-0.1c-0.1,0-0.4-0.2-1-0.5
					c-0.5-0.2-0.8-0.4-0.9-0.4c-0.1,0-0.1,0-0.1,0C13.4,20.5,13.4,20.7,13.2,20.8z"/>
			</g>
			<g id="XMLID_88_">
				<path id="XMLID_89_" class="st2" d="M15.1,17.1L15,17c0.2-0.2,0.4-0.4,0.5-0.6c0.1-0.1,0.3-0.3,0.4-0.6l0.1,0.1
					c-0.1,0.2-0.2,0.3-0.2,0.3c0,0,0,0.1,0,0.1c0,0,0.1,0.1,0.2,0.2l0.8,0.6c0.2,0.2,0.4,0.3,0.5,0.3c0.1,0,0.2,0.1,0.4,0
					c0.1,0,0.3-0.1,0.4-0.3c0.1-0.2,0.2-0.3,0.2-0.5c0-0.1,0-0.3-0.1-0.4c-0.1-0.1-0.3-0.3-0.5-0.5c-0.1-0.1-0.2-0.2-0.5-0.4
					c-0.2-0.1-0.3-0.2-0.3-0.2c0,0,0,0-0.1,0c0,0-0.1,0.1-0.2,0.2c0,0,0,0-0.1,0.1l-0.1-0.1c0.2-0.2,0.3-0.4,0.4-0.5
					c0.1-0.1,0.2-0.3,0.3-0.4l0.1,0.1c-0.1,0.2-0.1,0.3-0.2,0.3c0,0,0,0.1,0,0.1c0.1,0.1,0.3,0.3,0.8,0.7c0.3,0.2,0.4,0.4,0.5,0.5
					c0.1,0.1,0.2,0.2,0.2,0.3c0,0.1,0.1,0.2,0.1,0.3c0,0.1,0,0.2-0.1,0.4c-0.1,0.2-0.1,0.3-0.3,0.4c-0.2,0.2-0.4,0.4-0.5,0.5
					c-0.2,0.1-0.3,0.1-0.5,0.1c-0.2,0-0.3-0.1-0.5-0.3l-1-0.8c-0.1-0.1-0.2-0.2-0.3-0.2c0,0-0.1,0-0.1,0
					C15.3,16.9,15.2,16.9,15.1,17.1z"/>
			</g>
			<g id="XMLID_84_">
				<path id="XMLID_85_" class="st2" d="M20.9,14.8l-0.1-0.1c0.1-0.1,0.2-0.2,0.2-0.2c0,0,0-0.1,0-0.1c0,0,0,0,0,0
					c-0.1,0-0.2-0.1-0.5-0.3c-0.2,0.1-0.3,0.2-0.4,0.3c-0.1,0.1-0.2,0.2-0.4,0.3c0.1,0.4,0.2,0.6,0.2,0.6c0,0,0,0,0.1,0
					c0,0,0.1,0,0.3-0.1l0.1,0.1c-0.1,0.1-0.3,0.2-0.4,0.3c-0.1,0.1-0.3,0.2-0.4,0.3l-0.1-0.1c0.1-0.1,0.1-0.2,0.1-0.2
					c0,0,0-0.1,0-0.1c0-0.1-0.1-0.5-0.2-1.1c-0.1-0.4-0.2-1-0.4-1.7l0.1-0.1c0.3,0.2,0.9,0.5,1.7,0.9c0.5,0.3,0.7,0.4,0.8,0.4
					c0.1,0,0.1,0,0.1,0c0,0,0.1,0,0.3-0.1L22,14c-0.2,0.1-0.4,0.3-0.5,0.4C21.3,14.5,21.2,14.7,20.9,14.8z M19.4,13.4l0.2,1l0.3-0.2
					c0.1-0.1,0.2-0.1,0.3-0.3L19.4,13.4z"/>
			</g>
			<g id="XMLID_81_">
				<path id="XMLID_82_" class="st2" d="M21.1,11.4l-0.1-0.1c0.2-0.1,0.3-0.1,0.5-0.2c0.1-0.1,0.3-0.1,0.5-0.2
					c0.2,0.1,0.9,0.5,2.1,1.1l-0.4-1c-0.1-0.2-0.2-0.4-0.2-0.4c0,0-0.1,0-0.1,0c0,0-0.1,0-0.3,0.1L23,10.4c0.2-0.1,0.4-0.1,0.5-0.2
					c0.1-0.1,0.3-0.2,0.5-0.3l0.1,0.1c0,0-0.1,0-0.1,0.1c-0.1,0.1-0.2,0.1-0.2,0.2c0,0,0,0.1,0,0.2c0.1,0.2,0.2,0.5,0.4,1.1
					c0.2,0.3,0.3,0.7,0.5,1.2c-0.1,0-0.1,0.1-0.1,0.1l-1.1-0.6L22,11.5l0.4,0.9l0.4,0.8c0,0.1,0.1,0.1,0.1,0.1c0,0,0,0,0.1,0
					c0,0,0.1,0,0.3-0.1c0,0,0,0,0.1,0l0.1,0.1c-0.2,0.1-0.4,0.1-0.5,0.2c-0.1,0-0.3,0.1-0.5,0.3l-0.1-0.1c0,0,0.1,0,0.1-0.1
					c0.1-0.1,0.2-0.1,0.2-0.2c0,0,0,0,0-0.1c0,0-0.1-0.2-0.2-0.6c-0.2-0.5-0.4-0.9-0.5-1.3c-0.1-0.1-0.1-0.2-0.1-0.2
					c0,0-0.1,0-0.1,0C21.5,11.3,21.4,11.3,21.1,11.4C21.2,11.4,21.2,11.4,21.1,11.4z"/>
			</g>
			<g id="XMLID_78_">
				<path id="XMLID_79_" class="st2" d="M28.7,10.4l0,0.1c-0.2,0.1-0.3,0.1-0.3,0.1c0,0,0,0,0,0.1c0,0,0,0.1,0,0.3
					c0,0.3,0.1,0.5,0.1,0.7c-0.1,0-0.2,0.1-0.3,0.1c-0.3,0.1-0.5,0.2-0.6,0.2c-0.1,0-0.3,0.1-0.4,0.1c-0.3,0.1-0.6,0.1-0.8,0
					c-0.3-0.1-0.5-0.2-0.6-0.4c-0.2-0.2-0.3-0.4-0.3-0.8c-0.1-0.5,0-1,0.4-1.3c0.2-0.3,0.6-0.4,1.1-0.5c0.3-0.1,0.7-0.1,1.1,0
					c0,0.1,0,0.1,0,0.2c0,0.2,0.1,0.4,0.1,0.7l-0.2,0c-0.1-0.2-0.2-0.4-0.2-0.4c-0.1-0.1-0.2-0.1-0.3-0.2c-0.1,0-0.3,0-0.4,0
					c-0.2,0-0.4,0.1-0.5,0.2c-0.1,0.1-0.2,0.3-0.3,0.5c-0.1,0.2-0.1,0.4,0,0.7c0.1,0.4,0.2,0.7,0.4,0.9c0.2,0.2,0.5,0.2,0.8,0.2
					c0.2,0,0.3-0.1,0.5-0.2l-0.1-0.6c0-0.1,0-0.2-0.1-0.3c0,0,0,0-0.1,0c0,0-0.1,0-0.3,0c0,0,0,0-0.1,0l0-0.1c0.3,0,0.5-0.1,0.7-0.1
					C28.1,10.5,28.3,10.5,28.7,10.4z"/>
			</g>
			<g id="XMLID_75_">
				<path id="XMLID_76_" class="st2" d="M33.9,9.6l0-0.1c0.3,0.1,0.5,0.2,0.7,0.3c0.2,0.1,0.4,0.1,0.7,0.2l0,0.1c-0.2,0-0.3,0-0.4,0
					c0,0-0.1,0-0.1,0c0,0-0.1,0.1-0.1,0.2l-0.3,1c-0.1,0.3-0.1,0.4-0.1,0.5c0,0.1,0,0.3,0.1,0.4c0.1,0.1,0.2,0.2,0.4,0.3
					c0.2,0.1,0.4,0.1,0.5,0c0.1,0,0.2-0.1,0.3-0.3c0.1-0.1,0.2-0.4,0.3-0.7c0-0.1,0.1-0.3,0.2-0.7c0.1-0.2,0.1-0.3,0.1-0.4
					c0,0,0,0,0-0.1c0,0-0.1-0.1-0.2-0.1c0,0,0,0-0.1,0l0-0.1c0.3,0.1,0.5,0.2,0.6,0.2c0.1,0,0.3,0.1,0.5,0.2l0,0.1
					c-0.2,0-0.3,0-0.4,0c0,0-0.1,0-0.1,0.1c0,0.1-0.2,0.4-0.4,1c-0.1,0.3-0.2,0.5-0.2,0.6c-0.1,0.1-0.1,0.2-0.2,0.3
					c-0.1,0.1-0.2,0.1-0.3,0.2c-0.1,0-0.2,0.1-0.4,0.1c-0.2,0-0.3,0-0.5-0.1c-0.3-0.1-0.5-0.2-0.6-0.4c-0.1-0.1-0.2-0.3-0.2-0.4
					c0-0.2,0-0.4,0.1-0.6l0.4-1.2c0.1-0.2,0.1-0.3,0.1-0.3c0,0,0-0.1,0-0.1C34.1,9.8,34,9.7,33.9,9.6z"/>
			</g>
			<g id="XMLID_72_">
				<path id="XMLID_73_" class="st2" d="M37.8,11.1l0.1-0.1c0.1,0.1,0.3,0.2,0.4,0.3c0.1,0.1,0.3,0.2,0.5,0.3c0,0.3,0.1,1.1,0.3,2.3
					l0.6-0.9c0.1-0.2,0.2-0.4,0.2-0.4c0,0,0-0.1,0-0.1c0,0-0.1-0.1-0.3-0.2l0.1-0.1c0.2,0.1,0.3,0.2,0.5,0.3
					c0.1,0.1,0.3,0.2,0.5,0.3l-0.1,0.1c0,0-0.1,0-0.1,0c-0.1-0.1-0.2-0.1-0.3-0.1c0,0-0.1,0-0.1,0.1c-0.1,0.2-0.3,0.5-0.6,1
					c-0.2,0.3-0.4,0.7-0.7,1.1c-0.1,0-0.1,0-0.2,0l-0.1-1.2l-0.2-1.8l-0.5,0.8l-0.5,0.8c0,0.1-0.1,0.1-0.1,0.1c0,0,0,0,0,0.1
					c0,0,0.1,0.1,0.2,0.2c0,0,0,0,0.1,0.1l-0.1,0.1c-0.2-0.1-0.3-0.2-0.5-0.3c-0.1-0.1-0.3-0.2-0.5-0.3l0.1-0.1c0,0,0.1,0,0.1,0
					c0.1,0.1,0.2,0.1,0.3,0.1c0,0,0,0,0.1,0c0,0,0.1-0.2,0.3-0.5c0.3-0.4,0.6-0.8,0.8-1.2c0.1-0.1,0.1-0.2,0.1-0.2c0,0,0-0.1,0-0.1
					C38.1,11.4,38,11.3,37.8,11.1C37.9,11.2,37.9,11.2,37.8,11.1z"/>
			</g>
			<g id="XMLID_69_">
				<path id="XMLID_70_" class="st2" d="M42.4,14.5l-0.1,0.1l-0.1,0c-0.1-0.1-0.2-0.2-0.3-0.2c0,0-0.1,0-0.2,0.1l-0.1,0.1L41.3,15
					l-0.5,0.6l-0.3,0.3c-0.1,0.1-0.1,0.1-0.1,0.2c0,0,0,0.1,0,0.1c0,0.1,0.1,0.1,0.2,0.3c0,0,0,0,0,0.1l-0.1,0.1
					c-0.2-0.2-0.4-0.4-0.5-0.5c-0.1-0.1-0.3-0.3-0.6-0.5l0.1-0.1c0.2,0.1,0.3,0.2,0.3,0.2c0,0,0.1,0,0.1,0c0,0,0.1,0,0.2-0.1
					c0.2-0.2,0.4-0.4,0.8-0.8l0.5-0.5l0,0c0.1-0.1,0.1-0.1,0.1-0.2c0,0-0.1-0.1-0.2-0.3c0,0,0,0-0.1-0.1l0.1-0.1
					c0.2,0.2,0.4,0.4,0.5,0.6C42,14.1,42.2,14.3,42.4,14.5z"/>
			</g>
			<g id="XMLID_66_">
				<path id="XMLID_67_" class="st2" d="M42.9,15.2l0.1-0.1c0.2,0.3,0.3,0.5,0.4,0.6c0.1,0.1,0.2,0.3,0.4,0.5l-0.1,0.1
					c-0.1-0.1-0.2-0.2-0.2-0.2c0,0-0.1,0-0.1,0c0,0,0,0-0.1,0.1l-0.9,1.4l1.1-0.3l0.6-0.2c0,0,0,0,0,0c0,0,0,0,0-0.1
					c0,0,0-0.1-0.1-0.3l0.1-0.1c0.1,0.2,0.2,0.3,0.3,0.4c0.1,0.1,0.2,0.2,0.3,0.4l-0.1,0.1c-0.1-0.1-0.2-0.1-0.2-0.2
					c0,0-0.1,0-0.1,0c0,0-0.4,0.1-1,0.3c-0.4,0.1-1,0.3-1.7,0.5L41.5,18l0.9-1.5c0.3-0.5,0.5-0.8,0.5-0.9c0,0,0-0.1,0-0.1
					C43,15.5,43,15.4,42.9,15.2z"/>
			</g>
			<g id="XMLID_63_">
				<path id="XMLID_64_" class="st2" d="M45.3,18.8l0.1-0.1c0.1,0.3,0.2,0.6,0.4,1c0.2,0.4,0.3,0.8,0.5,1.3
					c-0.3,0.1-0.5,0.2-0.7,0.3l-0.1-0.2c0,0,0.1-0.1,0.1-0.1c0.2-0.1,0.2-0.2,0.2-0.3c0,0,0-0.1-0.1-0.3l-0.3-0.7
					c-0.2,0.1-0.5,0.2-0.9,0.4l0.1,0.3c0.1,0.2,0.1,0.3,0.2,0.3c0,0,0.2,0,0.4,0l0.1,0.2C45.3,21,45.1,21,45,21.1
					c-0.1,0.1-0.3,0.1-0.5,0.2l-0.1-0.2c0.2-0.1,0.3-0.2,0.3-0.2c0,0,0-0.1-0.1-0.3l-0.1-0.4l-1,0.4l0.3,0.7c0,0.1,0.1,0.1,0.1,0.2
					c0,0,0.1,0.1,0.1,0.1c0.1,0,0.3,0.1,0.5,0.1l0.1,0.2c-0.2,0-0.5,0-0.8,0.1c-0.2-0.4-0.3-0.9-0.5-1.3c-0.1-0.2-0.2-0.5-0.4-0.9
					l0.1-0.1c0.1,0.2,0.2,0.3,0.2,0.3c0,0,0.1,0,0.2,0l0.1,0l0.7-0.3l0.6-0.2l0.3-0.1c0.1-0.1,0.2-0.1,0.2-0.1c0,0,0-0.1,0-0.1
					C45.4,19.1,45.3,18.9,45.3,18.8z"/>
			</g>
			<g id="XMLID_59_">
				<path id="XMLID_60_" class="st2" d="M46.7,22.5l0.1,0c0,0.5,0.1,0.7,0.1,0.8c0,0.1,0,0.2,0.1,0.4c0,0.2,0,0.3,0.1,0.4
					c0,0.2,0,0.4,0,0.5c0,0.1-0.1,0.2-0.2,0.3c-0.1,0.1-0.2,0.1-0.4,0.2c-0.1,0-0.2,0-0.3,0c-0.1,0-0.2-0.1-0.3-0.2
					c-0.1,0-0.1-0.1-0.2-0.2c-0.1,0.1-0.3,0.3-0.6,0.5c-0.2,0.2-0.3,0.3-0.3,0.3c0,0-0.1,0.1-0.1,0.1c0,0.1,0,0.2,0,0.4l-0.1,0
					c0-0.2,0-0.4-0.1-0.6c0-0.2-0.1-0.3-0.1-0.6c0.4-0.2,0.7-0.5,1.2-0.8c0-0.1,0-0.2,0-0.2l-0.8,0.1c-0.1,0-0.2,0-0.2,0.1
					c0,0,0,0,0,0.1c0,0,0,0.1,0,0.4l-0.1,0c0-0.3-0.1-0.6-0.1-0.8c0-0.2-0.1-0.4-0.1-0.7l0.1,0c0.1,0.2,0.1,0.3,0.1,0.4
					c0,0,0.1,0,0.1,0c0,0,0.4,0,1-0.1l0.6-0.1c0.3,0,0.4-0.1,0.5-0.1c0,0,0.1,0,0.1-0.1C46.7,22.9,46.7,22.8,46.7,22.5L46.7,22.5z
					 M45.7,23.7c0,0.1,0,0.1,0,0.1c0,0.2,0.1,0.3,0.2,0.4c0.1,0.1,0.2,0.1,0.4,0.1c0.2,0,0.3-0.1,0.4-0.2c0.1-0.1,0.1-0.2,0.1-0.4
					c0-0.1,0-0.1,0-0.2L45.7,23.7z"/>
			</g>
			<g id="XMLID_56_">
				<path id="XMLID_57_" class="st2" d="M46.2,28.7l0-0.2c0.3,0,0.4-0.1,0.5-0.2c0.1-0.1,0.1-0.2,0.2-0.4c0-0.1,0-0.2-0.1-0.3
					c-0.1-0.1-0.2-0.1-0.3-0.1c-0.1,0-0.2,0-0.3,0.1c-0.1,0.1-0.2,0.2-0.3,0.5c-0.1,0.3-0.3,0.4-0.4,0.5c-0.1,0.1-0.3,0.1-0.5,0.1
					c-0.2,0-0.4-0.1-0.6-0.3c-0.2-0.2-0.2-0.5-0.2-0.9c0-0.1,0-0.3,0.1-0.4c0-0.1,0.1-0.2,0.1-0.4c0.2,0,0.5,0.1,0.7,0.1l0.1,0
					l0,0.2c-0.3,0-0.5,0.1-0.5,0.1c-0.1,0.1-0.2,0.2-0.2,0.4c0,0.1,0,0.3,0.1,0.4c0.1,0.1,0.2,0.1,0.3,0.2c0.1,0,0.2,0,0.2,0
					c0.1,0,0.1-0.1,0.2-0.1c0.1-0.1,0.1-0.2,0.2-0.4c0.2-0.3,0.3-0.5,0.4-0.5c0.1-0.1,0.3-0.1,0.4-0.1c0.2,0,0.4,0.1,0.6,0.3
					c0.1,0.2,0.2,0.5,0.2,0.8c0,0.2-0.1,0.5-0.2,0.7c-0.2,0-0.4,0-0.4-0.1C46.5,28.7,46.3,28.7,46.2,28.7z"/>
			</g>
			<g id="XMLID_53_">
				<path id="XMLID_54_" class="st2" d="M46.4,31.5l-0.1,0l0-0.1c0-0.2,0-0.3,0-0.3c0,0-0.1-0.1-0.2-0.1l-0.1,0l-0.6-0.2l-0.7-0.2
					l-0.4-0.1c-0.1,0-0.2,0-0.2,0c0,0-0.1,0-0.1,0c0,0-0.1,0.1-0.1,0.3c0,0,0,0,0,0.1l-0.1,0c0.1-0.3,0.2-0.5,0.2-0.7
					c0.1-0.2,0.1-0.5,0.2-0.8l0.1,0c0,0.2,0,0.3,0,0.4c0,0,0,0.1,0,0.1c0,0,0.1,0.1,0.2,0.1c0.2,0.1,0.6,0.2,1.1,0.3l0.7,0.2l0.1,0
					c0.1,0,0.2,0,0.2,0c0,0,0.1-0.1,0.2-0.3c0,0,0,0,0-0.1l0.1,0c-0.1,0.3-0.2,0.6-0.2,0.7C46.6,30.9,46.5,31.2,46.4,31.5z"/>
			</g>
			<g id="XMLID_50_">
				<path id="XMLID_51_" class="st2" d="M44.3,34.4l0.1-0.2c0.3,0,0.5,0.1,0.5,0.1c0,0,0.1,0,0.1,0c0,0,0.1-0.1,0.2-0.3l0.1-0.2
					L43.5,33c-0.2-0.1-0.3-0.2-0.4-0.2c0,0-0.1,0-0.1,0c0,0-0.1,0.1-0.2,0.3l-0.1-0.1c0.2-0.4,0.3-0.6,0.4-0.7
					c0.1-0.1,0.2-0.4,0.3-0.7l0.1,0.1c-0.1,0.2-0.1,0.3-0.1,0.4c0,0,0,0.1,0,0.1c0,0,0.2,0.1,0.4,0.2l1.7,0.8l0.1-0.3
					c0-0.1,0.1-0.2,0.1-0.2c0,0,0-0.1-0.1-0.1c-0.1-0.1-0.2-0.2-0.3-0.3l0.1-0.2c0.2,0.1,0.3,0.2,0.4,0.2c0.1,0,0.2,0.1,0.4,0.2
					c-0.2,0.5-0.5,0.9-0.7,1.4c-0.2,0.4-0.3,0.7-0.4,0.9C44.8,34.6,44.6,34.5,44.3,34.4z"/>
			</g>
			<g id="XMLID_47_">
				<path id="XMLID_48_" class="st2" d="M44.4,35.6l0.1,0.1L44.3,36c-0.1,0.1-0.2,0.2-0.2,0.3c-0.1,0.1-0.2,0.3-0.4,0.6l-0.1-0.1
					c0.1-0.1,0.1-0.2,0.1-0.3c0,0,0-0.1,0-0.1c0,0,0,0-0.1,0c-0.1,0-0.2,0-0.5-0.1c-0.2,0-0.4-0.1-0.6-0.1l0.5,1.1c0,0,0,0,0,0.1
					c0,0,0,0,0.1,0c0,0,0.1-0.1,0.2-0.2l0.1,0.1l-0.1,0.1c-0.1,0.2-0.2,0.3-0.3,0.3c-0.1,0.1-0.2,0.2-0.3,0.4L42.5,38
					c0.1-0.2,0.1-0.3,0.1-0.3c0-0.1,0-0.1,0-0.3c0-0.1-0.2-0.5-0.5-1.3l-0.6-0.4c-0.1-0.1-0.2-0.1-0.2-0.1c0,0-0.1,0-0.1,0
					c0,0-0.1,0.1-0.2,0.2l-0.1,0l-0.1-0.1c0.2-0.3,0.4-0.5,0.5-0.6c0.1-0.1,0.2-0.3,0.5-0.6l0.1,0.1c0,0,0,0.1,0,0.1
					c-0.1,0.1-0.1,0.2-0.1,0.3c0,0,0,0.1,0,0.1c0,0,0.1,0.1,0.2,0.2l0.5,0.4c0.2,0,0.4,0,0.7,0.1c0.4,0,0.7,0.1,0.8,0.1
					c0.1,0,0.1,0,0.2,0C44.2,35.7,44.3,35.7,44.4,35.6z"/>
			</g>
		</g>
		<g id="XMLID_22_">
			<g id="XMLID_41_">
				<path id="XMLID_42_" class="st2" d="M25.9,30.6L25.9,30.6l0.1-0.5c0-0.3,0-0.6-0.1-0.7l0.5,0.1c0.1,0,0.1,0,0.1,0.1
					c0,0.1,0,0.1-0.1,0.1l-0.1,0v0.9h0.1l0.3-0.3l0.4,0.3c0,0,0.1,0.1,0.1,0.1c0,0,0,0.1-0.1,0.1h-0.7v1c0.2-0.1,0.4-0.1,0.5-0.2
					l0,0.1c-0.2,0.1-0.4,0.3-0.5,0.4v1.8c0,0.2-0.1,0.3-0.2,0.4c-0.1,0.1-0.3,0.1-0.4,0.1c0-0.1,0-0.2,0-0.3c0,0-0.2-0.1-0.5-0.2
					l0-0.1l0.6,0.1c0.1,0,0.1,0,0.1-0.1v-1.4c-0.1,0.1-0.3,0.1-0.4,0.2l0,0.2c0,0,0,0.1-0.1,0.1c0,0-0.1,0-0.1-0.1l-0.2-0.5
					c0.3-0.1,0.5-0.2,0.8-0.2v-1.1h-0.1c-0.2,0-0.4,0-0.6,0l-0.1-0.3C25.5,30.6,25.7,30.6,25.9,30.6z M27.8,30.3h0.5v-0.6
					c0-0.1,0-0.2,0-0.4l0.5,0.1c0.1,0,0.2,0.1,0.2,0.1c0,0.1-0.1,0.1-0.2,0.2v0.6h0.7l0.3-0.4l0.4,0.3c0,0,0.1,0.1,0.1,0.1
					c0,0,0,0.1-0.1,0.1h-1.4v1h0.5l0.2-0.2l0.4,0.3c0,0,0.1,0.1,0.1,0.1c0,0-0.1,0.1-0.3,0.2c-0.2,0.4-0.3,0.7-0.5,1
					c-0.1,0.2-0.2,0.3-0.3,0.4c0.1,0.1,0.3,0.2,0.5,0.3c0.2,0.1,0.6,0.2,1,0.3l-0.1,0.2c-0.1,0-0.2,0-0.2,0.1
					c-0.1,0-0.1,0.1-0.2,0.3c-0.3-0.1-0.6-0.3-0.8-0.4c-0.2-0.1-0.3-0.2-0.5-0.4c-0.2,0.2-0.4,0.3-0.6,0.4c-0.3,0.2-0.7,0.3-1.1,0.4
					l-0.1-0.2c0.6-0.2,1-0.5,1.3-0.7c0.1-0.1,0.3-0.2,0.4-0.3c-0.2-0.3-0.4-0.5-0.5-0.8c-0.1-0.2-0.1-0.5-0.2-0.8h-0.3l-0.1-0.3
					c0.2,0,0.5,0.1,0.7,0.1h0.5v-1h-0.5c-0.2,0-0.4,0-0.6,0l-0.1-0.3C27.3,30.3,27.6,30.3,27.8,30.3z M27.7,31.6
					c0.1,0.2,0.1,0.4,0.2,0.5c0.1,0.3,0.3,0.4,0.5,0.7c0,0,0.1,0.1,0.1,0.1c0.1-0.1,0.2-0.2,0.3-0.4c0.1-0.3,0.3-0.5,0.4-0.9H27.7
					C27.7,31.6,27.7,31.6,27.7,31.6z"/>
			</g>
			<g id="XMLID_38_">
				<path id="XMLID_39_" class="st2" d="M31.1,30.9h1.3c0-0.3,0-0.6,0-0.9c0-0.1,0-0.4,0-0.6l0.6,0.1c0.1,0,0.1,0,0.1,0.1
					c0,0.1-0.1,0.2-0.2,0.2c0,0.5,0,0.8-0.1,1.1h1.4l0.3-0.4l0.5,0.3c0,0,0.1,0.1,0.1,0.1c0,0,0,0.1-0.1,0.1H33
					c0.2,0.5,0.3,0.8,0.5,1.1c0.2,0.4,0.5,0.7,0.8,1c0.3,0.3,0.6,0.5,1,0.6l-0.1,0.2c-0.1,0-0.2,0-0.2,0c-0.1,0-0.2,0.1-0.3,0.3
					c-0.3-0.2-0.6-0.4-0.8-0.7c-0.3-0.3-0.5-0.7-0.7-1.1c-0.1-0.3-0.3-0.8-0.4-1.3c0,0.1,0,0.1,0,0.2c-0.1,0.4-0.2,0.7-0.3,1
					c-0.1,0.3-0.3,0.5-0.4,0.8c-0.2,0.2-0.5,0.5-0.7,0.7c-0.2,0.2-0.5,0.4-0.9,0.6l-0.1-0.1c0.4-0.3,0.7-0.5,0.9-0.7
					c0.3-0.3,0.5-0.6,0.7-0.9c0.2-0.4,0.3-0.7,0.4-1.1c0-0.1,0.1-0.3,0.1-0.5h-1.3c-0.2,0-0.4,0-0.6,0l-0.1-0.3
					C30.7,30.9,30.9,30.9,31.1,30.9z"/>
			</g>
			<g id="XMLID_32_">
				<path id="XMLID_33_" class="st2" d="M37,29.9c-0.2,0.1-0.5,0.1-0.7,0.1l0,0.4h0.3l0.2-0.2l0.3,0.2c0,0,0,0.1,0,0.1
					c0,0,0,0.1-0.1,0.1h-0.8l0,0.5h0.3l0.2-0.2l0.3,0.2c0,0,0,0.1,0,0.1c0,0,0,0.1-0.1,0.1h-0.8l0,0.4h2.8l0.1-0.4h-0.1
					c-0.2,0-0.4,0-0.6,0l-0.1-0.3c0.2,0,0.4,0.1,0.7,0.1h0.1l0-0.5h-0.1c-0.2,0-0.4,0-0.6,0l-0.1-0.3c0.2,0,0.4,0.1,0.7,0.1h0.1
					l0-0.5h-0.1c-0.2,0-0.4,0-0.6,0l-0.1-0.3c0.2,0,0.4,0.1,0.7,0.1h0.1l0,0l0.2-0.2l0.3,0.3c0.1,0,0.1,0.1,0.1,0.1
					c0,0,0,0.1-0.1,0.1L39.8,30l-0.1,1.6h0.1l0.2-0.2l0.3,0.3c0,0,0.1,0.1,0.1,0.1c0,0,0,0.1-0.1,0.1l-0.1,0
					c-0.1,0.1-0.3,0.3-0.5,0.5l-0.1-0.1c0.1-0.2,0.2-0.4,0.2-0.6h-3.8c0,0.1,0,0.2,0,0.3c0,0.1-0.1,0.2-0.1,0.3
					c0,0.1-0.1,0.1-0.2,0.1c-0.1,0-0.2-0.1-0.2-0.2c0-0.1,0-0.1,0.1-0.2c0.1-0.1,0.1-0.1,0.2-0.3c0.1-0.1,0.1-0.3,0.2-0.5l0.1,0
					c0,0.1,0,0.1,0,0.2h0.2L36,30c0-0.1,0-0.3-0.1-0.5l0.4,0.2c0.2-0.1,0.4-0.3,0.5-0.4l0.4,0.4c0,0,0.1,0.1,0.1,0.1
					c0,0,0,0.1-0.1,0.1L37,29.9z M37.1,32.2h1.7l0.2-0.2l0.3,0.4c0.1,0,0.1,0.1,0.1,0.1c0,0.1,0,0.1-0.1,0.1h-0.2
					c-0.3,0.1-0.6,0.3-0.9,0.3c0,0,0,0,0,0c0,0,0,0.1-0.1,0.1v0.1h1.3l0.3-0.4l0.4,0.3c0,0,0.1,0.1,0.1,0.1c0,0,0,0.1-0.1,0.1h-1.9
					v0.5c0,0.2-0.1,0.3-0.3,0.4c-0.2,0.1-0.3,0.1-0.4,0.1c0-0.1,0-0.2-0.1-0.3c0-0.1-0.2-0.1-0.5-0.2l0-0.2l0.7,0.1
					c0.1,0,0.1,0,0.1-0.1v-0.5h-2l-0.1-0.3c0.2,0,0.4,0.1,0.7,0.1h1.4c0-0.1,0-0.3,0-0.5l0.4,0.1c0.2-0.1,0.4-0.3,0.6-0.4h-1.6
					c-0.2,0-0.4,0-0.6,0l-0.1-0.3C36.6,32.2,36.8,32.2,37.1,32.2z M38.1,30.5l0.4,0.2c0,0,0.1,0,0.1,0.1c0,0-0.1,0.1-0.2,0.1
					c0,0.1-0.1,0.1-0.1,0.1c0,0,0.1,0,0.1,0c0.2,0.1,0.2,0.2,0.2,0.3c0,0.1,0,0.1,0,0.1c0,0-0.1,0.1-0.1,0.1c-0.1,0-0.1,0-0.2-0.1
					c-0.1-0.1-0.1-0.1-0.2-0.2c-0.1,0.1-0.2,0.1-0.3,0.1c-0.1,0.1-0.3,0.1-0.5,0.2l0-0.1c0.1,0,0.2-0.1,0.2-0.1
					c0.1-0.1,0.2-0.1,0.3-0.2c0,0,0.1-0.1,0.1-0.1c-0.1-0.1-0.3-0.2-0.4-0.3l0.1-0.1c0.2,0.1,0.3,0.1,0.5,0.2
					C38,30.8,38,30.7,38.1,30.5z M38.1,29.4l0.4,0.2c0,0,0.1,0,0.1,0.1c0,0-0.1,0.1-0.2,0.1c0,0.1-0.1,0.1-0.1,0.2
					c0.2,0.1,0.2,0.2,0.2,0.3c0,0.1,0,0.1,0,0.1c0,0-0.1,0.1-0.1,0.1c-0.1,0-0.1,0-0.2-0.1c0,0-0.1-0.1-0.1-0.1
					c-0.1,0-0.1,0.1-0.2,0.1c-0.1,0.1-0.3,0.1-0.5,0.2l0-0.1c0.1,0,0.2-0.1,0.2-0.1c0.1-0.1,0.2-0.1,0.2-0.2c0,0,0.1-0.1,0.1-0.1
					c-0.1-0.1-0.3-0.2-0.5-0.4l0.1-0.1c0.2,0.1,0.4,0.2,0.5,0.2C38,29.7,38.1,29.6,38.1,29.4z"/>
			</g>
			<g id="XMLID_23_">
				<g id="XMLID_30_">
					<path id="XMLID_31_" class="st2" d="M23.2,30.6c0,0.1,0.1,0.1,0.2,0.1c0.2,0,0.2-0.1,0.2-0.3c0-0.1-0.1-0.2-0.2-0.3
						c-0.2-0.1-0.4-0.2-0.7-0.4l-0.1,0.1C22.8,30.1,23,30.4,23.2,30.6z"/>
				</g>
				<g id="XMLID_28_">
					<path id="XMLID_29_" class="st2" d="M25,32.2l-0.4-0.3l-0.3,0.4l-0.1,0v-2.6l0.1,0c0.1,0,0.1-0.1,0.1-0.1c0-0.1,0-0.1-0.1-0.1
						l-0.5-0.1c0,0.2,0.1,0.4,0.1,0.7v2.3l-1.8,0.3l-0.4,0l0.1,0.2l0.3-0.1l1.7-0.3v0.7l0,0.9c0,0.1,0.1,0.1,0.1,0.1
						c0.1,0,0.2,0,0.2,0c0,0,0.1,0,0.1-0.1v-1.7l0.7-0.2C25.1,32.3,25.1,32.3,25,32.2C25.1,32.2,25.1,32.2,25,32.2z"/>
				</g>
				<g id="XMLID_26_">
					<path id="XMLID_27_" class="st2" d="M23.1,31.9c0,0.1,0.1,0.1,0.2,0.1c0.2,0,0.2-0.1,0.2-0.3c0-0.1-0.1-0.2-0.2-0.3
						c-0.2-0.1-0.4-0.2-0.7-0.3l-0.1,0.1C22.7,31.4,22.9,31.6,23.1,31.9z"/>
				</g>
				<g id="XMLID_24_">
					<path id="XMLID_25_" class="st2" d="M22,32.4c0.2,0,0.2-0.2,0.2-0.3c0-0.1-0.1-0.2-0.2-0.3c-0.1-0.1-0.3-0.2-0.6-0.3l0-0.5h0.9
						c0.1,0,0.1,0,0.1-0.1c0,0,0-0.1-0.1-0.1l-0.4-0.3l-0.3,0.3h-0.3v-0.8c0.2,0,0.3-0.1,0.5-0.1l0.2,0c0,0,0.1,0,0.1-0.1
						c0-0.1,0-0.1,0-0.1l-0.4-0.3c-0.2,0.2-0.5,0.3-0.7,0.4c-0.2,0.1-0.5,0.1-0.8,0.2l0.1,0.2c0.3,0,0.6,0,0.8-0.1v0.8h-0.2
						c-0.2,0-0.4,0-0.6,0c0,0,0,0,0,0s0,0,0,0v0.1c0,0,0,0,0,0s0,0,0,0c0.1,0,0.4,0,0.6,0h0.2c-0.1,0.3-0.1,0.6-0.2,0.9
						c-0.1,0.3-0.2,0.6-0.4,0.9c-0.1,0.2-0.2,0.4-0.3,0.5l0.1,0.1c0.2-0.1,0.3-0.3,0.4-0.5c0.1-0.2,0.3-0.4,0.4-0.7l0,1.3l0,0.9
						c0,0.1,0.1,0.1,0.2,0.1c0.1,0,0.1,0,0.2,0c0,0,0.1-0.1,0.1-0.1c0,0,0-2.5,0-2.5c0,0,0,0,0,0c0,0,0,0,0,0c0,0,0.1,0.1,0.1,0.1
						c0.1,0.1,0.1,0.1,0.2,0.2C21.8,32.2,21.9,32.3,22,32.4C22,32.4,22,32.4,22,32.4z"/>
				</g>
			</g>
		</g>
		<g id="XMLID_20_">
			<polygon id="XMLID_21_" class="st2" points="22,39.8 22.5,40.2 23.1,40 22.9,40.7 23.3,41.2 22.6,41.2 22.2,41.7 22,41.1 
				21.4,40.8 21.9,40.5 			"/>
		</g>
		<g id="XMLID_18_">
			<polygon id="XMLID_19_" class="st2" points="36.6,39.8 37.1,40.2 37.7,40 37.5,40.7 37.9,41.2 37.2,41.2 36.8,41.7 36.6,41.1 
				36,40.8 36.6,40.5 			"/>
		</g>
		<g id="XMLID_4_">
			<g id="XMLID_16_">
				<path id="XMLID_17_" class="st2" d="M26.6,43.2h-0.1v-2c0-0.1,0-0.1-0.1-0.2c-0.1,0-0.1,0-0.2,0l-0.5,0.4
					c-0.1,0.1-0.1,0.2,0,0.2c0.1,0.1,0.2,0.1,0.2,0l0.2-0.2v1.7H26c-0.1,0-0.2,0.1-0.2,0.2c0,0.1,0.1,0.2,0.2,0.2h0.6
					c0.1,0,0.2-0.1,0.2-0.2C26.8,43.3,26.7,43.2,26.6,43.2z"/>
			</g>
			<g id="XMLID_12_">
				<path id="XMLID_13_" class="st2" d="M29.4,41.9c0-0.5-0.4-0.9-0.8-0.9c-0.5,0-0.8,0.4-0.8,0.9c0,0.5,0.4,0.9,0.8,0.9
					c0.1,0,0.2,0,0.3-0.1c-0.3,0.5-0.9,0.6-0.9,0.6c-0.1,0-0.2,0.1-0.1,0.2c0,0.1,0.1,0.1,0.2,0.1c0,0,0,0,0,0
					C28.5,43.6,29.4,43.1,29.4,41.9C29.4,42,29.4,42,29.4,41.9C29.4,42,29.4,42,29.4,41.9z M28,41.9c0-0.3,0.2-0.5,0.5-0.5
					c0.3,0,0.5,0.2,0.5,0.5c0,0.3-0.2,0.5-0.5,0.5C28.3,42.4,28,42.2,28,41.9z"/>
			</g>
			<g id="XMLID_8_">
				<path id="XMLID_9_" class="st2" d="M31,42c-0.1,0-0.2,0-0.3,0c0.2-0.4,0.6-0.7,0.6-0.7c0.1-0.1,0.1-0.2,0-0.2
					c-0.1-0.1-0.2-0.1-0.2,0c0,0-0.9,0.7-0.9,1.7c0,0,0,0.1,0,0.1c0,0,0,0,0,0v0l0,0c0,0.5,0.4,0.9,0.8,0.9c0.5,0,0.8-0.4,0.8-0.9
					C31.9,42.4,31.5,42,31,42z M31,43.3c-0.3,0-0.5-0.2-0.5-0.5c0,0,0,0,0,0c0-0.3,0.2-0.5,0.5-0.5c0.3,0,0.5,0.2,0.5,0.5
					C31.5,43.1,31.3,43.3,31,43.3z"/>
			</g>
			<g id="XMLID_5_">
				<g id="XMLID_6_">
					<path id="XMLID_7_" class="st2" d="M33.2,43.8C33.1,43.8,33.1,43.8,33.2,43.8c-0.1,0-0.2-0.1-0.2-0.2c0.3-1,0.7-1.7,1-2h-1.2
						c-0.1,0-0.2-0.1-0.2-0.2c0-0.1,0.1-0.2,0.2-0.2h1.6c0.1,0,0.1,0,0.2,0.1c0,0.1,0,0.2-0.1,0.2c0,0-0.7,0.6-1.2,2.1
						C33.3,43.7,33.2,43.8,33.2,43.8z"/>
				</g>
			</g>
		</g>
	</g>
</g>
</svg>
